<?xml version="1.0" standalone="no"?><!DOCTYPE svg PUBLIC "-//W3C//DTD SVG 1.1//EN" "http://www.w3.org/Graphics/SVG/1.1/DTD/svg11.dtd" [<!ENTITY nbsp " ">]><svg data-noselect="" 
  viewBox="130.34246595191004 127.60609436035 400 408.31867278294" 
  width="400" 
  height="408.31867278294" 
  ref="svg_canvas" 
  preserveAspectRatio="none" 
  version="1.1" xmlns="http://www.w3.org/2000/svg" 
  style="background: #ffffff;">
    <defs></defs>
    <g id="shape_chF5beHTdI"   ref="shape_chF5beHTdI" key="shape_chF5beHTdI" transform="translate(221.97284698486,207.60609436035) rotate(0,108.36961896705,124.15933639147) scale(1,1)" style="cursor:move;display:inline;opacity:1;" filter="">
            <g style="display:inline"><rect fill="rgba(0,0,0,0)" width="236.7392379341" height="268.31867278294" x="-10" y="-10"></rect><svg version="1.1" id="图层_1" xmlns="http://www.w3.org/2000/svg" xmlns:xlink="http://www.w3.org/1999/xlink" x="0px" y="0px" width="216.7392379341" height="248.31867278294" viewBox="19.579631805419922 21.618059158325195 151.3203582763672 173.36810302734375" style="enable-background:new 0 0 200 200;" xml:space="preserve" preserveAspectRatio="none" data-parent="shape_chF5beHTdI">
<style type="text/css">
	.st0{fill:#CAB717;}
	.st1{fill:#C38022;}
</style>
<g>
	<g>
		<path class="" d="M98.4,178c-42.6,0-77.2-34.6-77.2-77.2c0-42.6,34.6-77.2,77.2-77.2c32.3,0,61.4,20.3,72.5,50.6l-0.6,0.3
			c-9.8-17.1-28-27.7-47.6-27.7c-30.2,0-54.8,24.6-54.8,54.8c0,30.2,24.6,54.8,54.8,54.8c18.4,0,35.4-9.1,45.6-24.4l0.5,0.3
			C156.5,160.1,128.8,178,98.4,178z M98.4,24.3c-42.2,0-76.6,34.4-76.6,76.6c0,42.2,34.4,76.6,76.6,76.6c29,0,55.4-16.4,68.4-42.1
			c-10.5,13.7-26.7,21.8-44.1,21.8c-30.6,0-55.5-24.9-55.5-55.5c0-30.6,24.9-55.5,55.5-55.5c18.7,0,36.1,9.5,46.3,25
			C157.2,43,129.3,24.3,98.4,24.3z" fill="#C9A063"></path>
	</g>
	<g>
		<g>
			<g>
				<path class="" d="M54.6,37.5c2.6,10.6,4.9,21.3,6.2,32.2c1.2,10.5,1.3,20.9,0.4,31.4c-1.7,20.9-5.8,41.9-1.9,62.8
					c1.1,5.7,2.7,11.2,5.2,16.5c2.4,5.2,5.5,10.6,10.7,13.4c0.7,0.4,0,1.5-0.7,1.1c-7.9-4.3-11.9-14.5-14.4-22.6
					c-2.9-9.7-3.8-19.9-3.6-30c0.4-22.3,5.5-44.3,3.7-66.7c-1.1-12.7-3.7-25.3-6.7-37.7C53.1,36.9,54.4,36.7,54.6,37.5L54.6,37.5z" fill="#c9a063"></path>
			</g>
		</g>
		<g>
			<g>
				<path class="" d="M31.8,72.5c14,8.7,29,18.7,33.7,35.4c2.4,8.6,1.4,17.2-1,25.7c-2.4,8.6-5.4,17-6,26.1
					c-0.1,0.8-1.4,0.7-1.3-0.1c1.2-16.9,11.5-32.2,7.5-49.6c-4-17.3-19.5-27.6-33.6-36.4C30.4,73.1,31.1,72,31.8,72.5L31.8,72.5z" fill="#c9a063"></path>
			</g>
		</g>
		<g>
			<g>
				<path class="" d="M47.5,65.4C45.1,76.5,52.4,85.8,59,93.8c0.5,0.6-0.5,1.5-1,0.8c-6.9-8.2-14.3-17.9-11.8-29.3
					C46.4,64.5,47.7,64.6,47.5,65.4L47.5,65.4z" fill="#c9a063"></path>
			</g>
		</g>
		<g>
			<g>
				<path class="" d="M45.5,106.6c4.8,9.4,11.1,19.2,12.1,30c0.1,0.8-1.2,1.1-1.3,0.2c-1-10.6-7.3-20.3-12-29.7
					C44,106.4,45.1,105.8,45.5,106.6L45.5,106.6z" fill="#c9a063"></path>
			</g>
		</g>
		<g>
			<g>
				<path class="" d="M73.8,53c0.1,12.4-4.2,24.6-12,34.2c-0.5,0.6-1.6-0.1-1.1-0.7c7.7-9.5,11.8-21.4,11.7-33.6
					C72.5,52,73.7,52.2,73.8,53L73.8,53z" fill="#c9a063"></path>
			</g>
		</g>
		<g>
			<g>
				<path class="" d="M77.8,115.9c-2.3,2.8-4.6,5.6-6.8,8.4c-2.2,2.7-4.7,5.3-5.7,8.7c-0.2,0.8-1.5,0.3-1.2-0.5
					c1-3.2,3.2-5.7,5.2-8.2c2.5-3,5-6.1,7.4-9.1C77.3,114.5,78.3,115.2,77.8,115.9L77.8,115.9z" fill="#c9a063"></path>
			</g>
		</g>
		<g>
			<g>
				<path class="" d="M44.9,106.3c0.8-1.2,1.5-2.3,2.1-3.6c0.4-1,1.4-3.8,0.6-4.8c-1.4-1.9-2.4,2.8-2.6,3.5
					c-0.3,1.6-0.6,3.1,0.1,4.6c0.4,0.8-0.8,1.3-1.2,0.6c-1-2.2-0.5-4.5,0.1-6.8c0.3-1.4,1.1-4.5,3.1-4.2c1.9,0.2,1.9,3,1.8,4.4
					c-0.2,2.6-1.5,5-3,7.1C45.5,107.8,44.4,107,44.9,106.3L44.9,106.3z" fill="#c9a063"></path>
			</g>
		</g>
		<g>
			<g>
				<path class="" d="M43.8,98.3c-0.3-0.8-1.3-2.7-2.2-3c-2.6-0.6-1.3,3.8-1,4.5c0.5,1.2,1.3,2.2,2,3.3c0.2,0.3,1.2,2.2,1.5,2.2
					c0.8,0,0.7,1.3-0.1,1.3c-1.5-0.1-2.7-3.1-3.4-4.2c-1.3-2-2.3-4.1-1.7-6.5c0.9-4.5,5.3-0.6,6.1,1.9C45.2,98.5,44,99.1,43.8,98.3
					L43.8,98.3z" fill="#c9a063"></path>
			</g>
		</g>
		<g>
			<g>
				<path class="" d="M38.7,99.8c-0.4-0.2-1-0.5-1.5-0.5c-0.6-0.3-0.9,0.1-0.8,1.3c-0.7,0.7-0.8,1.2-0.3,1.6
					c0.4,0.8,2.1,1.8,2.9,2.2c2,1.1,4.2,1.6,6.4,1.5c0.8,0,1.1,1.2,0.2,1.3c-4,0.2-8.2-1.3-10.7-4.4c-0.9-1.2-1.5-2.8-0.5-4.1
					c1.2-1.6,3.3-0.6,4.8,0C39.9,98.9,39.5,100.1,38.7,99.8L38.7,99.8z" fill="#c9a063"></path>
			</g>
		</g>
		<g>
			<g>
				<path class="" d="M44.9,107.9c-2.8,0.8-9.2,3-11.4-0.1c-1.6-2.2,1.3-4.4,3.4-3.8c0.8,0.2,0.4,1.4-0.5,1.2
					c-0.8-0.2-1.5,0.1-1.9,0.8c0.2,1.3,0.9,2,2.1,2c0.9,0.1,1.8,0,2.6-0.1c1.8-0.3,3.6-0.7,5.4-1.2
					C45.4,106.4,45.7,107.7,44.9,107.9L44.9,107.9z" fill="#c9a063"></path>
			</g>
		</g>
		<g>
			<g>
				<path class="" d="M56,136.6c-2.1-4.9-4.9-9.9-8.4-13.8c-3.7-4.2-8.9-5.7-14.2-6.9c0.1-0.4,0.3-0.8,0.4-1.2
					c2.1,1.5,3.5,3.6,5.1,5.6c2,2.5,4.4,4.2,7.1,5.8c4.2,2.5,8.6,5.2,9.7,10.4c0.2,0.8-1.1,1-1.3,0.2c-1.2-5.7-6.9-8-11.3-10.8
					c-1.8-1.1-3.4-2.5-4.7-4.1c-1.7-2.1-3.1-4.3-5.4-6c-0.5-0.3-0.2-1.3,0.4-1.2c5,1.2,10,2.4,13.9,6.1c4.2,4.1,7.5,10,9.7,15.3
					C57.5,136.8,56.3,137.4,56,136.6L56,136.6z" fill="#c9a063"></path>
			</g>
		</g>
		<g>
			<g>
				<path class="" d="M80.8,125.4c-2.7,2.8-5.3,5.8-8.2,8.3c-2.7,2.3-5.7,2.7-9.1,2.8c-0.8,0-1.1-1.2-0.2-1.3
					c3.8-0.2,6.8-0.9,9.6-3.6c2.4-2.3,4.7-4.8,7-7.2C80.5,123.8,81.4,124.8,80.8,125.4L80.8,125.4z" fill="#c9a063"></path>
			</g>
		</g>
		<g>
			<g>
				<path class="" d="M81.3,124.8c-2.7,1.9-5.9,2-8.8,3.2c-3.4,1.5-6.2,4-8.2,7.2c-0.4,0.7-1.5,0-1.1-0.7
					c1.7-2.6,3.8-4.9,6.5-6.5c3.3-2,7.6-2,10.7-4.1C81.2,123.3,82,124.3,81.3,124.8L81.3,124.8z" fill="#c9a063"></path>
			</g>
		</g>
		<g>
			<g>
				<path class="" d="M77,115.3c1.5-1.6,3.9-2.2,6-2.3c1.5-0.1,3.8,0.4,4.1,2.2c0.4,1.7-1.4,2.6-2.8,2.7c-2.5,0.2-4.9-1.2-7-2.5
					c-0.7-0.4,0-1.5,0.7-1.1c1.2,0.7,2.3,1.4,3.6,1.8c0.6,0.2,1.2,0.4,1.9,0.4c1.1,0.1,2.8-0.7,1.6-1.8c-1.7-1.6-6.1,0.1-7.4,1.5
					C77.3,116.9,76.4,115.9,77,115.3L77,115.3z" fill="#c9a063"></path>
			</g>
		</g>
		<g>
			<g>
				<path class="" d="M83.9,112.7c0.3-0.7,1.1-1.1,1.3-1.6c-0.1-0.8-0.1-1.5-0.2-2.3c-0.3-0.4-0.7-0.5-1.2-0.3
					c-0.9,0-1.5,0.3-2.2,0.7c-2.3,1.5-3.6,3.9-3.8,6.6c0,0.8-1.3,0.7-1.3-0.1c0.2-3.7,2.9-8.1,6.9-8.7c1.4-0.2,2.7,0.8,3.3,2
					c1.1,2.1-1.1,2.6-1.7,4.2C84.8,114,83.6,113.5,83.9,112.7L83.9,112.7z" fill="#c9a063"></path>
			</g>
		</g>
		<g>
			<g>
				<path class="" d="M81.1,108c0-3-3.5-4.3-4.6-1.2c-0.4,1.1-0.2,2.3,0.1,3.4c0.4,1.9,1.1,3.8,1.7,5.7c0.2,0.8-1,1-1.3,0.2
					c-1-3.4-3.9-9.3-0.1-12c3-2.1,5.5,1.1,5.5,4C82.4,109,81.1,108.9,81.1,108L81.1,108z" fill="#c9a063"></path>
			</g>
		</g>
		<g>
			<g>
				<path class="" d="M74.3,108.2c-1.3-0.9-2-0.6-2.2,1c-0.1,0.7,0,1.3,0.3,2c0.5,1,1.3,1.7,2.1,2.4c1.2,0.8,2.4,1.4,3.4,2.5
					c0.6,0.6-0.4,1.4-1,0.8c-2.3-2.4-6.4-3.4-6.2-7.5c0.1-2.5,2.6-4.3,4.5-2C75.9,108,74.9,108.9,74.3,108.2L74.3,108.2z" fill="#c9a063"></path>
			</g>
		</g>
		<g>
			<g>
				<path class="" d="M55.9,66.9c-1.8,3.4-0.2,7.1-0.1,10.6c0,2.8-1.1,5.2-2.9,7.4c-0.5,0.6-1.6-0.1-1.1-0.7
					c2.9-3.5,2.7-6.8,2.1-11c-0.3-2.5-0.3-4.8,0.9-7C55.2,65.5,56.3,66.2,55.9,66.9L55.9,66.9z" fill="#c9a063"></path>
			</g>
		</g>
		<g>
			<g>
				<path class="" d="M55.7,66.6c-5.2,5-4.9,11.4-3,17.8c0.2,0.8-1,1-1.3,0.2c-2.1-6.9-2.1-13.7,3.4-19
					C55.4,65,56.3,66,55.7,66.6L55.7,66.6z" fill="#c9a063"></path>
			</g>
		</g>
		<g>
			<g>
				<path class="" d="M47.9,86c-2.6,1.2-5.5,2.4-8.3,1.6c-3-0.8-4.9-4.6-8.3-4.2c-0.8,0.1-1.1-1.2-0.2-1.3c2.4-0.3,4,1,5.7,2.4
					c3.5,2.8,6.7,2,10.5,0.3C48.1,84.5,48.6,85.7,47.9,86L47.9,86z" fill="#c9a063"></path>
			</g>
		</g>
		<g>
			<g>
				<path class="" d="M46.2,85.3c-4.4-2.9-9.6-3.8-14.8-2.4c-0.8,0.2-1-1.1-0.2-1.3c5.4-1.5,11-0.5,15.7,2.6
					C47.6,84.7,46.9,85.8,46.2,85.3L46.2,85.3z" fill="#c9a063"></path>
			</g>
		</g>
		<g>
			<g>
				<path class="" d="M83.6,58.5c-3.4,1.5-4,5.3-6.1,8c-1.5,1.9-3.6,3-6,3.4c-0.8,0.1-1-1.1-0.2-1.3c4-0.6,5.6-3.3,7.3-6.5
					c1.1-2.1,2.3-3.8,4.5-4.8C83.8,57,84.4,58.2,83.6,58.5L83.6,58.5z" fill="#c9a063"></path>
			</g>
		</g>
		<g>
			<g>
				<path class="" d="M83.3,58.1c-4.8-0.7-10.7,5.2-11.4,9.7c-0.1,0.8-1.4,0.7-1.3-0.1c0.5-3,2.5-5.3,4.6-7.4
					c2.3-2.2,4.9-4,8.2-3.5C84.3,56.9,84.2,58.2,83.3,58.1L83.3,58.1z" fill="#c9a063"></path>
			</g>
		</g>
		<g>
			<g>
				<path class="" d="M56,55.2c-0.1-3.8-3.4-7-6-9.4c-3.1-2.9-6.3-3.7-10.4-3.5c0-0.4,0.1-0.8,0.1-1.2c3.2,1,5.2,3.5,7,6.2
					c1,1.5,2,3,3.2,4.3c2,1.9,4.5,2.6,7.1,3.1c0.8,0.2,0.7,1.5-0.1,1.3c-3.6-0.7-6.6-1.8-9-4.7c-2.7-3.3-4.3-7.6-8.7-8.9
					c-0.6-0.2-0.5-1.2,0.1-1.2c4.3-0.2,7.7,0.5,11,3.4c3.2,2.8,6.8,6.5,6.9,10.9C57.3,56.2,56,56.1,56,55.2L56,55.2z" fill="#c9a063"></path>
			</g>
		</g>
		<g>
			<g>
				<path class="" d="M46.8,64.4c0.4-1.4,0.7-2.8,0.8-4.3c0.1-0.9,0.1-1.8-0.2-2.7c-0.4-1.1-1.7-3.7-2.9-0.2
					c-0.9,2.5,1.4,5.5,2.5,7.7c0.4,0.7-0.8,1.3-1.2,0.6c-1.2-2.2-2.9-4.5-2.8-7.1c0.1-1.6,0.5-3.9,2.4-4.1c1.7-0.2,2.8,1.3,3.2,2.8
					c0.7,2.5,0,5.4-0.7,7.8C47.8,65.6,46.6,65.2,46.8,64.4L46.8,64.4z" fill="#c9a063"></path>
			</g>
		</g>
		<g>
			<g>
				<path class="" d="M43.1,60.5c-0.7-0.6-3.6-2.7-3.5-0.2c0,0.9,1.1,2,1.7,2.5c0.8,0.6,1.7,0.8,2.7,1c0.9,0.2,1.7,0.7,2.5,1
					c0.8,0.3,0.3,1.5-0.5,1.2c-1.1-0.4-2-0.8-3.2-1.1c-0.7-0.2-1.3-0.4-1.9-0.7c-1.3-0.7-2.4-2-2.7-3.4c-0.3-1.3,0.2-2.4,1.5-2.8
					c1.6-0.5,2.9,0.5,4,1.5C44.5,60,43.8,61.1,43.1,60.5L43.1,60.5z" fill="#c9a063"></path>
			</g>
		</g>
		<g>
			<g>
				<path class="" d="M48.7,59.3c0.9-0.6,2-1.1,3.1-0.7c0.9,0.3,1.4,1.1,1.4,2.1c0,1.2-1,2-1.9,2.6c-1.3,0.9-2.6,1.6-3.9,2.3
					c-0.7,0.4-1.3-0.8-0.6-1.2c1.2-0.6,2.4-1.3,3.5-2c0.5-0.3,1.2-0.7,1.4-1.3c0.2-0.5-0.2-1.2-0.7-1.3c-0.5-0.1-1.1,0.2-1.5,0.5
					C48.9,60.8,48,59.8,48.7,59.3L48.7,59.3z" fill="#c9a063"></path>
			</g>
		</g>
		<g>
			<g>
				<path class="" d="M30.8,72.8c0.5-1.5,0.1-3.2-0.3-4.7c-0.1-0.6-0.3-1.2-0.5-1.8c-0.1-0.4-0.3-0.8-0.5-1.1
					c-0.2-1.1-0.7-1.3-1.4-0.5c-0.9,0.2-1.2,0.7-0.8,1.6c0.1,0.4,0.2,0.7,0.4,1.1c0.3,0.8,0.8,1.4,1.3,2.1c0.2,0.3,1.6,2.6,1.9,2.7
					c0.8,0.1,0.7,1.4-0.1,1.3c-0.8-0.1-1.1-0.9-1.5-1.5c-0.8-1.1-1.7-2.1-2.4-3.4c-0.9-1.6-1.7-5,0.6-6c4.1-1.9,5.2,8.6,4.6,10.7
					C31.8,74,30.6,73.6,30.8,72.8L30.8,72.8z" fill="#c9a063"></path>
			</g>
		</g>
		<g>
			<g>
				<path class="" d="M26.7,70.1c-0.7-0.7-2.2-2.1-3.3-2.3c-0.7,0.2-1.5,0.3-2.2,0.5c-0.3,1.1-0.1,2,0.7,2.5
					c0.5,0.5,1.2,0.9,1.9,1.2c2.4,1.2,5,1.3,7.6,1c0.8-0.1,1.1,1.2,0.2,1.3c-2.6,0.3-5.3,0.2-7.7-0.8c-1.6-0.7-4.1-2-4.3-4
					c-0.2-1.5,1.1-3.2,2.7-3.3c2-0.1,4.1,1.7,5.4,3C28.3,69.9,27.3,70.7,26.7,70.1L26.7,70.1z" fill="#c9a063"></path>
			</g>
		</g>
		<g>
			<g>
				<path class="" d="M30.8,75.7c-1.4,1.7-2.8,4.2-4.8,5.2c-1.4,0.7-3.7,0.5-4.8-0.7c-0.9-1,0-2.3,0.8-3.1
					c0.7-0.7,1.5-1.3,2.4-1.6c1.2-0.5,2.9-0.5,3.7-1.7c0.5-0.7,1.5,0.1,1.1,0.7c-1.4,2-4.2,1.6-6,3.2c-0.8,0.8-1.5,1.6-0.2,2.1
					c1.6,0.6,2.8-0.1,3.8-1.3c1-1.1,2-2.4,2.9-3.6C30.3,74.3,31.3,75.1,30.8,75.7L30.8,75.7z" fill="#c9a063"></path>
			</g>
		</g>
		<g>
			<g>
				<path class="" d="M72.4,51.8c0.8-1.8,1.3-3.6,1.6-5.5c0.1-1.1,0.1-2.1,0.1-3.2c-0.1-1.1,0.2-2.5-1.1-2.4
					c-2,0.2-1.4,4.8-1,6.2c0.5,1.7,1.4,3.2,1.6,5c0.1,0.8-1.2,1.1-1.3,0.2c-0.5-3.3-2.5-5.8-2-9.2c0.2-1.5,0.8-4.8,2.9-4.5
					c2,0.3,2,3.5,2,4.9c0.2,3.1-0.5,6.1-1.7,8.9C73.3,53,72.1,52.5,72.4,51.8L72.4,51.8z" fill="#c9a063"></path>
			</g>
		</g>
		<g>
			<g>
				<path class="" d="M74.5,43.9c1.4-1.6,5.6-3.1,5.6,0.3c0.1,3.5-4.5,6.1-7,7.7c-0.7,0.4-1.3-0.7-0.6-1.2c1.6-1,3.2-2.1,4.6-3.4
					c0.6-0.6,1.9-1.8,1.7-2.7c-0.3-0.4-0.6-0.7-0.9-1.1c-0.1,0-0.3,0.1-0.4,0.1c-0.6,0-1.6,0.7-2,1.1C75,45.3,73.9,44.6,74.5,43.9
					L74.5,43.9z" fill="#c9a063"></path>
			</g>
		</g>
		<g>
			<g>
				<path class="" d="M69.5,44.2c-2.2-1-3.2-0.6-2.8,1.3c0.1,0.6,0.2,1.1,0.5,1.6c0.5,1.1,1.3,1.8,2.3,2.4
					c1.5,0.9,2.9,1.5,4.2,2.7c0.6,0.5-0.1,1.6-0.7,1.1c-2.8-2.5-7.7-3.6-7.6-8.3c0.1-3.3,3.7-4,5.3-1.3
					C71.1,44.3,69.9,44.9,69.5,44.2L69.5,44.2z" fill="#c9a063"></path>
			</g>
		</g>
		<g>
			<g>
				<path class="" d="M55.5,27c1.4-2.3,5.1-1.9,5.5,1c0.6,4.3-5.1,6.1-6.6,9.3c-0.4,0.7-1.6,0.3-1.2-0.5c0.7-1.5,2-2.5,3.2-3.6
					c0.8-0.7,1.6-1.4,2.2-2.3c0.3-0.4,0.6-0.9,0.8-1.4c0.6-1,0.3-1.6-1-1.7c-0.8-1-1.4-1-1.8-0.1C56.1,28.5,55,27.7,55.5,27L55.5,27
					z" fill="#c9a063"></path>
			</g>
		</g>
		<g>
			<g>
				<path class="" d="M52.6,36c1-2.3,2-4.7,2.4-7.2c0.2-1.1,0.5-2.9,0.1-4c-1.6-4.3-4.1,0.1-4.3,2c-0.1,0.8-1.4,0.7-1.3-0.1
					c0.3-2.5,3-7.1,5.9-4.1c3.2,3.2-0.2,10.5-1.6,13.8C53.5,37.2,52.2,36.8,52.6,36L52.6,36z" fill="#c9a063"></path>
			</g>
		</g>
		<g>
			<g>
				<path class="" d="M52.4,36.2c-0.6-2.2-1.3-4.4-2.4-6.4c-0.5-0.9-1-1.7-1.7-2.5c-1.6-1.6-4.7-0.1-2.4,2.4
					c0.9,1,2.3,1.8,3.4,2.7c1.5,1.4,2.9,2.9,4.6,4c0.7,0.5-0.1,1.5-0.7,1.1c-1.4-0.9-2.5-2-3.7-3.2c-1.3-1.2-2.8-2.2-4.1-3.4
					c-1.3-1.2-2.8-4-1.3-5.6c1.5-1.7,4-0.1,5.2,1.1c2.4,2.5,3.6,6.2,4.4,9.5C53.9,36.8,52.6,37,52.4,36.2L52.4,36.2z" fill="#c9a063"></path>
			</g>
		</g>
		<g>
			<g>
				<path class="" d="M44.4,31.2c-0.4-0.4-1.5-0.9-2-0.7c-1.2,0.5-1.9,2.2-1,3.3c0.8,1.1,3.5,1.4,4.8,1.7c2.5,0.5,5,0.8,7.6,0.7
					c0.8,0,0.7,1.3-0.1,1.3c-2.9,0-5.8-0.3-8.7-1c-1.9-0.5-4.5-0.9-5.2-3.1c-1.1-3.4,3-5.5,5.5-3.3C45.8,30.7,45.1,31.8,44.4,31.2
					L44.4,31.2z" fill="#c9a063"></path>
			</g>
		</g>
	</g>
</g>
</svg></g>
        </g><g id="shape_RhjI6LTY9Q"   ref="shape_RhjI6LTY9Q" key="shape_RhjI6LTY9Q" transform="translate(304.88607025146,185.27162341308997) rotate(0,141.826,123.092375) scale(1,1)" style="cursor:move;display:inline;opacity:1;" filter="">
            <g style="display:inline"><svg xmlns="http://www.w3.org/2000/svg" version="1.1" xmlns:xlink="http://www.w3.org/1999/xlink" width="198" height="246.966" viewBox="0 0 198 246.966" preserveAspectRatio="none" data-parent="shape_RhjI6LTY9Q"><rect fill="rgba(0,0,0,0)" width="66" height="33" x="33" y="106.983"></rect><g data-width="66" transform="translate(33, 0)"><path d="M25.84-1.09L25.84-11.22L30.69-10.76Q30.72-10.16 29.60-9.93L29.60-9.93L29.60 1.72Q29.60 1.85 29.12 2.06Q28.64 2.28 27.93 2.46Q27.23 2.64 26.50 2.64L26.50 2.64L25.84 2.64L25.84-0.13L7.36-0.13L6.17 1.78L2.31-0.49Q2.74-0.99 3.37-1.45L3.37-1.45L3.37-11.32L8.35-10.82Q8.32-10.56 8.04-10.36Q7.76-10.16 7.13-10.07L7.13-10.07L7.13-1.09L14.36-1.09L14.36-14.19L8.91-14.19L7.76-12.28L3.96-14.52Q4.36-15.02 4.98-15.51L4.98-15.51L4.98-24.75L9.90-24.29Q9.87-24.02 9.59-23.81Q9.31-23.60 8.68-23.50L8.68-23.50L8.68-15.11L14.36-15.11L14.36-27.79L19.47-27.29Q19.44-26.93 19.19-26.68Q18.94-26.43 18.28-26.33L18.28-26.33L18.28-15.11L24.22-15.11L24.22-24.72L29.07-24.29Q29.11-23.63 27.98-23.43L27.98-23.43L27.98-13.20Q27.98-13.07 27.51-12.85Q27.03-12.64 26.32-12.47Q25.61-12.31 24.88-12.31L24.88-12.31L24.22-12.31L24.22-14.19L18.28-14.19L18.28-1.09L25.84-1.09Z" transform="translate(0 136.983) " fill="rgb(201, 160, 99)" stroke="rgb(201, 160, 99)" stroke-width="0.055" data-glyph-w="33" data-glyph-h="47.421" data-glyph-ascender="37.983000000000004" data-glyph-descender="-9.438"></path><path d="M9.04-5.74L10.30-5.84L10.30-21.78L14.16-21.38Q14.16-21.12 13.93-20.92Q13.70-20.72 13.17-20.66L13.17-20.66L13.17-2.57Q13.17-2.44 12.80-2.21Q12.44-1.98 11.91-1.80Q11.38-1.62 10.86-1.62L10.86-1.62L10.30-1.62L10.30-4.69Q7.26-3.63 3.14-2.34L3.14-2.34Q2.84-1.95 2.48-1.82L2.48-1.82L1.02-4.92Q1.55-5.25 1.72-5.53Q1.88-5.81 1.88-6.30L1.88-6.30L1.88-21.71L5.64-21.32Q5.61-21.02 5.41-20.84Q5.21-20.66 4.79-20.56L4.79-20.56L4.79-5.45L6.14-5.51L6.14-27.16L10.13-26.76Q10.10-26.10 9.04-25.91L9.04-25.91L9.04-5.74ZM24.19-9.97L24.19-1.09L27.06-1.09L27.06-9.97L24.19-9.97ZM20.92-9.97L17.89-9.97L17.89-1.09L20.92-1.09L20.92-9.97ZM20.92-10.92L20.92-19.04L17.89-19.04L17.89-10.92L20.92-10.92ZM27.06-10.92L27.06-19.04L24.19-19.04L24.19-10.92L27.06-10.92ZM26.73-20.00L28.38-21.85L31.78-19.17Q31.45-18.74 30.39-18.48L30.39-18.48L30.39 1.62Q30.36 1.75 29.91 2.00Q29.47 2.24 28.83 2.44Q28.18 2.64 27.59 2.64L27.59 2.64L27.06 2.64L27.06-0.17L17.89-0.17L17.89 1.62Q17.89 1.88 17.04 2.34Q16.20 2.81 15.08 2.81L15.08 2.81L14.55 2.81L14.55-21.48L18.05-20.00L20.92-20.00L20.92-27.59L25.25-27.16Q25.21-26.80 24.98-26.58Q24.75-26.37 24.19-26.30L24.19-26.30L24.19-20.00L26.73-20.00Z" transform="translate(33 136.983) " fill="rgb(201, 160, 99)" stroke="rgb(201, 160, 99)" stroke-width="0.055" data-glyph-w="33" data-glyph-h="47.421" data-glyph-ascender="37.983000000000004" data-glyph-descender="-9.438"></path></g></svg></g>
        </g><g id="shape_mIoucqVgaq"   ref="shape_mIoucqVgaq" key="shape_mIoucqVgaq" transform="translate(322.06609344482,262.6496187973) rotate(0,124.646,75.32) scale(1,1)" style="cursor:move;display:inline;opacity:1;" filter="">
            <g style="display:inline"><svg xmlns="http://www.w3.org/2000/svg" version="1.1" xmlns:xlink="http://www.w3.org/1999/xlink" width="168" height="151.64" viewBox="0 0 168 151.64" preserveAspectRatio="none" data-parent="shape_mIoucqVgaq"><rect fill="rgba(0,0,0,0)" width="84" height="21" x="21" y="65.32"></rect><g data-width="83.445" transform="translate(21, 0)"><path d="M4.60 1.83Q3.19 1.83 2.26 1.11Q1.32 0.40 0.89-0.77Q0.46-1.93 0.46-3.30L0.46-3.30Q0.46-5.99 1.79-8.75Q3.11-11.51 5.12-13.30Q7.14-15.10 9.09-15.10L9.09-15.10Q10.00-15.10 10.51-14.66Q11.03-14.22 11.03-13.29L11.03-13.29Q11.03-12.47 10.65-11.40Q10.27-10.33 9.70-9.58Q9.13-8.82 8.59-8.82L8.59-8.82Q8.17-8.82 7.94-9.30L7.94-9.30Q8.71-10.19 9.45-11.45Q10.19-12.71 10.19-13.52L10.19-13.52Q10.19-13.97 9.93-14.22Q9.68-14.47 9.16-14.47L9.16-14.47Q7.71-14.47 6.05-12.59Q4.39-10.71 3.27-7.98Q2.14-5.25 2.14-2.94L2.14-2.94Q2.14-1.22 2.88-0.05Q3.61 1.11 5.10 1.11L5.10 1.11Q6.17 1.11 7.29 0.49Q8.40-0.13 9.32-1.16Q10.25-2.18 10.82-3.40L10.82-3.40L11.11-3.19Q9.98-0.97 8.28 0.43Q6.59 1.83 4.60 1.83L4.60 1.83Z" transform="translate(0 82.32) " fill="rgb(201, 160, 99)" stroke="rgb(201, 160, 99)" stroke-width="0.035" data-glyph-w="16.214" data-glyph-h="25.200000000000003" data-glyph-ascender="19.32" data-glyph-descender="-5.880000000000001"></path><path d="M0.99 0.80Q0.61 0.80 0.37 0.15Q0.13-0.50 0.13-1.39L0.13-1.39Q0.13-3.32 1.31-6.59Q2.50-9.87 4.01-12.43Q5.52-14.99 6.41-14.99L6.41-14.99Q6.74-14.99 6.92-14.58Q7.10-14.18 7.10-13.67L7.10-13.67Q7.10-12.68 6.39-11.05Q5.69-9.41 4.57-7.90Q3.44-6.38 2.27-5.67L2.27-5.67Q1.89-4.79 1.69-3.62Q1.49-2.46 1.49-1.53L1.49-1.53Q1.49-1.20 1.53-0.82L1.53-0.82Q2.37-3.26 3.43-4.76Q4.49-6.26 5.80-6.26L5.80-6.26Q6.59-6.26 6.99-5.70Q7.39-5.15 7.39-4.37L7.39-4.37Q7.39-3.91 7.28-3.49Q7.16-3.07 6.91-2.39L6.91-2.39Q6.70-1.83 6.59-1.49Q6.49-1.16 6.49-0.84L6.49-0.84Q6.49-0.44 6.66-0.24Q6.83-0.04 7.12-0.04L7.12-0.04Q7.83-0.04 8.80-1.04Q9.77-2.04 10.40-3.40L10.40-3.40L10.67-3.15Q9.98-1.55 8.89-0.53Q7.81 0.50 6.64 0.50L6.64 0.50Q5.94 0.50 5.57 0.14Q5.19-0.23 5.19-0.82L5.19-0.82Q5.19-1.28 5.50-2.31L5.50-2.31Q5.84-3.44 5.84-3.99L5.84-3.99Q5.84-4.52 5.62-4.76Q5.40-5.00 5.04-5.00L5.04-5.00Q4.26-5.00 3.69-4.08Q3.11-3.17 2.44-1.51L2.44-1.51Q1.93-0.29 1.64 0.25Q1.34 0.80 0.99 0.80L0.99 0.80ZM2.54-6.49Q3.44-7.20 4.34-8.56Q5.23-9.91 5.81-11.25Q6.38-12.58 6.38-13.13L6.38-13.13Q6.38-13.29 6.30-13.29L6.30-13.29Q6.07-13.29 5.34-12.25Q4.62-11.21 3.82-9.64Q3.02-8.06 2.54-6.49L2.54-6.49Z" transform="translate(16.214 82.32) " fill="rgb(201, 160, 99)" stroke="rgb(201, 160, 99)" stroke-width="0.035" data-glyph-w="14.996" data-glyph-h="25.200000000000003" data-glyph-ascender="19.32" data-glyph-descender="-5.880000000000001"></path><path d="M1.58 0.63Q0.88 0.63 0.44 0.01Q0-0.61 0-1.49L0-1.49Q0-2.27 0.33-3.41Q0.65-4.56 1.10-5.41Q1.55-6.26 1.85-6.26L1.85-6.26Q1.97-6.26 2.22-6.13Q2.46-6.01 2.63-5.84L2.63-5.84Q2.18-5.15 1.70-3.85Q1.22-2.56 1.22-1.62L1.22-1.62Q1.22-1.13 1.38-0.67Q1.53-0.21 1.97-0.21L1.97-0.21Q2.71-0.21 3.58-1.56Q4.45-2.92 5.46-5.00L5.46-5.00L5.80-5.69Q6.80-5.50 6.80-5.15L6.80-5.15Q6.80-5.10 6.71-4.86Q6.62-4.62 6.53-4.43L6.53-4.43Q6.05-3.36 5.72-2.43Q5.40-1.49 5.40-0.84L5.40-0.84Q5.40 0 6.09 0L6.09 0Q6.55 0 7.18-0.41Q7.81-0.82 8.46-1.60Q9.11-2.37 9.60-3.40L9.60-3.40L9.87-3.21Q9.43-2.10 8.73-1.23Q8.02-0.36 7.20 0.14Q6.38 0.63 5.65 0.63L5.65 0.63Q4.18 0.63 4.18-0.92L4.18-0.92Q4.18-1.34 4.33-1.97L4.33-1.97Q3.65-0.78 2.98-0.07Q2.31 0.63 1.58 0.63L1.58 0.63Z" transform="translate(31.21 82.32) " fill="rgb(201, 160, 99)" stroke="rgb(201, 160, 99)" stroke-width="0.035" data-glyph-w="14.198" data-glyph-h="25.200000000000003" data-glyph-ascender="19.32" data-glyph-descender="-5.880000000000001"></path><path d="M0.92 1.24Q0.71 1.24 0.71 0.92L0.71 0.92Q0.71 0.59 1.62-0.62Q2.52-1.83 3.82-3.28L3.82-3.28Q3.68-4.54 3.51-5.12Q3.34-5.71 2.90-5.71L2.90-5.71Q2.31-5.71 1.89-5.18Q1.47-4.64 0.80-3.44L0.80-3.44L0.40-2.71L0.21-3.05L0.65-3.97Q1.03-4.83 1.32-5.33Q1.62-5.84 2.09-6.18Q2.56-6.53 3.23-6.53L3.23-6.53Q3.99-6.53 4.40-6.01Q4.81-5.48 4.98-4.54L4.98-4.54Q6.03-5.63 6.79-6.30Q7.56-6.97 7.83-6.97L7.83-6.97Q7.96-6.97 8.16-6.91Q8.36-6.85 8.36-6.74L8.36-6.74Q8.02-6.74 7.14-5.90Q6.26-5.06 5.10-3.72L5.10-3.72L5.17-2.88Q5.27-1.51 5.46-0.86Q5.65-0.21 6.24-0.21L6.24-0.21Q6.95-0.21 7.82-1.24Q8.69-2.27 9.20-3.38L9.20-3.38L9.41-3.17Q9.09-2.25 8.49-1.39Q7.90-0.53 7.16 0.01Q6.43 0.55 5.71 0.55L5.71 0.55Q4.87 0.55 4.48-0.22Q4.10-0.99 3.93-2.33L3.93-2.33Q2.56-0.69 1.18 1.09L1.18 1.09Q1.05 1.24 0.92 1.24L0.92 1.24Z" transform="translate(45.408 82.32) " fill="rgb(201, 160, 99)" stroke="rgb(201, 160, 99)" stroke-width="0.035" data-glyph-w="13.778" data-glyph-h="25.200000000000003" data-glyph-ascender="19.32" data-glyph-descender="-5.880000000000001"></path><path d="M4.03-9.07Q3.65-9.07 3.41-9.25Q3.17-9.43 3.17-9.77L3.17-9.77Q3.17-10.19 3.68-10.52Q4.18-10.86 4.70-10.86L4.70-10.86Q5.40-10.86 5.40-10.21L5.40-10.21Q5.40-9.81 4.97-9.44Q4.54-9.07 4.03-9.07L4.03-9.07ZM1.51 0.55Q0.74 0.55 0.32 0.05Q-0.11-0.44-0.11-1.22L-0.11-1.22Q-0.11-2.04 0.37-3.49Q0.84-4.94 1.54-6.03Q2.25-7.12 2.92-7.12L2.92-7.12Q3.11-7.12 3.24-6.99Q3.38-6.87 3.38-6.66L3.38-6.66Q3.38-6.36 2.71-5.25L2.71-5.25Q2.02-4.10 1.61-3.18Q1.20-2.27 1.20-1.45L1.20-1.45Q1.20-0.71 1.44-0.45Q1.68-0.19 2.23-0.19L2.23-0.19Q3.86-0.19 5.46-3.40L5.46-3.40L5.65-3.19Q5.06-1.43 3.92-0.44Q2.77 0.55 1.51 0.55L1.51 0.55Z" transform="translate(59.186 82.32) " fill="rgb(201, 160, 99)" stroke="rgb(201, 160, 99)" stroke-width="0.035" data-glyph-w="10.061" data-glyph-h="25.200000000000003" data-glyph-ascender="19.32" data-glyph-descender="-5.880000000000001"></path><path d="M1.58 0.63Q0.88 0.63 0.44 0.01Q0-0.61 0-1.49L0-1.49Q0-2.27 0.33-3.41Q0.65-4.56 1.10-5.41Q1.55-6.26 1.85-6.26L1.85-6.26Q1.97-6.26 2.22-6.13Q2.46-6.01 2.63-5.84L2.63-5.84Q2.18-5.15 1.70-3.85Q1.22-2.56 1.22-1.62L1.22-1.62Q1.22-1.13 1.38-0.67Q1.53-0.21 1.97-0.21L1.97-0.21Q2.71-0.21 3.58-1.56Q4.45-2.92 5.46-5.00L5.46-5.00L5.80-5.69Q6.80-5.50 6.80-5.15L6.80-5.15Q6.80-5.10 6.71-4.86Q6.62-4.62 6.53-4.43L6.53-4.43Q6.05-3.36 5.72-2.43Q5.40-1.49 5.40-0.84L5.40-0.84Q5.40 0 6.09 0L6.09 0Q6.55 0 7.18-0.41Q7.81-0.82 8.46-1.60Q9.11-2.37 9.60-3.40L9.60-3.40L9.87-3.21Q9.43-2.10 8.73-1.23Q8.02-0.36 7.20 0.14Q6.38 0.63 5.65 0.63L5.65 0.63Q4.18 0.63 4.18-0.92L4.18-0.92Q4.18-1.34 4.33-1.97L4.33-1.97Q3.65-0.78 2.98-0.07Q2.31 0.63 1.58 0.63L1.58 0.63Z" transform="translate(69.247 82.32) " fill="rgb(201, 160, 99)" stroke="rgb(201, 160, 99)" stroke-width="0.035" data-glyph-w="14.198" data-glyph-h="25.200000000000003" data-glyph-ascender="19.32" data-glyph-descender="-5.880000000000001"></path></g></svg></g>
        </g>
  </svg>