<?xml version="1.0" standalone="no"?><!DOCTYPE svg PUBLIC "-//W3C//DTD SVG 1.1//EN" "http://www.w3.org/Graphics/SVG/1.1/DTD/svg11.dtd" [<!ENTITY nbsp " ">]><svg data-noselect="" 
  viewBox="191.12060712733603 25.866449692310454 400 536.2588630655796" 
  width="400" 
  height="536.2588630655796" 
  ref="svg_canvas" 
  preserveAspectRatio="none" 
  version="1.1" xmlns="http://www.w3.org/2000/svg" 
  style="background: rgb(255, 255, 255);">
    <defs></defs>
    <g id="shape_Fq1tQ3xNib"   ref="shape_Fq1tQ3xNib" key="shape_Fq1tQ3xNib" transform="translate(290.15221021368,105.86644969231045) rotate(0,99.661211964712,93.042903630119) scale(1,1)" style="cursor:move;display:inline;opacity:1;" filter="">
            <g style="display:inline"><rect fill="rgba(0,0,0,0)" width="219.32242392942" height="215.3019872558391" x="-10" y="-10"></rect><svg version="1.1" id="图层_1" xmlns="http://www.w3.org/2000/svg" xmlns:xlink="http://www.w3.org/1999/xlink" x="0px" y="0px" viewBox="0 0 146.3520050048828 143.40000915527344" style="enable-background:new 0 0 144.1 143.6;" xml:space="preserve" width="199.32242392942" height="195.3019872558391" class="style-removed" preserveAspectRatio="none" data-parent="shape_Fq1tQ3xNib">

<g>
	<g>
		<path d="M100.7,84.1c-8.5,0-15.3,6.9-15.3,15.3c0,2.3,0.5,4.4,1.4,6.4c-0.1,2.6-0.8,4.7-2.3,6.1
			c-1.4,1.4-3.5,2.2-6,2.3c-1.9-0.9-4-1.3-6.2-1.3c-0.6,0-1.1,0-1.7,0.1c0,0,0,0,0,0l0,0c-1.8,0.2-3.6,0.7-5.1,1.5
			c-2.4-0.1-4.3-0.9-5.7-2.2c-1.4-1.4-2.1-3.4-2.3-5.9c1.1-2.1,1.7-4.4,1.7-6.9c0-5-2.4-9.5-6.2-12.3c-4.2-4.6-6.7-9.9-6.7-15.6
			c0-6.5,3.2-12.5,8.4-17.4h0c2.8-2.8,4.5-6.6,4.5-10.8c0-1.5-0.2-2.9-0.6-4.2c-0.7-3.5-0.3-6.2,1.3-7.8c1.7-1.7,4.7-2,8.4-1.2
			c0.2,0,0.4,0.1,0.6,0.1c0,0,0.1,0,0.2,0c0.4,0.1,0.9,0.2,1.3,0.2l0,0c0.6,0.1,1.3,0.1,1.9,0.1s1.3-0.1,1.9-0.1l0,0
			c0.1,0,0.2,0,0.3-0.1c0.4-0.1,0.8-0.1,1.1-0.2c0,0,0.1,0,0.1,0c0,0,0.1,0,0.1,0c0.1,0,0.1,0,0.2-0.1c3.8-0.9,6.8-0.6,8.6,1.1
			c1.6,1.5,2,4.1,1.4,7.4c0,0.1-0.1,0.3-0.1,0.4c-0.1,0.5-0.3,1-0.4,1.6c0,0.1-0.1,0.3-0.1,0.4c-0.1,0.7-0.2,1.4-0.2,2.1l0,0
			c0,0.1,0,0.1,0,0.2c0,8.5,6.9,15.3,15.3,15.3c8.5,0,15.3-6.9,15.3-15.3c0-8.5-6.9-15.3-15.3-15.3c-0.2,0-0.3,0-0.5,0l0,0
			c-0.7,0-1.4,0.1-2.1,0.2c0,0-0.1,0-0.1,0c-0.7,0.1-1.3,0.3-2,0.5c0,0-0.1,0-0.1,0c-3.3,0.6-5.9,0.3-7.5-1.2
			c-1.7-1.7-2-4.6-1.3-8.3c0.3-1.2,0.5-2.6,0.5-3.9C87.6,6.9,80.7,0,72.2,0c-8.5,0-15.3,6.9-15.3,15.3c0,0.5,0,1.1,0.1,1.6l0,0
			c0,0.3,0.1,0.7,0.1,1c0,0,0,0,0,0c0,0,0,0,0,0.1c0,0.1,0.1,0.2,0.1,0.4c0,0.2,0.1,0.4,0.2,0.7c0.1,0.3,0.1,0.5,0.2,0.7v0
			c0.7,3.5,0.3,6.2-1.3,7.8c-1.6,1.6-4.3,1.9-7.7,1.2c-0.6-0.2-1.3-0.4-1.9-0.5c0,0,0,0-0.1,0c-0.4-0.1-0.7-0.1-1.1-0.2
			c-0.1,0-0.2,0-0.3,0c-0.3,0-0.5,0-0.8-0.1l0,0c-0.2,0-0.3,0-0.5,0c-8.5,0-15.3,6.9-15.3,15.3c0,4.2,1.7,8.1,4.5,10.8h0
			c5.2,4.9,8.4,10.9,8.4,17.4c0,5.7-2.5,11.1-6.7,15.6c-3.7,2.8-6.2,7.2-6.2,12.3c0,8.5,6.9,15.3,15.3,15.3c2,0,3.9-0.4,5.7-1.1
			c2.7,0,5,0.7,6.5,2.3c1.4,1.4,2.2,3.5,2.3,5.9c-0.9,1.9-1.4,4.1-1.4,6.3c0,8.5,6.9,15.3,15.3,15.3c8.5,0,15.3-6.9,15.3-15.3
			c0-2.5-0.6-4.8-1.7-6.9c0.2-2.3,0.9-4.3,2.3-5.6c1.5-1.5,3.6-2.2,6.2-2.2c1.9,0.9,4,1.4,6.3,1.4c8.5,0,15.3-6.9,15.3-15.3
			C116,91,109.1,84.1,100.7,84.1z" fill="#E09836"></path>
		<circle cx="15.3" cy="71.6" r="15.3" fill="#E09836"></circle>
		
			<ellipse transform="matrix(0.9871 -0.1602 0.1602 0.9871 -9.8105 21.5587)" cx="128.8" cy="71.6" rx="15.3" ry="15.3" fill="#E09836"></ellipse>
		
			<ellipse transform="matrix(0.9871 -0.1602 0.1602 0.9871 -10.5412 12.4936)" cx="72.2" cy="71.6" rx="15.3" ry="15.3" fill="#E09836"></ellipse>
	</g>
</g>
</svg></g>
        </g><g id="shape_zPvlyINo7v"   ref="shape_zPvlyINo7v" key="shape_zPvlyINo7v" transform="translate(167.53060712733603,-20.187065759469988) rotate(0,460.10638902129006,401.27) scale(1,1)" style="cursor:move;display:inline;opacity:1;" filter="">
            <g style="display:inline"><svg xmlns="http://www.w3.org/2000/svg" version="1.1" xmlns:xlink="http://www.w3.org/1999/xlink" width="670.36" height="802.54" viewBox="0 0 670.36 802.54" preserveAspectRatio="none" data-parent="shape_zPvlyINo7v"><rect fill="rgba(0,0,0,0)" width="224" height="133" x="111.59" y="334.77"></rect><g data-width="223.18" transform="translate(112, 0)"><path d="M103.67-34.93L103.67-10.49Q103.67-6.03 100.49-2.96Q97.31 0.11 92.95 0.11L92.95 0.11L7.92 0.11L7.92-34.93L23.66-34.93L23.66-10.94L47.76-10.94L47.76-42.96L9.93-42.96L9.93-75.99L25.89-75.99L25.89-54.12L47.76-54.12L47.76-80.57L63.61-80.57L63.61-54.12L82.35-54.12Q83.47-54.12 84.25-54.90Q85.03-55.68 85.03-56.69L85.03-56.69L85.03-75.99L100.88-75.99L100.88-53.56Q100.88-49.10 97.75-46.03Q94.63-42.96 90.28-42.96L90.28-42.96L63.61-42.96L63.61-10.94L85.14-10.94Q86.26-10.94 87.04-11.72Q87.82-12.50 87.82-13.61L87.82-13.61L87.82-34.93L103.67-34.93Z" transform="translate(0 440.77) " fill="rgb(53, 53, 53)" stroke="rgb(53, 53, 53)" stroke-width="0.186" data-glyph-w="111.59" data-glyph-h="111.59" data-glyph-ascender="95.85581" data-glyph-descender="-15.734190000000002"></path><path d="M30.24-16.07L38.72-17.07L38.72-74.88L44.86-74.88L44.86-4.80L38.72-4.80L38.72-10.27L8.70-6.70L8.70-74.54L14.95-74.54L14.95-14.28L23.21-15.29L23.21-92.17L30.24-92.17L30.24-16.07ZM81.46-30.91L81.46-5.13L95.19-5.13L95.19-30.91L81.46-30.91ZM73.76-30.91L59.92-30.91L59.92-5.13L73.76-5.13L73.76-30.91ZM73.76-38.50L73.76-62.16L59.92-62.16L59.92-38.50L73.76-38.50ZM81.46-38.50L95.19-38.50L95.19-62.16L81.46-62.16L81.46-38.50ZM81.68-93.29L81.68-69.74L103.11-69.74L103.11 7.81L95.19 7.81L95.19 2.45L59.92 2.45L59.92 8.59L52.22 8.59L52.22-69.74L73.54-69.74L73.54-93.29L81.68-93.29Z" transform="translate(111.59 440.77) " fill="rgb(53, 53, 53)" stroke="rgb(53, 53, 53)" stroke-width="0.186" data-glyph-w="111.59" data-glyph-h="111.59" data-glyph-ascender="98.1992" data-glyph-descender="-13.3908"></path></g></svg></g>
        </g><g id="shape_LHjmyZaugG"   ref="shape_LHjmyZaugG" key="shape_LHjmyZaugG" transform="translate(286.18623722943903,327.66531275789) rotate(0,366.49642538945,132.46) scale(1,1)" style="cursor:move;display:inline;opacity:1;" filter="">
            <g style="display:inline"><svg xmlns="http://www.w3.org/2000/svg" version="1.1" xmlns:xlink="http://www.w3.org/1999/xlink" width="278.28" height="264.92" viewBox="0 0 278.28 264.92" preserveAspectRatio="none" data-parent="shape_LHjmyZaugG"><rect fill="rgba(0,0,0,0)" width="131" height="44" x="36.82" y="110.46000000000001"></rect><g data-width="130.77572265625" transform="translate(36.932138671875, 0)"><path d="M14.38-30.38Q8.86-30.38 4.98-26.48L4.98-26.48Q1.08-22.58 1.08-17.08L1.08-17.08Q1.08-11.56 4.98-7.68L4.98-7.68Q8.86-3.78 14.38-3.78L14.38-3.78Q20.57-3.78 24.56-8.52L24.56-8.52L20.91-11.60Q18.36-8.54 14.38-8.54L14.38-8.54Q10.84-8.54 8.34-11.04L8.34-11.04Q5.84-13.54 5.84-17.08L5.84-17.08Q5.84-20.60 8.34-23.10L8.34-23.10Q10.84-25.60 14.38-25.60L14.38-25.60Q18.36-25.60 20.91-22.56L20.91-22.56L24.56-25.62Q20.57-30.38 14.38-30.38L14.38-30.38Z" transform="translate(0 143.46) " fill="#26333b" stroke="#26333b" stroke-width="0.061" data-glyph-w="25.63736328125" data-glyph-h="38.36615234375" data-glyph-ascender="30.8511328125" data-glyph-descender="-7.51501953125"></path><path d="M6.56-14.69L16.29-14.69L16.29-4.24L21.05-4.24L21.05-29.92L16.29-29.92L16.29-19.45L6.56-19.45L6.56-29.92L1.80-29.92L1.80-4.24L6.56-4.24L6.56-14.69Z" transform="translate(25.63736328125 143.46) " fill="#26333b" stroke="#26333b" stroke-width="0.061" data-glyph-w="22.850693359375" data-glyph-h="38.36615234375" data-glyph-ascender="30.8511328125" data-glyph-descender="-7.51501953125"></path><path d="M17.21-29.92L21.97-29.92L21.97-12.50Q21.97-8.88 19.02-6.33L19.02-6.33Q16.07-3.78 11.88-3.78L11.88-3.78Q7.71-3.78 4.75-6.33L4.75-6.33Q1.80-8.88 1.80-12.50L1.80-12.50L1.80-29.92L6.56-29.92L6.56-12.50Q6.56-10.86 8.13-9.71L8.13-9.71Q9.69-8.54 11.88-8.54L11.88-8.54Q14.10-8.54 15.64-9.71L15.64-9.71Q17.21-10.86 17.21-12.50L17.21-12.50L17.21-29.92Z" transform="translate(48.488056640625004 143.46) " fill="#26333b" stroke="#26333b" stroke-width="0.061" data-glyph-w="23.76759765625" data-glyph-h="38.36615234375" data-glyph-ascender="30.8511328125" data-glyph-descender="-7.51501953125"></path><path d="M16.16-17.58L25.30-29.92L19.36-29.92L13.20-21.59L7.05-29.92L1.11-29.92L10.23-17.58L0.36-4.24L6.29-4.24L13.20-13.57L20.10-4.24L26.03-4.24L16.16-17.58Z" transform="translate(72.25565429687501 143.46) " fill="#26333b" stroke="#26333b" stroke-width="0.061" data-glyph-w="26.3924609375" data-glyph-h="38.36615234375" data-glyph-ascender="30.8511328125" data-glyph-descender="-7.51501953125"></path><path d="M6.56-4.24L6.56-29.92L1.80-29.92L1.80-4.24L6.56-4.24Z" transform="translate(98.64811523437501 143.46) " fill="#26333b" stroke="#26333b" stroke-width="0.061" data-glyph-w="8.360009765625" data-glyph-h="38.36615234375" data-glyph-ascender="30.8511328125" data-glyph-descender="-7.51501953125"></path><path d="M17.21-29.92L21.97-29.92L21.97-12.50Q21.97-8.88 19.02-6.33L19.02-6.33Q16.07-3.78 11.88-3.78L11.88-3.78Q7.71-3.78 4.75-6.33L4.75-6.33Q1.80-8.88 1.80-12.50L1.80-12.50L1.80-29.92L6.56-29.92L6.56-12.50Q6.56-10.86 8.13-9.71L8.13-9.71Q9.69-8.54 11.88-8.54L11.88-8.54Q14.10-8.54 15.64-9.71L15.64-9.71Q17.21-10.86 17.21-12.50L17.21-12.50L17.21-29.92Z" transform="translate(107.008125 143.46) " fill="#26333b" stroke="#26333b" stroke-width="0.061" data-glyph-w="23.76759765625" data-glyph-h="38.36615234375" data-glyph-ascender="30.8511328125" data-glyph-descender="-7.51501953125"></path></g></svg></g>
        </g>
  </svg>