<?xml version="1.0" standalone="no"?><!DOCTYPE svg PUBLIC "-//W3C//DTD SVG 1.1//EN" "http://www.w3.org/Graphics/SVG/1.1/DTD/svg11.dtd" [<!ENTITY nbsp " ">]><svg data-noselect="" 
  viewBox="113 106.83276336253999 467.4155151384 350.5616363538" 
  width="467.4155151384" 
  height="350.5616363538" 
  ref="svg_canvas" 
  preserveAspectRatio="none" 
  version="1.1" xmlns="http://www.w3.org/2000/svg" 
  style="background: #D9D9D9;">
    <defs></defs>
    <g id="shape_BdrksdlAFL"   ref="shape_BdrksdlAFL" key="shape_BdrksdlAFL" transform="translate(193,226.33975916019) rotate(0,60,60) scale(1,1)" style="cursor:move;display:inline;opacity:1;" filter="">
            <g style="display:inline"><rect fill="rgba(0,0,0,0)" width="140" height="140" x="-10" y="-10"></rect><svg version="1.1" id="图层_1" xmlns="http://www.w3.org/2000/svg" xmlns:xlink="http://www.w3.org/1999/xlink" x="0px" y="0px" viewBox="0 0 313.7 313.7" style="enable-background:new 0 0 313.7 313.7;" xml:space="preserve" width="120" height="120" class="style-removed" preserveAspectRatio="none" data-parent="shape_BdrksdlAFL">

<g>
	<path d="M63.1,0L63.1,0L0,0v313.7h313.7v-63.1V0v0H63.1z M78.9,237.4l-2.6-2.7V19.9h217.5v217.5H78.9z M63.1,19.9
		v221.5l-43.3,41.4V19.9H63.1z M293.9,293.9H27.4l45.2-43.3h221.2V293.9z" fill="#1F1B1C" stroke-width="0"></path>
</g>
</svg></g>
        </g><g id="shape_85R8prAcgi"   ref="shape_85R8prAcgi" key="shape_85R8prAcgi" transform="translate(241.3555151384,-42.12722774368001) rotate(0,273.38704174644,309.68) scale(1,1)" style="cursor:move;display:inline;opacity:1;" filter="">
            <g style="display:inline"><svg xmlns="http://www.w3.org/2000/svg" version="1.1" xmlns:xlink="http://www.w3.org/1999/xlink" width="517.24" height="619.36" viewBox="0 0 517.24 619.36" preserveAspectRatio="none" data-parent="shape_85R8prAcgi"><rect fill="rgba(0,0,0,0)" width="173" height="103" x="86.06" y="258.18"></rect><g data-width="172.12" transform="translate(86.06, 0)"><path d="M3.87-23.28L3.87 10.09Q3.87 12.02 5.80 12.02L5.80 12.02L79.67 12.02Q81.61 12.02 81.61 10.09L81.61 10.09L81.61-23.28Q81.61-25.21 79.67-25.21L79.67-25.21L70.60-25.21Q68.66-25.21 68.66-23.28L68.66-23.28L68.66 5.21Q68.66 7.14 66.73 7.14L66.73 7.14L49.25 7.14L49.25-33.37L78.08-33.37Q80.01-33.37 80.01-35.30L80.01-35.30L80.01-63.79Q80.01-65.72 78.08-65.72L78.08-65.72L69.00-65.72Q67.07-65.72 67.07-63.79L67.07-63.79L67.07-40.17Q67.07-38.16 65.13-38.16L65.13-38.16L49.25-38.16L49.25-68.66Q49.25-70.60 47.32-70.60L47.32-70.60L38.24-70.60Q36.31-70.60 36.31-68.66L36.31-68.66L36.31-38.16L20.42-38.16Q18.49-38.16 18.49-40.17L18.49-40.17L18.49-63.79Q18.49-65.72 16.56-65.72L16.56-65.72L7.48-65.72Q5.55-65.72 5.55-63.79L5.55-63.79L5.55-35.30Q5.55-33.37 7.48-33.37L7.48-33.37L36.31-33.37L36.31 7.14L18.83 7.14Q16.81 7.14 16.81 5.21L16.81 5.21L16.81-23.28Q16.81-25.21 14.88-25.21L14.88-25.21L5.80-25.21Q3.87-25.21 3.87-23.28L3.87-23.28Z" transform="translate(0 341.18) skewX(0)" fill="#1f1b1c" stroke="#1f1b1c" stroke-width="0.143" data-glyph-w="86.06" data-glyph-h="84.04296875" data-glyph-ascender="73.9578125" data-glyph-descender="-10.08515625"></path><path d="M39.50 10.09L39.50-55.72Q39.50-57.65 41.43-57.65L41.43-57.65L54.12-57.65L54.12-68.66Q54.12-70.60 56.06-70.60L56.06-70.60L65.13-70.60Q67.07-70.60 67.07-68.66L67.07-68.66L67.07-57.65L79.67-57.65Q81.61-57.65 81.61-55.72L81.61-55.72L81.61 10.09Q81.61 12.02 79.67 12.02L79.67 12.02L41.43 12.02Q39.50 12.02 39.50 10.09L39.50 10.09ZM3.87-62.19L3.87 10.09Q3.87 12.02 5.80 12.02L5.80 12.02L34.37 12.02Q36.31 12.02 36.31 10.09L36.31 10.09L36.31-62.19Q36.31-64.12 34.37-64.12L34.37-64.12L30.51-64.12Q28.57-64.12 28.57-62.19L28.57-62.19L28.57 5.21Q28.57 7.14 26.64 7.14L26.64 7.14L25.47 7.14L25.47-68.66Q25.47-70.60 23.53-70.60L23.53-70.60L16.64-70.60Q14.71-70.60 14.71-68.66L14.71-68.66L14.71 7.14L13.53 7.14Q11.60 7.14 11.60 5.21L11.60 5.21L11.60-62.19Q11.60-64.12 9.66-64.12L9.66-64.12L5.80-64.12Q3.87-64.12 3.87-62.19L3.87-62.19ZM52.78 7.14L54.12 7.14L54.12-20.34L50.85-20.34L50.85 5.21Q50.85 7.14 52.78 7.14L52.78 7.14ZM50.85-25.21L54.12-25.21L54.12-52.78L52.78-52.78Q50.85-52.78 50.85-50.85L50.85-50.85L50.85-25.21ZM68.33-52.78L67.07-52.78L67.07-25.21L70.26-25.21L70.26-50.85Q70.26-52.78 68.33-52.78L68.33-52.78ZM70.26-20.34L67.07-20.34L67.07 7.14L68.33 7.14Q70.26 7.14 70.26 5.21L70.26 5.21L70.26-20.34Z" transform="translate(86.06 341.18) skewX(0)" fill="#1f1b1c" stroke="#1f1b1c" stroke-width="0.143" data-glyph-w="86.06" data-glyph-h="84.04296875" data-glyph-ascender="73.9578125" data-glyph-descender="-10.08515625"></path></g></svg></g>
        </g><g id="shape_pVFvoWBhsl"   ref="shape_pVFvoWBhsl" key="shape_pVFvoWBhsl" transform="translate(302.5955151384,248.87279082255998) rotate(0,187.34570689906,87.30160000000001) scale(1,1)" style="cursor:move;display:inline;opacity:1;" filter="">
            <g style="display:inline"><svg xmlns="http://www.w3.org/2000/svg" version="1.1" xmlns:xlink="http://www.w3.org/1999/xlink" width="247.28" height="174.60320000000002" viewBox="0 0 247.28 174.60320000000002" preserveAspectRatio="none" data-parent="shape_pVFvoWBhsl"><rect fill="rgba(0,0,0,0)" width="148" height="24" x="24.82" y="75.30160000000001"></rect><g data-width="147.85721449491675" transform="translate(24.82, 0)"><path d="M9.36 0.32L9.36 0.32Q7.10 0.32 5.31-0.79Q3.52-1.91 2.48-4.02Q1.44-6.13 1.44-9.08L1.44-9.08Q1.44-12.04 2.49-14.15Q3.55-16.26 5.37-17.40Q7.20-18.54 9.51-18.54L9.51-18.54Q11.17-18.54 12.43-17.87Q13.70-17.20 14.49-16.28L14.49-16.28L13.25-14.79Q12.56-15.56 11.63-16.05Q10.70-16.53 9.53-16.53L9.53-16.53Q6.95-16.53 5.37-14.54Q3.80-12.56 3.80-9.16L3.80-9.16Q3.80-5.71 5.32-3.70Q6.85-1.69 9.46-1.69L9.46-1.69Q10.77-1.69 11.79-2.22Q12.81-2.76 13.68-3.72L13.68-3.72L14.94-2.28Q13.87-1.02 12.50-0.35Q11.12 0.32 9.36 0.32Z" transform="translate(0 96.30160000000001) skewX(0)" fill="#1f1b1c" stroke="#1f1b1c" stroke-width="0.041" data-glyph-w="25.279915749152792" data-glyph-h="24.82" data-glyph-ascender="21.841600000000003" data-glyph-descender="-2.9784"></path><path d="M4.79 0L2.48 0L2.48-18.19L4.79-18.19L4.79-10.57L13.28-10.57L13.28-18.19L15.56-18.19L15.56 0L13.28 0L13.28-8.59L4.79-8.59L4.79 0Z" transform="translate(25.279915749152792 96.30160000000001) skewX(0)" fill="#1f1b1c" stroke="#1f1b1c" stroke-width="0.041" data-glyph-w="27.513715749152787" data-glyph-h="24.82" data-glyph-ascender="21.841600000000003" data-glyph-descender="-2.9784"></path><path d="M8.94 0.32L8.94 0.32Q7.10 0.32 5.61-0.42Q4.12-1.17 3.26-2.88Q2.41-4.59 2.41-7.52L2.41-7.52L2.41-18.19L4.72-18.19L4.72-7.45Q4.72-5.26 5.27-4.00Q5.83-2.73 6.80-2.21Q7.77-1.69 8.94-1.69L8.94-1.69Q10.15-1.69 11.13-2.21Q12.11-2.73 12.70-4.00Q13.28-5.26 13.28-7.45L13.28-7.45L13.28-18.19L15.49-18.19L15.49-7.52Q15.49-4.59 14.63-2.88Q13.78-1.17 12.29-0.42Q10.80 0.32 8.94 0.32Z" transform="translate(52.79363149830558 96.30160000000001) skewX(0)" fill="#1f1b1c" stroke="#1f1b1c" stroke-width="0.041" data-glyph-w="27.339975749152792" data-glyph-h="24.82" data-glyph-ascender="21.841600000000003" data-glyph-descender="-2.9784"></path><path d="M2.83 0L0.42 0L5.73-9.41L0.77-18.19L3.30-18.19L5.78-13.55Q6.08-13.01 6.35-12.48L6.35-12.48Q6.73-11.76 7.22-10.90L7.22-10.90L7.32-10.90Q7.50-11.27 7.64-11.59L7.64-11.59Q8.14-12.63 8.61-13.55L8.61-13.55L11.04-18.19L13.45-18.19L8.49-9.28L13.80 0L11.27 0L8.59-4.91Q8.54-4.99 8.49-5.09L8.49-5.09Q7.84-6.33 7.02-7.84L7.02-7.84L6.92-7.84Q6.16-6.23 5.46-4.91L5.46-4.91L2.83 0Z" transform="translate(80.13360724745837 96.30160000000001) skewX(0)" fill="#1f1b1c" stroke="#1f1b1c" stroke-width="0.041" data-glyph-w="23.66661574915279" data-glyph-h="24.82" data-glyph-ascender="21.841600000000003" data-glyph-descender="-2.9784"></path><path d="M4.79 0L2.48 0L2.48-18.19L4.79-18.19L4.79 0Z" transform="translate(103.80022299661115 96.30160000000001) skewX(0)" fill="#1f1b1c" stroke="#1f1b1c" stroke-width="0.041" data-glyph-w="16.71701574915279" data-glyph-h="24.82" data-glyph-ascender="21.841600000000003" data-glyph-descender="-2.9784"></path><path d="M8.94 0.32L8.94 0.32Q7.10 0.32 5.61-0.42Q4.12-1.17 3.26-2.88Q2.41-4.59 2.41-7.52L2.41-7.52L2.41-18.19L4.72-18.19L4.72-7.45Q4.72-5.26 5.27-4.00Q5.83-2.73 6.80-2.21Q7.77-1.69 8.94-1.69L8.94-1.69Q10.15-1.69 11.13-2.21Q12.11-2.73 12.70-4.00Q13.28-5.26 13.28-7.45L13.28-7.45L13.28-18.19L15.49-18.19L15.49-7.52Q15.49-4.59 14.63-2.88Q13.78-1.17 12.29-0.42Q10.80 0.32 8.94 0.32Z" transform="translate(120.51723874576395 96.30160000000001) skewX(0)" fill="#1f1b1c" stroke="#1f1b1c" stroke-width="0.041" data-glyph-w="27.339975749152792" data-glyph-h="24.82" data-glyph-ascender="21.841600000000003" data-glyph-descender="-2.9784"></path></g></svg></g>
        </g><g id="shape_xKyctFAdVR"   ref="shape_xKyctFAdVR" key="shape_xKyctFAdVR" transform="translate(157.2024430395605,-21.76416917743998) rotate(0,130.79755696044,299.43856) scale(1,1)" style="cursor:move;display:inline;opacity:1;" filter="">
            <g style="display:inline"><svg xmlns="http://www.w3.org/2000/svg" version="1.1" xmlns:xlink="http://www.w3.org/1999/xlink" width="374.64" height="598.87712" viewBox="0 0 374.64 598.87712" preserveAspectRatio="none" data-parent="shape_xKyctFAdVR"><rect fill="rgba(0,0,0,0)" width="50" height="97" x="81.16" y="250.93856"></rect><g data-width="49.5076" transform="translate(81.4062, 0)"><path d="M25.89 0.89Q18.42 0.89 13.03-2.19Q7.63-5.28 4.75-11.08Q1.87-16.88 1.87-24.92L1.87-24.92Q1.87-33.68 5.28-40.05Q8.68-46.42 15.06-49.83Q21.43-53.24 30.27-53.24L30.27-53.24Q33.36-53.24 36.93-52.79Q40.50-52.35 43.10-51.86Q45.69-51.37 46.42-51.21L46.42-51.21L46.99-49.91Q46.83-49.35 46.42-47.15Q46.02-44.96 45.53-41.35Q45.04-37.74 44.80-33.68L44.80-33.68L34.90-33.11Q34.90-33.44 34.98-34.66Q35.06-35.87 35.06-37.50L35.06-37.50Q35.06-40.90 33.28-42.45Q31.49-43.99 27.59-43.99L27.59-43.99Q22.08-43.99 19.52-40.13Q16.96-36.28 16.96-27.76L16.96-27.76Q16.96-18.18 19.80-13.23Q22.64-8.28 28.08-8.28L28.08-8.28Q31.90-8.28 33.92-10.71Q35.95-13.15 36.68-18.75L36.68-18.75L46.59-19.40Q46.34-17.94 45.81-12.90Q45.29-7.87 45.21-3.33L45.21-3.33L44.31-2.19Q44.31-2.11 41.47-1.30Q38.63-0.49 34.53 0.20Q30.43 0.89 25.89 0.89L25.89 0.89Z" transform="translate(0 325.93856) skewX(0)" fill="#1f1b1c" stroke="#1f1b1c" stroke-width="0.135" data-glyph-w="49.5076" data-glyph-h="110.45876" data-glyph-ascender="82.45855999999999" data-glyph-descender="-28.0002"></path></g></svg></g>
        </g>
  </svg>