<?xml version="1.0" standalone="no"?><!DOCTYPE svg PUBLIC "-//W3C//DTD SVG 1.1//EN" "http://www.w3.org/Graphics/SVG/1.1/DTD/svg11.dtd" [<!ENTITY nbsp " ">]><svg data-noselect="" 
  viewBox="152 94.82038488952 419.06438485548006 406.69281408904" 
  width="419.06438485548006" 
  height="406.69281408904" 
  ref="svg_canvas" 
  preserveAspectRatio="none" 
  version="1.1" xmlns="http://www.w3.org/2000/svg" 
  style="background: rgb(228, 213, 204);">
    <defs></defs>
    <g id="shape_YHm6ZCtuv8"   ref="shape_YHm6ZCtuv8" key="shape_YHm6ZCtuv8" transform="translate(232,174.82038488952) rotate(0,129.53219242774,123.34640704452) scale(1,1)" style="cursor:move;display:inline;opacity:1;" filter="">
            <g style="display:inline"><rect fill="rgba(0,0,0,0)" width="279.0643848554807" height="266.6928140890393" x="-10" y="-10"></rect><svg version="1.1" id="图层_1" xmlns="http://www.w3.org/2000/svg" xmlns:xlink="http://www.w3.org/1999/xlink" x="0px" y="0px" width="259.0643848554807" height="246.6928140890393" viewBox="0 0 140.3 133.6" style="enable-background:new 0 0 140.3 133.6;" xml:space="preserve" class="style-removed" preserveAspectRatio="none" data-parent="shape_YHm6ZCtuv8">

<g>
	<circle cx="30.6" cy="44.8" r="20.8" fill="#BE9483" stroke-width="0"></circle>
	<path d="M0,81.4c0,0,13.9,1.4,13,14.8C13,96.2,0.4,95.8,0,81.4z" fill="#C69785" stroke-width="0"></path>
	<g>
		<path d="M38.2,81.7c-0.4-0.6-1-1.3-1.8-2c2.2-3.7,6.9-7.6,14-9.5L50,68.9C42.6,70.9,37.7,75,35.2,79
			c-2-1.1-5.1-1.5-9.6,0.5c-1.3,0.6-2.4,1.2-3.4,2c-1.5,1.1-3.4,3.1-4.7,4.6c-0.8-7-0.6-13.2,0.4-18.5c1.1,0.3,2.1,0.4,3.2,0.3
			c11.2-0.7,19.3-10.6,21.2-17.1c1-3.3,0.5-5.8-1.2-7.1c-2.7-2.1-8-0.9-12.7,2.8c-5.1,4-9.4,10.5-11.5,19.4
			c-3.4-1.4-6.6-4.7-8.8-9.3c-3.1-6.5-4-16,0.3-22.8c2.4,1.8,5.7,3.5,9.5,4.8c9.2,3.2,21.4,3.8,28.2-4c1.6-2.2,1.9-4.9,0.7-7.5
			c-2.4-5.4-9.9-9.4-20.2-10.6c-0.1,0-0.1,0-0.2,0c-5.4,0-9.1,1.5-10.6,4.2c-0.8,1.6-0.8,3.5,0.1,5.3c-2.4,0.9-4.6,2.3-6.5,4.3
			c-0.5,0.5-0.9,1-1.3,1.5c-1.8-1.5-2.9-3-2.9-4.3c-0.3-4.6,4.9-6.8,5-6.8l-0.5-1.2c-0.3,0.1-6.1,2.6-5.8,8.1
			c0.1,1.7,1.4,3.6,3.5,5.4C2.7,40.1,3.6,49.9,7,57.1c2.4,5.1,5.9,8.6,9.7,10.1c-1.2,5.8-1.4,12.6-0.3,20.4c0,0.1-0.1,0.1-0.1,0.2
			l0.2,0.1c1.1,8.2,3.7,17.4,8.1,27.8l1.2-0.5c-4.3-10.1-6.9-19.2-8-27.2c1.1-1.5,3.6-4,5.3-5.3c1-0.7,2-1.3,3.2-1.9
			c4-1.8,6.6-1.5,8.4-0.5c-0.4,0.9-0.7,1.7-0.9,2.5c-0.5,2.3,0,4.2,1.4,5.5c0.9,0.8,1.7,1,2.2,1c0.6,0,1-0.3,1.2-0.5
			C40,87.5,39.8,84.2,38.2,81.7z M29.2,47.5c4.8-3.7,9.2-4.2,11.1-2.8c1.3,1,1.5,3,0.7,5.7c-1.8,6.1-9.5,15.5-20.1,16.2
			c-0.9,0.1-1.9,0-2.8-0.3C20.1,57.6,24.3,51.4,29.2,47.5z M10.5,31.2c1.8-1.9,4-3.2,6.2-4.1c0,0.1,0.1,0.1,0.1,0.2
			c2.1,2.9,6.8,6,13.5,5.1c3.1-0.4,4.7-1.3,4.9-2.7c0.2-1.2-0.8-2.4-2.8-3.4c-3.5-1.7-9.6-2.6-15.2-0.8c-0.7-1.5-0.8-3-0.2-4.2
			c1.2-2.3,4.5-3.5,9.3-3.5c0,0,0.1,0,0.1,0c9.8,1.2,16.9,4.9,19.1,9.8c0.9,2.2,0.7,4.4-0.5,6.1c-6.3,7.2-17.9,6.6-26.7,3.5
			c-3.6-1.2-6.8-2.9-9.2-4.6C9.6,32.1,10,31.6,10.5,31.2z M18,26.6c5.2-1.5,10.7-0.8,13.9,0.8c1.5,0.8,2.1,1.5,2.1,2
			c-0.1,0.5-1.1,1.2-3.8,1.6C24.5,31.8,20,29.4,18,26.6z M37.7,87.7c-0.5,0.4-1.4-0.3-1.7-0.6c-1-0.9-1.4-2.4-1-4.2
			c0.1-0.7,0.4-1.3,0.7-2c0.6,0.5,1.1,1.1,1.4,1.5C38.5,84.6,38.4,87.1,37.7,87.7z" fill="#4A4036" stroke-width="0"></path>
		<path d="M80.3,132.2c-15.4,0-30.3-5.4-42.1-15.3l-0.8,1c12,10.1,27.2,15.6,42.9,15.6c24.5,0,47-13.4,58.7-35
			l-1.2-0.6C126.4,119.1,104.3,132.2,80.3,132.2z" fill="#4A4036" stroke-width="0"></path>
		<path d="M80.3,0C68,0,56.1,3.3,45.6,9.7l0.7,1.1c10.2-6.2,22-9.5,34-9.5c25.2,0,47.8,14.1,58.8,36.7l1.2-0.6
			C129,14.4,106,0,80.3,0z" fill="#4A4036" stroke-width="0"></path>
	</g>
</g>
</svg></g>
        </g><g id="shape_dEXwuzJ9pU"   ref="shape_dEXwuzJ9pU" key="shape_dEXwuzJ9pU" transform="translate(282.25673626866,73.82135281899) rotate(0,177.57289308519,210.44) scale(1,1)" style="cursor:move;display:inline;opacity:1;" filter="">
            <g style="display:inline"><svg xmlns="http://www.w3.org/2000/svg" version="1.1" xmlns:xlink="http://www.w3.org/1999/xlink" width="333.44" height="420.88" viewBox="0 0 333.44 420.88" preserveAspectRatio="none" data-parent="shape_dEXwuzJ9pU"><rect fill="rgba(0,0,0,0)" width="100" height="70" x="58.36" y="175.44"></rect><g data-width="99.212" transform="translate(58.36, 0)"><path d="M41.44 8.58L0 8.58L2.57-14.65L8.52-14.65L6.65 2.57L18.27 2.57L20.66-19.84L4.26-19.84L6.48-41.14L12.43-41.14L10.91-25.80L21.30-25.80L23.17-44.47L29.36-44.47L27.43-25.80L37.88-25.80L39.33-41.14L45.46-41.14L43.24-19.84L26.79-19.84L24.39 2.57L36.07 2.57L37.88-14.65L43.89-14.65L41.44 8.58Z" transform="translate(0 233.44) skewX(0)" fill="#4a4036" stroke="#4a4036" stroke-width="0.097" data-glyph-w="49.606" data-glyph-h="70.032" data-glyph-ascender="58.36" data-glyph-descender="-11.672"></path><path d="M16.11 5.60L-0.23 5.60L4.38-38.05L8.58-38.05L4.55-0.06L6.30-0.06L10.97-44.47L15.47-44.47L10.80-0.06L12.61-0.06L16.52-38.05L20.72-38.05L16.11 5.60ZM41.79 8.58L18.09 8.58L22.88-36.71L32.04-36.71L32.92-44.47L38.17-44.47L37.29-36.71L46.57-36.71L41.79 8.58ZM27.31-31.16L25.85-16.81L30.00-16.81L31.51-31.16L27.31-31.16ZM36.71-31.16L35.19-16.81L39.39-16.81L40.91-31.16L36.71-31.16ZM25.27-11.61L23.75 3.03L27.90 3.03L29.47-11.61L25.27-11.61ZM34.67-11.61L33.09 3.03L37.29 3.03L38.87-11.61L34.67-11.61Z" transform="translate(49.606 233.44) skewX(0)" fill="#4a4036" stroke="#4a4036" stroke-width="0.097" data-glyph-w="49.606" data-glyph-h="70.032" data-glyph-ascender="58.36" data-glyph-descender="-11.672"></path></g></svg></g>
        </g><g id="shape_xezC3PERTf"   ref="shape_xezC3PERTf" key="shape_xezC3PERTf" transform="translate(318.15673626866004,256.70271281899) rotate(0,105.74246677312499,76.55864) scale(1,1)" style="cursor:move;display:inline;opacity:1;" filter="">
            <g style="display:inline"><svg xmlns="http://www.w3.org/2000/svg" version="1.1" xmlns:xlink="http://www.w3.org/1999/xlink" width="156.84" height="153.11728" viewBox="0 0 156.84 153.11728" preserveAspectRatio="none" data-parent="shape_xezC3PERTf"><rect fill="rgba(0,0,0,0)" width="75" height="24" x="20.46" y="64.55864"></rect><g data-width="74.1675" transform="translate(20.46, 0)"><path d="M2.91-4.01L2.91-4.01Q2.91-6.83 4.17-9.40Q5.44-11.97 7.56-13.53Q9.68-15.10 12.03-15.10L12.03-15.10Q13.42-15.10 14.22-14.51Q15.02-13.91 15.02-12.85L15.02-12.85Q15.02-12.05 14.58-11.15Q14.14-10.25 13.44-9.68L13.44-9.68Q12.93-9.76 12.52-10.16Q12.11-10.56 12.03-11.09L12.03-11.09Q13.59-12.34 13.59-13.50L13.59-13.50Q13.59-14.40 12.46-14.40L12.46-14.40Q11.54-14.40 10.49-13.68Q9.43-12.95 8.59-11.74L8.59-11.74Q5.75-7.65 5.75-3.38L5.75-3.38Q5.75-1.88 6.21-0.95Q6.67-0.02 7.47 0.14L7.47 0.14Q9.33-0.29 12.64-3.38L12.64-3.38Q12.85-3.17 12.89-2.95L12.89-2.95Q11.72-1.37 10.40-0.13Q9.08 1.10 8.06 1.60L8.06 1.60Q5.54 1.55 4.22 0.12Q2.91-1.31 2.91-4.01Z" transform="translate(0 83.55864) " fill="#4a4036" stroke="#4a4036" stroke-width="0.034" data-glyph-w="12.357840000000001" data-glyph-h="29.687460000000005" data-glyph-ascender="22.17864" data-glyph-descender="-7.508820000000001"></path><path d="M10.05-1.19L10.05-1.19Q10.05-2.80 11.09-6.28L11.09-6.28Q10.35-6.24 8.55-6.05Q6.75-5.85 6.02-5.83L6.02-5.83Q4.34-1.88 3.70 1.66L3.70 1.66Q2.39 1.35 1.47-0.14L1.47-0.14Q2.09-1.43 3.91-6.18L3.91-6.18Q3.23-6.47 3.01-6.98L3.01-6.98Q3.19-7.10 4.36-7.35L4.36-7.35L4.62-8.00Q5.48-10.19 5.79-11.30Q6.10-12.42 6.59-15.18L6.59-15.18Q8.20-14.89 9.37-12.99L9.37-12.99Q8.92-12.42 6.85-7.75L6.85-7.75Q9.78-8.14 11.72-8.27L11.72-8.27Q13.48-13.36 14.67-14.61L14.67-14.61Q15.10-14.57 15.92-14.13Q16.74-13.69 16.92-13.34L16.92-13.34Q15.55-12.05 14.10-7.88L14.10-7.88Q14.51-7.51 14.51-6.96L14.51-6.96Q14.51-6.57 14.34-6.24L14.34-6.24Q14.08-6.28 13.59-6.32L13.59-6.32Q12.05-1.45 12.05 1.10L12.05 1.10Q12.05 1.43 12.09 1.64L12.09 1.64Q11.58 1.62 11.35 1.42Q11.11 1.23 10.99 0.98Q10.86 0.74 10.68 0.65L10.68 0.65Q10.41 0.55 10.23-0.09Q10.05-0.74 10.05-1.19Z" transform="translate(12.357840000000001 83.55864) " fill="#4a4036" stroke="#4a4036" stroke-width="0.034" data-glyph-w="13.810500000000001" data-glyph-h="29.687460000000005" data-glyph-ascender="22.17864" data-glyph-descender="-7.508820000000001"></path><path d="M9.92-13.77L9.92-13.77Q8.14-11.40 7.05-8.18Q5.95-4.97 5.95-2.35L5.95-2.35Q5.95-0.76 6.43-0.04Q6.92 0.68 8.04 0.68L8.04 0.68Q9.31 0.68 10.32-0.21Q11.33-1.10 12.26-2.82L12.26-2.82Q13.34-4.83 13.87-7.59Q14.40-10.35 14.40-13.07L14.40-13.07Q14.40-14.26 14.32-14.83L14.32-14.83Q14.55-14.83 15.26-14.67Q15.98-14.51 16.37-14.30L16.37-14.30Q16.16-11.07 15.24-7.70Q14.32-4.34 12.89-2.03L12.89-2.03Q10.60 1.72 7.26 1.72L7.26 1.72Q5.36 1.72 4.33 0.60Q3.29-0.51 3.29-2.70L3.29-2.70Q3.29-5.24 4.34-8.88Q5.38-12.52 6.79-15.10L6.79-15.10Q7.51-15.06 8.53-14.63Q9.55-14.20 9.92-13.77Z" transform="translate(26.16834 83.55864) " fill="#4a4036" stroke="#4a4036" stroke-width="0.034" data-glyph-w="14.260620000000001" data-glyph-h="29.687460000000005" data-glyph-ascender="22.17864" data-glyph-descender="-7.508820000000001"></path><path d="M13.24 0.08L13.24 0.08Q12.89 0.47 11.93 0.93Q10.97 1.39 10.41 1.45L10.41 1.45Q10.13 1.45 9.95 1.27Q9.78 1.08 9.52 0.29Q9.27-0.51 9.00-1.76Q8.74-3.01 8.25-5.54L8.25-5.54Q5.87-3.13 4.35-1.12Q2.82 0.90 2.82 1.64L2.82 1.64Q2.31 1.58 1.85 1.06Q1.39 0.55 1.39 0.06L1.39 0.06Q1.51-0.43 2.31-1.45L2.31-1.45Q3.95-3.54 8.02-6.69L8.02-6.69Q6.69-13.30 4.26-13.30L4.26-13.30Q4.50-13.89 5.04-14.34Q5.59-14.79 6.20-14.89L6.20-14.89Q6.69-14.89 6.98-14.84Q7.26-14.79 7.58-14.52Q7.90-14.24 8.08-13.86Q8.27-13.48 8.54-12.60Q8.82-11.72 9.04-10.71Q9.27-9.70 9.66-7.92L9.66-7.92Q10.97-9.31 12.10-10.79Q13.24-12.28 13.69-13.14L13.69-13.14Q13.91-13.52 13.91-13.93L13.91-13.93Q13.91-14.30 13.69-14.89L13.69-14.89Q14.36-14.51 14.69-14.16Q15.02-13.81 15.26-13.24L15.26-13.24Q15.16-12.26 14.17-11.08Q13.18-9.90 9.88-6.90L9.88-6.90Q10.68-3.21 11.40-1.72Q12.11-0.23 13.24 0.08Z" transform="translate(40.428960000000004 83.55864) " fill="#4a4036" stroke="#4a4036" stroke-width="0.034" data-glyph-w="13.033020000000002" data-glyph-h="29.687460000000005" data-glyph-ascender="22.17864" data-glyph-descender="-7.508820000000001"></path><path d="M2.68-1.17L2.68-1.17Q2.68-3.38 4.40-8.39Q6.12-13.40 7.28-14.61L7.28-14.61Q7.71-14.57 8.53-14.13Q9.35-13.69 9.51-13.34L9.51-13.34Q8.41-12.34 7.23-9.36Q6.06-6.38 5.35-3.37Q4.64-0.35 4.64 1.21L4.64 1.21Q4.64 1.55 4.71 1.64L4.71 1.64Q4.30 1.62 4.05 1.48Q3.81 1.35 3.72 1.20Q3.64 1.04 3.53 0.88Q3.42 0.72 3.25 0.65L3.25 0.65Q3.01 0.55 2.84-0.08Q2.68-0.72 2.68-1.17Z" transform="translate(53.461980000000004 83.55864) " fill="#4a4036" stroke="#4a4036" stroke-width="0.034" data-glyph-w="6.4449000000000005" data-glyph-h="29.687460000000005" data-glyph-ascender="22.17864" data-glyph-descender="-7.508820000000001"></path><path d="M9.92-13.77L9.92-13.77Q8.14-11.40 7.05-8.18Q5.95-4.97 5.95-2.35L5.95-2.35Q5.95-0.76 6.43-0.04Q6.92 0.68 8.04 0.68L8.04 0.68Q9.31 0.68 10.32-0.21Q11.33-1.10 12.26-2.82L12.26-2.82Q13.34-4.83 13.87-7.59Q14.40-10.35 14.40-13.07L14.40-13.07Q14.40-14.26 14.32-14.83L14.32-14.83Q14.55-14.83 15.26-14.67Q15.98-14.51 16.37-14.30L16.37-14.30Q16.16-11.07 15.24-7.70Q14.32-4.34 12.89-2.03L12.89-2.03Q10.60 1.72 7.26 1.72L7.26 1.72Q5.36 1.72 4.33 0.60Q3.29-0.51 3.29-2.70L3.29-2.70Q3.29-5.24 4.34-8.88Q5.38-12.52 6.79-15.10L6.79-15.10Q7.51-15.06 8.53-14.63Q9.55-14.20 9.92-13.77Z" transform="translate(59.90688 83.55864) " fill="#4a4036" stroke="#4a4036" stroke-width="0.034" data-glyph-w="14.260620000000001" data-glyph-h="29.687460000000005" data-glyph-ascender="22.17864" data-glyph-descender="-7.508820000000001"></path></g></svg></g>
        </g>
  </svg>