<?xml version="1.0" standalone="no"?><!DOCTYPE svg PUBLIC "-//W3C//DTD SVG 1.1//EN" "http://www.w3.org/Graphics/SVG/1.1/DTD/svg11.dtd" [<!ENTITY nbsp " ">]><svg data-noselect="" 
  viewBox="180.96671284793496 131.95235147943 400.00000000000006 331.04764852056996" 
  width="400.00000000000006" 
  height="331.04764852056996" 
  ref="svg_canvas" 
  preserveAspectRatio="none" 
  version="1.1" xmlns="http://www.w3.org/2000/svg" 
  style="background: #ffffff;">
    <defs></defs>
    <g id="shape_xZckYolOn9"   ref="shape_xZckYolOn9" key="shape_xZckYolOn9" transform="translate(297.02704390872,211.95235147943) rotate(0,80.845373751161,85.523824260287) scale(1,1)" style="cursor:move;display:inline;opacity:1;" filter="">
            <g style="display:inline"><rect fill="rgba(0,0,0,0)" width="181.69074750232" height="191.04764852057" x="-10" y="-10"></rect><svg version="1.1" id="图层_1" xmlns="http://www.w3.org/2000/svg" xmlns:xlink="http://www.w3.org/1999/xlink" x="0px" y="0px" width="161.69074750232" height="171.04764852057" viewBox="0 0 184.9 195.6" style="enable-background:new 0 0 184.9 195.6;" xml:space="preserve" class="style-removed" preserveAspectRatio="none" data-parent="shape_xZckYolOn9">

<g>
	<g>
		<path d="M52.6,135c9.6-0.3,16,2.1,21.5,1.4c4.1-0.5,10.5-3.5,10.3-5.4c-0.2-1.3-7.1-0.4-7.7-0.9
			c-1.2-0.9,4-3.5,6.8-3.9c3.4-0.6,9.3,0.2,13.9,1.5c4.7,1.4,9.9,4.5,15.5,7.1c8.5,3.9,17.7,4.6,28,3.7c10.4-0.9,16.5,1,17.7,5.6
			H20.9C20.9,144.2,43.5,135.3,52.6,135z" fill="#3D0B30" stroke-width="0"></path>
	</g>
	<g>
		<path d="M63.2,52.6h75.4c0,0-17.9-1.9-23.8-5.3c-4.1-2.4-7.7-6.7-14.6-6.7c-6,0-9.3,3.7-15.1,6
			C77.4,49.7,65.9,52.5,63.2,52.6z" fill="#3D0B30" stroke-width="0"></path>
	</g>
	<g>
		<path d="M17.1,126.1h53.3c0,0-12.6-2.7-17-5.1s-6.6-2.7-9.8-2.7c-4.3,0-7.1,2.8-14.2,3.9S17.1,126.1,17.1,126.1z" fill="#3D0B30" stroke-width="0"></path>
	</g>
	<g>
		<path d="M97.8,195.6C43.9,195.6,0,151.7,0,97.8S43.9,0,97.8,0c36.6,0,69.9,20.2,86.8,52.8c0.4,0.8,0.4,1.9-0.1,2.7
			c-0.5,0.8-1.4,1.3-2.3,1.3h-19.1c-1.5,0-2.7-1.2-2.7-2.7c0-1.5,1.2-2.7,2.7-2.7h14.5C161,22.9,130.9,5.5,97.8,5.5
			C46.9,5.5,5.5,46.9,5.5,97.8s41.4,92.3,92.3,92.3c33.1,0,63.2-17.4,79.8-45.8h-14.4c-1.5,0-2.7-1.2-2.7-2.7s1.2-2.7,2.7-2.7h19.1
			c1,0,1.8,0.5,2.3,1.3c0.5,0.8,0.5,1.8,0.1,2.7C167.7,175.3,134.4,195.6,97.8,195.6z" fill="#3D0B30" stroke-width="0"></path>
	</g>
</g>
</svg></g>
        </g><g id="shape_MF5VVaFCuG"   ref="shape_MF5VVaFCuG" key="shape_MF5VVaFCuG" transform="translate(302.97811887482,127.36617573971003) rotate(0,153.9746354772,166.60999999999999) scale(1,1)" style="cursor:move;display:inline;opacity:1;" filter="">
            <g style="display:inline"><svg xmlns="http://www.w3.org/2000/svg" version="1.1" xmlns:xlink="http://www.w3.org/1999/xlink" width="278.48" height="333.21999999999997" viewBox="0 0 278.48 333.21999999999997" preserveAspectRatio="none" data-parent="shape_MF5VVaFCuG"><rect fill="rgba(0,0,0,0)" width="93" height="55" x="46.37" y="139.10999999999999"></rect><g data-width="92.74000000000001" transform="translate(46.37, 0)"><path d="M39.83 2.36L39.83-7.19L43.50-7.19L43.50 2.36Q43.50 4.13 42.27 5.33Q41.04 6.54 39.32 6.54L39.32 6.54L3.71 6.54L3.71-7.19L7.37-7.19L7.37 2.92L21.42 2.92L21.42-11.36L5.01-11.36L5.01-26.76L8.67-26.76L8.67-14.98L21.42-14.98L21.47-29.26L25.09-29.26L25.09-14.98L37.00-14.98Q37.24-14.98 37.40-15.14Q37.56-15.30 37.56-15.53L37.56-15.53L37.56-26.76L41.18-26.76L41.18-15.53Q41.18-13.77 39.97-12.57Q38.77-11.36 37.00-11.36L37.00-11.36L25.09-11.36L25.09 2.92L39.32 2.92Q39.83 2.92 39.83 2.36L39.83 2.36Z" transform="translate(0 174.10999999999999) " fill="#3d0b30" stroke="#3d0b30" stroke-width="0.077" data-glyph-w="46.370000000000005" data-glyph-h="46.23089" data-glyph-ascender="30.975160000000002" data-glyph-descender="-15.25573"></path><path d="M14.70 6.77L14.70 5.15L3.39 6.31L3.39-23.65L7.00-23.65L7.00 2.27L9.04 2.04L9.04-29.21L12.66-29.21L12.66 1.67L14.70 1.48L14.70-23.65L18.32-23.65L18.32 6.77L14.70 6.77ZM43.36-24.76L43.36 2.50Q43.36 4.22 42.15 5.45Q40.94 6.68 39.18 6.68L39.18 6.68L20.54 6.68L20.54-23.74L30.19-23.74L30.19-29.21L33.85-29.21L33.85-23.74L39.69-23.74L39.69-24.76L43.36-24.76ZM33.85 3.01L39.18 3.01Q39.69 3.01 39.69 2.50L39.69 2.50L39.69-8.07L33.85-8.07L33.85 3.01ZM39.69-20.12L33.85-20.12L33.85-11.69L39.69-11.69L39.69-20.12ZM30.19-20.12L24.16-20.12L24.16-11.69L30.19-11.69L30.19-20.12ZM24.16-8.07L24.16 3.01L30.19 3.01L30.19-8.07L24.16-8.07Z" transform="translate(46.370000000000005 174.10999999999999) " fill="#3d0b30" stroke="#3d0b30" stroke-width="0.077" data-glyph-w="46.370000000000005" data-glyph-h="46.23089" data-glyph-ascender="30.975160000000002" data-glyph-descender="-15.25573"></path></g></svg></g>
        </g><g id="shape_umOpuvSFnA"   ref="shape_umOpuvSFnA" key="shape_umOpuvSFnA" transform="translate(398.11638178715,274.62940241937997) rotate(0,77.29842164802301,50.16345703125) scale(1,1)" style="cursor:move;display:inline;opacity:1;" filter="">
            <g style="display:inline"><svg xmlns="http://www.w3.org/2000/svg" version="1.1" xmlns:xlink="http://www.w3.org/1999/xlink" width="108.16" height="100.3269140625" viewBox="0 0 108.16 100.3269140625" preserveAspectRatio="none" data-parent="shape_umOpuvSFnA"><rect fill="rgba(0,0,0,0)" width="53" height="16" x="13.79" y="42.16345703125"></rect><g data-width="52.8639111328125" transform="translate(13.79, 0)"><path d="M8.10-3.64L9.39-3.64L9.39-3.64Q9.14-1.81 7.99-0.77Q6.84 0.27 5.08 0.27L5.08 0.27Q3.04 0.27 1.82-1.14Q0.61-2.55 0.61-4.94L0.61-4.94Q0.61-7.33 1.87-8.75Q3.13-10.17 5.26-10.17L5.26-10.17Q6.94-10.17 8.01-9.31Q9.09-8.44 9.31-6.93L9.31-6.93L9.31-6.93L8.01-6.93L8.01-6.93Q7.82-7.91 7.10-8.45Q6.38-8.98 5.24-8.98L5.24-8.98Q3.75-8.98 2.87-7.89Q1.99-6.79 1.99-4.94L1.99-4.94Q1.99-2.98 2.80-1.95Q3.62-0.92 5.18-0.92L5.18-0.92Q6.33-0.92 7.09-1.63Q7.85-2.34 8.10-3.64L8.10-3.64L8.10-3.64Z" transform="translate(0 54.16345703125) " fill="#3d0b30" stroke="#3d0b30" stroke-width="0.023" data-glyph-w="9.9586962890625" data-glyph-h="15.803286132812499" data-glyph-ascender="12.79345703125" data-glyph-descender="-3.0098291015624996"></path><path d="M1.06 0L1.06 0L1.06-9.90L1.06-9.90L1.73-9.90L2.40-9.90L2.40-9.90L2.40-5.84L2.40-5.84L7.57-5.84L7.57-5.84L7.57-9.90L7.57-9.90L8.23-9.90L8.91-9.90L8.91-9.90L8.91 0L8.91 0L8.24 0L7.57 0L7.57 0L7.57-4.65L7.57-4.65L2.40-4.65L2.40-4.65L2.40 0L2.40 0L1.74 0L1.06 0Z" transform="translate(9.9586962890625 54.16345703125) " fill="#3d0b30" stroke="#3d0b30" stroke-width="0.023" data-glyph-w="9.9586962890625" data-glyph-h="15.803286132812499" data-glyph-ascender="12.79345703125" data-glyph-descender="-3.0098291015624996"></path><path d="M8.88-9.90L8.88-3.63Q8.88-1.80 7.85-0.76Q6.82 0.27 4.99 0.27L4.99 0.27Q3.08 0.27 2.09-0.72Q1.09-1.72 1.09-3.63L1.09-3.63L1.09-9.90L1.09-9.90L1.76-9.90L2.43-9.90L2.43-9.90L2.43-3.73Q2.43-2.35 3.08-1.63Q3.74-0.92 4.99-0.92L4.99-0.92Q6.24-0.92 6.89-1.63Q7.54-2.35 7.54-3.73L7.54-3.73L7.54-9.90L7.54-9.90L8.21-9.90L8.88-9.90L8.88-9.90Z" transform="translate(19.917392578125 54.16345703125) " fill="#3d0b30" stroke="#3d0b30" stroke-width="0.023" data-glyph-w="9.9586962890625" data-glyph-h="15.803286132812499" data-glyph-ascender="12.79345703125" data-glyph-descender="-3.0098291015624996"></path><path d="M0.26 0L0.26 0L3.78-4.94L3.78-4.94L0.48-9.90L0.48-9.90L1.31-9.90L2.14-9.90L2.14-9.90L4.57-6.03L4.57-6.03L4.57-6.03L7.18-9.90L7.18-9.90L7.99-9.90L8.79-9.90L8.79-9.90L5.33-5.03L5.33-5.03L8.94 0L8.94 0L8.11 0L7.29 0L7.29 0L4.58-3.98L4.58-3.98L4.58-3.98L1.89 0L1.89 0L1.08 0L0.26 0Z" transform="translate(29.876088867187498 54.16345703125) " fill="#3d0b30" stroke="#3d0b30" stroke-width="0.023" data-glyph-w="9.197822265625" data-glyph-h="15.803286132812499" data-glyph-ascender="12.79345703125" data-glyph-descender="-3.0098291015624996"></path><path d="M1.25 0L1.25 0L1.25-9.90L1.25-9.90L1.92-9.90L2.59-9.90L2.59-9.90L2.59 0L2.59 0L1.93 0L1.25 0Z" transform="translate(39.0739111328125 54.16345703125) " fill="#3d0b30" stroke="#3d0b30" stroke-width="0.023" data-glyph-w="3.8313037109374997" data-glyph-h="15.803286132812499" data-glyph-ascender="12.79345703125" data-glyph-descender="-3.0098291015624996"></path><path d="M8.88-9.90L8.88-3.63Q8.88-1.80 7.85-0.76Q6.82 0.27 4.99 0.27L4.99 0.27Q3.08 0.27 2.09-0.72Q1.09-1.72 1.09-3.63L1.09-3.63L1.09-9.90L1.09-9.90L1.76-9.90L2.43-9.90L2.43-9.90L2.43-3.73Q2.43-2.35 3.08-1.63Q3.74-0.92 4.99-0.92L4.99-0.92Q6.24-0.92 6.89-1.63Q7.54-2.35 7.54-3.73L7.54-3.73L7.54-9.90L7.54-9.90L8.21-9.90L8.88-9.90L8.88-9.90Z" transform="translate(42.905214843749995 54.16345703125) " fill="#3d0b30" stroke="#3d0b30" stroke-width="0.023" data-glyph-w="9.9586962890625" data-glyph-h="15.803286132812499" data-glyph-ascender="12.79345703125" data-glyph-descender="-3.0098291015624996"></path></g></svg></g>
        </g>
  </svg>