<?xml version="1.0" standalone="no"?><!DOCTYPE svg PUBLIC "-//W3C//DTD SVG 1.1//EN" "http://www.w3.org/Graphics/SVG/1.1/DTD/svg11.dtd" [<!ENTITY nbsp " ">]><svg data-noselect="" 
  viewBox="116 118.19565334932 416.78964031747 316.65388554232004" 
  width="416.78964031747" 
  height="316.65388554232004" 
  ref="svg_canvas" 
  preserveAspectRatio="none" 
  version="1.1" xmlns="http://www.w3.org/2000/svg" 
  style="background: #000000;">
    <defs></defs>
    <g id="shape_5xbxQELWTd"   ref="shape_5xbxQELWTd" key="shape_5xbxQELWTd" transform="translate(196,198.19565334932) rotate(0,80,76.854914196568) scale(1,1)" style="cursor:move;display:inline;opacity:1;" filter="">
            <g style="display:inline"><rect fill="rgba(0,0,0,0)" width="180" height="173.70982839313572" x="-10" y="-10"></rect><svg version="1.1" id="图层_1" xmlns="http://www.w3.org/2000/svg" xmlns:xlink="http://www.w3.org/1999/xlink" x="0px" y="0px" viewBox="0 0 320.5 307.9" style="enable-background:new 0 0 320.5 307.9;" xml:space="preserve" width="160" height="153.70982839313572" class="style-removed" preserveAspectRatio="none" data-parent="shape_5xbxQELWTd">

<g>
	<path d="M194.9,150.3l-3.1,2.4c-44.8,35-67.6,91.3-59.8,147.6l1,7.5l77-60.5L194.9,150.3z" fill="#DDB281" stroke-width="0"></path>
	<path d="M193.3,145l-4.3-1.5c-62.9-21.3-132.4-7.4-182.3,36.4L0,185.8L108.4,222L193.3,145z" fill="#DDB281" stroke-width="0"></path>
	<path d="M195.3,139.6l-1-3.7c-14.5-54-56.6-96.2-110.5-110.7l-7.2-1.9l25.2,92.8L195.3,139.6z" fill="#DDB281" stroke-width="0"></path>
	<path d="M200.4,138.3l2.9-2c42.3-29,66-78.3,62.2-129.5L264.9,0l-72.7,50.1L200.4,138.3z" fill="#DDB281" stroke-width="0"></path>
	<path d="M202,144.3l2.4,1.3c35.3,18.5,77.9,16.8,111.6-4.5l4.5-2.8l-60.9-31.7L202,144.3z" fill="#DDB281" stroke-width="0"></path>
</g>
</svg></g>
        </g><g id="shape_kWT9WDwXf4"   ref="shape_kWT9WDwXf4" key="shape_kWT9WDwXf4" transform="translate(235.49679912731,69.71469514164) rotate(0,226.30899619111,249.63484375000002) scale(1,1)" style="cursor:move;display:inline;opacity:1;" filter="">
            <g style="display:inline"><svg xmlns="http://www.w3.org/2000/svg" version="1.1" xmlns:xlink="http://www.w3.org/1999/xlink" width="428.16" height="499.26968750000003" viewBox="0 0 428.16 499.26968750000003" preserveAspectRatio="none" data-parent="shape_kWT9WDwXf4"><rect fill="rgba(0,0,0,0)" width="143" height="71" x="71.29" y="214.13484375000002"></rect><g data-width="142.58" transform="translate(71.29, 0)"><path d="M3.20-19.28L3.20 8.35Q3.20 9.96 4.80 9.96L4.80 9.96L66.00 9.96Q67.60 9.96 67.60 8.35L67.60 8.35L67.60-19.28Q67.60-20.89 66.00-20.89L66.00-20.89L58.48-20.89Q56.88-20.89 56.88-19.28L56.88-19.28L56.88 4.32Q56.88 5.92 55.28 5.92L55.28 5.92L40.80 5.92L40.80-27.64L64.68-27.64Q66.28-27.64 66.28-29.24L66.28-29.24L66.28-52.84Q66.28-54.44 64.68-54.44L64.68-54.44L57.16-54.44Q55.56-54.44 55.56-52.84L55.56-52.84L55.56-33.28Q55.56-31.61 53.95-31.61L53.95-31.61L40.80-31.61L40.80-56.88Q40.80-58.48 39.20-58.48L39.20-58.48L31.68-58.48Q30.08-58.48 30.08-56.88L30.08-56.88L30.08-31.61L16.92-31.61Q15.32-31.61 15.32-33.28L15.32-33.28L15.32-52.84Q15.32-54.44 13.71-54.44L13.71-54.44L6.20-54.44Q4.59-54.44 4.59-52.84L4.59-52.84L4.59-29.24Q4.59-27.64 6.20-27.64L6.20-27.64L30.08-27.64L30.08 5.92L15.59 5.92Q13.92 5.92 13.92 4.32L13.92 4.32L13.92-19.28Q13.92-20.89 12.32-20.89L12.32-20.89L4.80-20.89Q3.20-20.89 3.20-19.28L3.20-19.28Z" transform="translate(0 275.13484375) skewX(0)" fill="#ddb281" stroke="#ddb281" stroke-width="0.119" data-glyph-w="71.29" data-glyph-h="69.619140625" data-glyph-ascender="61.264843750000004" data-glyph-descender="-8.354296875000001"></path><path d="M32.72 8.35L32.72-46.16Q32.72-47.76 34.32-47.76L34.32-47.76L44.83-47.76L44.83-56.88Q44.83-58.48 46.44-58.48L46.44-58.48L53.95-58.48Q55.56-58.48 55.56-56.88L55.56-56.88L55.56-47.76L66.00-47.76Q67.60-47.76 67.60-46.16L67.60-46.16L67.60 8.35Q67.60 9.96 66.00 9.96L66.00 9.96L34.32 9.96Q32.72 9.96 32.72 8.35L32.72 8.35ZM3.20-51.52L3.20 8.35Q3.20 9.96 4.80 9.96L4.80 9.96L28.47 9.96Q30.08 9.96 30.08 8.35L30.08 8.35L30.08-51.52Q30.08-53.12 28.47-53.12L28.47-53.12L25.27-53.12Q23.67-53.12 23.67-51.52L23.67-51.52L23.67 4.32Q23.67 5.92 22.07 5.92L22.07 5.92L21.09 5.92L21.09-56.88Q21.09-58.48 19.49-58.48L19.49-58.48L13.78-58.48Q12.18-58.48 12.18-56.88L12.18-56.88L12.18 5.92L11.21 5.92Q9.61 5.92 9.61 4.32L9.61 4.32L9.61-51.52Q9.61-53.12 8.01-53.12L8.01-53.12L4.80-53.12Q3.20-53.12 3.20-51.52L3.20-51.52ZM43.72 5.92L44.83 5.92L44.83-16.85L42.12-16.85L42.12 4.32Q42.12 5.92 43.72 5.92L43.72 5.92ZM42.12-20.89L44.83-20.89L44.83-43.72L43.72-43.72Q42.12-43.72 42.12-42.12L42.12-42.12L42.12-20.89ZM56.60-43.72L55.56-43.72L55.56-20.89L58.20-20.89L58.20-42.12Q58.20-43.72 56.60-43.72L56.60-43.72ZM58.20-16.85L55.56-16.85L55.56 5.92L56.60 5.92Q58.20 5.92 58.20 4.32L58.20 4.32L58.20-16.85Z" transform="translate(71.29 275.13484375) skewX(0)" fill="#ddb281" stroke="#ddb281" stroke-width="0.119" data-glyph-w="71.29" data-glyph-h="69.619140625" data-glyph-ascender="61.264843750000004" data-glyph-descender="-8.354296875000001"></path></g></svg></g>
        </g><g id="shape_X5O55yYPkv"   ref="shape_X5O55yYPkv" key="shape_X5O55yYPkv" transform="translate(338.63964031747,183.95056754588998) rotate(0,128.19324891394,84.1) scale(1,1)" style="cursor:move;display:inline;opacity:1;" filter="">
            <g style="display:inline"><svg xmlns="http://www.w3.org/2000/svg" version="1.1" xmlns:xlink="http://www.w3.org/1999/xlink" width="183.6" height="168.2" viewBox="0 0 183.6 168.2" preserveAspectRatio="none" data-parent="shape_X5O55yYPkv"><rect fill="rgba(0,0,0,0)" width="91" height="23" x="23.15" y="72.6"></rect><g data-width="90.40075" transform="translate(23.15, 0)"><path d="M16.23-2.50L16.23 0L5.67 0Q4.38 0 3.30-0.64Q2.22-1.27 1.59-2.36Q0.95-3.45 0.95-4.72L0.95-4.72L0.95-11.23Q0.95-12.50 1.59-13.58Q2.22-14.65 3.30-15.29Q4.38-15.93 5.67-15.93L5.67-15.93L16.23-15.93L16.23-13.45L6.92-13.45Q6.00-13.45 5.35-12.81Q4.70-12.18 4.70-11.23L4.70-11.23L4.70-4.72Q4.70-3.80 5.35-3.15Q6.00-2.50 6.92-2.50L6.92-2.50L16.23-2.50Z" transform="translate(0 92.6) skewX(0)" fill="#ddb281" stroke="#ddb281" stroke-width="0.039" data-glyph-w="17.1773" data-glyph-h="27.78" data-glyph-ascender="23.150000000000002" data-glyph-descender="-4.63"></path><path d="M12.50-9.21L12.50-15.93L16.23-15.93L16.23 0L12.50 0L12.50-6.74L4.65-6.74L4.65 0L0.95 0L0.95-15.93L4.65-15.93L4.65-9.21L12.50-9.21Z" transform="translate(17.1773 92.6) skewX(0)" fill="#ddb281" stroke="#ddb281" stroke-width="0.039" data-glyph-w="17.1773" data-glyph-h="27.78" data-glyph-ascender="23.150000000000002" data-glyph-descender="-4.63"></path><path d="M0.95-15.93L4.68-15.93L4.68-4.35Q4.68-3.59 5.22-3.04Q5.76-2.50 6.55-2.50L6.55-2.50L10.65-2.50Q11.44-2.50 11.98-3.04Q12.52-3.59 12.52-4.35L12.52-4.35L12.52-15.93L16.25-15.93L16.25-3.63Q16.25-2.66 15.75-1.83Q15.26-1.00 14.42-0.50Q13.59 0 12.62 0L12.62 0L4.58 0Q3.59 0 2.75-0.49Q1.92-0.97 1.44-1.82Q0.95-2.66 0.95-3.63L0.95-3.63L0.95-15.93Z" transform="translate(34.3546 92.6) skewX(0)" fill="#ddb281" stroke="#ddb281" stroke-width="0.039" data-glyph-w="17.20045" data-glyph-h="27.78" data-glyph-ascender="23.150000000000002" data-glyph-descender="-4.63"></path><path d="M11.41-15.95L15.53-15.95L9.95-7.99L15.53 0L11.41 0L7.89-5.02L4.38 0L0.23 0L5.81-7.99L0.23-15.95L4.38-15.95L7.89-10.93L11.41-15.95Z" transform="translate(51.555049999999994 92.6) skewX(0)" fill="#ddb281" stroke="#ddb281" stroke-width="0.039" data-glyph-w="15.76515" data-glyph-h="27.78" data-glyph-ascender="23.150000000000002" data-glyph-descender="-4.63"></path><path d="M4.79-15.95L4.79 0L1.09 0L1.09-15.95L4.79-15.95Z" transform="translate(67.3202 92.6) skewX(0)" fill="#ddb281" stroke="#ddb281" stroke-width="0.039" data-glyph-w="5.8801000000000005" data-glyph-h="27.78" data-glyph-ascender="23.150000000000002" data-glyph-descender="-4.63"></path><path d="M0.95-15.93L4.68-15.93L4.68-4.35Q4.68-3.59 5.22-3.04Q5.76-2.50 6.55-2.50L6.55-2.50L10.65-2.50Q11.44-2.50 11.98-3.04Q12.52-3.59 12.52-4.35L12.52-4.35L12.52-15.93L16.25-15.93L16.25-3.63Q16.25-2.66 15.75-1.83Q15.26-1.00 14.42-0.50Q13.59 0 12.62 0L12.62 0L4.58 0Q3.59 0 2.75-0.49Q1.92-0.97 1.44-1.82Q0.95-2.66 0.95-3.63L0.95-3.63L0.95-15.93Z" transform="translate(73.2003 92.6) skewX(0)" fill="#ddb281" stroke="#ddb281" stroke-width="0.039" data-glyph-w="17.20045" data-glyph-h="27.78" data-glyph-ascender="23.150000000000002" data-glyph-descender="-4.63"></path></g></svg></g>
        </g>
  </svg>