<?xml version="1.0" standalone="no"?><!DOCTYPE svg PUBLIC "-//W3C//DTD SVG 1.1//EN" "http://www.w3.org/Graphics/SVG/1.1/DTD/svg11.dtd" [<!ENTITY nbsp " ">]><svg data-noselect="" 
  viewBox="199.224718886585 67.90476190476 400 431.40944028445" 
  width="400" 
  height="431.40944028445" 
  ref="svg_canvas" 
  preserveAspectRatio="none" 
  version="1.1" xmlns="http://www.w3.org/2000/svg" 
  style="background: rgb(244, 247, 242);">
    <defs></defs>
    <g id="shape_IEnS9ImlB1"   ref="shape_IEnS9ImlB1" key="shape_IEnS9ImlB1" transform="translate(303.1114015737,147.90476190476) rotate(0,96.113317312886,106.96083318968) scale(1,1)" style="cursor:move;display:inline;opacity:1;" filter="">
            <g style="display:inline"><rect fill="rgba(0,0,0,0)" width="212.22663462577177" height="233.92166637935566" x="-10" y="-10"></rect><svg version="1.1" id="图层_1" xmlns="http://www.w3.org/2000/svg" xmlns:xlink="http://www.w3.org/1999/xlink" x="0px" y="0px" width="192.22663462577177" height="213.92166637935566" viewBox="0 0 311 346.1" style="enable-background:new 0 0 311 346.1;" xml:space="preserve" class="style-removed" preserveAspectRatio="none" data-parent="shape_IEnS9ImlB1">

<g>
	<g>
		<path d="M157.1,314.2C70.5,314.2,0,243.8,0,157.1S70.5,0,157.1,0c40.1,0,78.3,15.1,107.6,42.6l-2.5,2.7
			C233.6,18.5,196.3,3.7,157.1,3.7C72.5,3.7,3.7,72.5,3.7,157.1s68.8,153.4,153.4,153.4c44.3,0,86.4-19.1,115.5-52.5l2.8,2.4
			C245.6,294.7,202.4,314.2,157.1,314.2z" fill="#839B79" stroke-width="0"></path>
	</g>
	<g>
		<path d="M288.5,71.5c0,0-27.9-0.2-29-30.9c0,0,8.8-2,20.4,16.3C285.6,65.9,284.7,68.6,288.5,71.5z" fill="#839B79" stroke-width="0"></path>
	</g>
	<g>
		<path d="M293.8,217.2c0.2,2.2,0.2,4.4,0.1,6.5c-0.1,2.2-0.4,4.4-1.3,6.6c-1.9,4-4,7.7-6.1,11.4
			c-2.2,3.7-4.4,7.4-6.8,11c-1.2,1.8-2.4,3.6-3.8,5.3c-1.3,1.7-2.7,3.4-4.4,5l-1.6-1.8c1.5-1.3,2.8-2.9,4.2-4.6
			c1.3-1.7,2.5-3.4,3.8-5.1c2.4-3.5,4.7-7.1,6.9-10.7c2.2-3.6,4.4-7.4,6.2-11.1c0.8-1.8,1.1-3.9,1.3-6c0.1-2.1,0.1-4.2,0-6.3
			L293.8,217.2z" fill="#839B79" stroke-width="0"></path>
	</g>
	<g>
		<path d="M272.4,262.1l-0.8-1.4c4-2.2,6.9-4.2,9.5-5.9c3.1-2,5.7-3.8,9.2-5.4l0.7,1.4c-3.4,1.6-6,3.3-9,5.3
			C279.4,257.9,276.4,259.8,272.4,262.1z" fill="#839B79" stroke-width="0"></path>
	</g>
	<g>
		<path d="M118.5,318c-13.9,0-22.1-1.4-22.2-1.4l0.3-1.6c0.3,0.1,28.9,4.9,70.6-3.8l0.3,1.6
			C147.8,316.9,130.9,318,118.5,318z" fill="#839B79" stroke-width="0"></path>
	</g>
	<g>
		<path d="M139.8,328.1l-1.1-1.2c0.6-0.5,14.1-12.8,24.4-14.9l0.3,1.6C153.6,315.5,140,327.9,139.8,328.1z" fill="#839B79" stroke-width="0"></path>
	</g>
	<g>
		<path d="M155.6,312.9c-8.7-0.2-19.8-6.2-20.3-6.5l0.8-1.4c0.1,0.1,11.3,6.1,19.6,6.3L155.6,312.9z" fill="#839B79" stroke-width="0"></path>
	</g>
	<g>
		<path d="M207.1,294.6c-20.3,0-33.9-6.4-34.1-6.5l0.7-1.4c0.3,0.1,29.9,14.2,67.5,0.1l0.6,1.5
			C229.1,293,217.3,294.6,207.1,294.6z" fill="#839B79" stroke-width="0"></path>
	</g>
	<g>
		<path d="M293.3,219.2c0,0-12.8-14.6-4.3-32.3c0,0,3,10.6,5,13.9C297.6,207,293.3,219.2,293.3,219.2z" fill="#557A49" stroke-width="0"></path>
	</g>
	<g>
		<path d="M288,252c0,0,3.4-9.6,17-6.8c3.6,0.8,6-0.5,6-0.5s-6.2,4.9-13.3,5.2C290.7,250.2,288,252,288,252z" fill="#6D8E5F" stroke-width="0"></path>
	</g>
	<g>
		<path d="M137.1,270.1c0,0,26-10.1,38.4,18c0,0-7.4,5.1-25-7.5C141.9,274.3,141.7,271.5,137.1,270.1z" fill="#6D8E5F" stroke-width="0"></path>
	</g>
	<g>
		<path d="M98.3,288.3c0,0,26-10.1,38.4,18c0,0-7.4,5.1-25-7.5C103.1,292.4,102.9,289.6,98.3,288.3z" fill="#557A49" stroke-width="0"></path>
	</g>
	<g>
		<path d="M100.6,346.1c0,0,10.4-27.9,40.5-19.9c0,0-1.3,9.4-23.2,15.7C107.1,344.9,104.9,343.2,100.6,346.1z" fill="#A0B771" stroke-width="0"></path>
	</g>
	<g>
		<path d="M57.8,298.6c0,0,27.3-9.7,40.1,17.7c0,0-7.8,4.9-26.2-7.5C62.8,302.6,62.6,299.9,57.8,298.6z" fill="#6D8E5F" stroke-width="0"></path>
	</g>
</g>
</svg></g>
        </g><g id="shape_4EW9Soqlbh"   ref="shape_4EW9Soqlbh" key="shape_4EW9Soqlbh" transform="translate(349.2263685323395,-29.605677960250006) rotate(0,97.69966190105,240.70000000000002) scale(1,1)" style="cursor:move;display:inline;opacity:1;" filter="">
            <g style="display:inline"><svg xmlns="http://www.w3.org/2000/svg" version="1.1" xmlns:xlink="http://www.w3.org/1999/xlink" width="316.6" height="481.4000000000001" viewBox="0 0 316.6 481.4000000000001" preserveAspectRatio="none" data-parent="shape_4EW9Soqlbh"><rect fill="rgba(0,0,0,0)" width="49" height="80" x="66.9" y="200.70000000000002"></rect><g data-width="48.96189158746341" transform="translate(66.9190542062683, 0)"><path d="M40.81 7.56L1.20 7.56L1.20-22.88L4.42-22.88L4.42 4.35L19.27 4.35L19.27-27.76L1.61-27.76L1.61-55.79L4.88-55.79L4.88-31.04L19.27-31.04L19.27-56.33L22.55-56.33L22.55-31.04L37.53-31.04L37.53-56.33L40.81-56.33L40.81-27.76L22.55-27.76L22.55 4.35L37.53 4.35L37.53-22.88L40.81-22.88L40.81 7.56Z" transform="translate(0 262.70000000000005) skewX(0)" fill="rgb(109, 142, 95)" stroke="rgb(109, 142, 95)" stroke-width="0.111" data-glyph-w="48.96189158746341" data-glyph-h="70.0443" data-glyph-ascender="57.4671" data-glyph-descender="-12.5772"></path></g></svg></g>
        </g><g id="shape_nvlgqtoUt2"   ref="shape_nvlgqtoUt2" key="shape_nvlgqtoUt2" transform="translate(349.2263685323395,45.73901030701998) rotate(0,97.69966190105,240.70000000000002) scale(1,1)" style="cursor:move;display:inline;opacity:1;" filter="">
            <g style="display:inline"><svg xmlns="http://www.w3.org/2000/svg" version="1.1" xmlns:xlink="http://www.w3.org/1999/xlink" width="316.6" height="481.4000000000001" viewBox="0 0 316.6 481.4000000000001" preserveAspectRatio="none" data-parent="shape_nvlgqtoUt2"><rect fill="rgba(0,0,0,0)" width="49" height="80" x="66.9" y="200.70000000000002"></rect><g data-width="48.96189158746341" transform="translate(66.9190542062683, 0)"><path d="M41.01 6.82L18.93 6.82L18.93-49.91L28.37-49.91L28.37-56.06L31.58-56.06L31.58-49.91L41.01-49.91L41.01 6.82ZM16.73 7.09L0.67 7.09L0.67-51.65L3.88-51.65L3.88 3.88L7.02 3.88L7.02-55.86L10.24-55.86L10.24 3.88L13.45 3.88L13.45-51.65L16.73-51.65L16.73 7.09ZM22.14-23.48L28.37-23.48L28.37-46.63L22.14-46.63L22.14-23.48ZM37.73-46.63L31.58-46.63L31.58-23.48L37.73-23.48L37.73-46.63ZM22.14 3.61L28.37 3.61L28.37-20.20L22.14-20.20L22.14 3.61ZM37.73 3.61L37.73-20.20L31.58-20.20L31.58 3.61L37.73 3.61Z" transform="translate(0 262.70000000000005) " fill="rgb(109, 142, 95)" stroke="rgb(109, 142, 95)" stroke-width="0.111" data-glyph-w="48.96189158746341" data-glyph-h="70.0443" data-glyph-ascender="57.4671" data-glyph-descender="-12.5772"></path></g></svg></g>
        </g><g id="shape_xesUpc1L8g"   ref="shape_xesUpc1L8g" key="shape_xesUpc1L8g" transform="translate(333.256225749345,275.21669041749) rotate(0,127.378885204187,109.89) scale(1,1)" style="cursor:move;display:inline;opacity:1;" filter="">
            <g style="display:inline"><svg xmlns="http://www.w3.org/2000/svg" version="1.1" xmlns:xlink="http://www.w3.org/1999/xlink" width="203.51999999999998" height="219.78" viewBox="0 0 203.51999999999998 219.78" preserveAspectRatio="none" data-parent="shape_xesUpc1L8g"><rect fill="rgba(0,0,0,0)" width="81" height="36" x="30.63" y="91.89"></rect><g data-width="80.9461648946762" transform="translate(30.6569175526619, 0)"><path d="M25.06-1.50L25.06-10.38L27.26-10.38L27.26 2.27L25.06 2.27L25.06 0.49L3.40 0.49L3.40-10.38L5.61-10.38L5.61-1.50L14.18-1.50L14.18-12.37L4.72-12.37L4.72-22.76L6.83-22.76L6.83-14.37L14.18-14.37L14.18-25.58L16.39-25.58L16.39-14.37L23.86-14.37L23.86-22.79L26.07-22.79L26.07-12.37L16.39-12.37L16.39-1.50L25.06-1.50Z" transform="translate(0 120.89) skewX(0)" fill="rgb(87, 87, 87)" stroke="rgb(87, 87, 87)" stroke-width="0.051" data-glyph-w="40.4730824473381" data-glyph-h="30.630000000000003" data-glyph-ascender="26.9544" data-glyph-descender="-3.6756"></path><path d="M8.18-4.32L10.69-4.59L10.69-20.49L12.25-20.49L12.25-1.44L10.69-1.44L10.69-2.91L2.45-1.93L2.45-20.40L4.01-20.40L4.01-3.83L6.43-4.10L6.43-25.30L8.18-25.30L8.18-4.32ZM22.27-8.61L22.27-1.23L26.34-1.23L26.34-8.61L22.27-8.61ZM20.37-8.61L16.30-8.61L16.30-1.23L20.37-1.23L20.37-8.61ZM20.37-10.44L20.37-17.28L16.30-17.28L16.30-10.44L20.37-10.44ZM22.27-10.44L26.34-10.44L26.34-17.28L22.27-17.28L22.27-10.44ZM22.30-25.58L22.30-19.11L28.27-19.11L28.27 2.11L26.34 2.11L26.34 0.64L16.30 0.64L16.30 2.33L14.40 2.33L14.40-19.11L20.34-19.11L20.34-25.58L22.30-25.58Z" transform="translate(40.4730824473381 120.89) skewX(0)" fill="rgb(87, 87, 87)" stroke="rgb(87, 87, 87)" stroke-width="0.051" data-glyph-w="40.4730824473381" data-glyph-h="30.630000000000003" data-glyph-ascender="26.9544" data-glyph-descender="-3.6756"></path></g></svg></g>
        </g><g id="shape_ROmysT5cKM"   ref="shape_ROmysT5cKM" key="shape_ROmysT5cKM" transform="translate(359.68827013378,362.57420218921) rotate(0,90.66648808445,48.74) scale(1,1)" style="cursor:move;display:inline;opacity:1;" filter="">
            <g style="display:inline"><svg xmlns="http://www.w3.org/2000/svg" version="1.1" xmlns:xlink="http://www.w3.org/1999/xlink" width="104.32" height="97.48" viewBox="0 0 104.32 97.48" preserveAspectRatio="none" data-parent="shape_ROmysT5cKM"><rect fill="rgba(0,0,0,0)" width="50" height="16" x="13.58" y="40.74"></rect><g data-width="49.6349" transform="translate(13.76255, 0)"><path d="M5.11-0.88L5.11-0.88Q6.07-0.88 6.80-1.37Q7.52-1.86 7.88-2.69L7.88-2.69L8.95-2.69Q8.50-1.41 7.47-0.68L7.47-0.68Q6.37 0.11 4.88 0.11L4.88 0.11Q2.91 0.11 1.68-1.24L1.68-1.24Q0.53-2.53 0.53-4.49Q0.53-6.46 1.68-7.75L1.68-7.75Q2.91-9.10 4.88-9.10L4.88-9.10Q6.37-9.10 7.47-8.31L7.47-8.31Q8.50-7.58 8.95-6.30L8.95-6.30L7.88-6.30Q7.52-7.13 6.80-7.62Q6.07-8.11 5.11-8.11Q4.14-8.11 3.50-7.83Q2.87-7.55 2.43-7.06L2.43-7.06Q1.55-6.07 1.55-4.49L1.55-4.49Q1.55-2.92 2.43-1.93L2.43-1.93Q3.35-0.88 5.11-0.88Z" transform="translate(0 52.74) " fill="rgb(87, 87, 87)" stroke="rgb(87, 87, 87)" stroke-width="0.023" data-glyph-w="9.3702" data-glyph-h="13.987400000000001" data-glyph-ascender="11.1356" data-glyph-descender="-2.8518"></path><path d="M7.35-8.99L8.37-8.99L8.37 0L7.35 0L7.35-4.01L2.12-4.01L2.12 0L1.10 0L1.10-8.99L2.12-8.99L2.12-5.00L7.35-5.00L7.35-8.99Z" transform="translate(9.3702 52.74) " fill="rgb(87, 87, 87)" stroke="rgb(87, 87, 87)" stroke-width="0.023" data-glyph-w="9.46526" data-glyph-h="13.987400000000001" data-glyph-ascender="11.1356" data-glyph-descender="-2.8518"></path><path d="M7.62-8.99L8.64-8.99L8.64-3.87Q8.64-2.08 7.57-0.98Q6.50 0.11 4.81 0.11L4.81 0.11Q3.12 0.11 2.06-0.98Q0.99-2.08 0.99-3.87L0.99-3.87L0.99-8.99L2.01-8.99L2.01-3.84Q2.01-2.39 2.88-1.58L2.88-1.58Q3.63-0.88 4.81-0.88L4.81-0.88Q5.99-0.88 6.75-1.58L6.75-1.58Q7.62-2.38 7.62-3.84L7.62-3.84L7.62-8.99Z" transform="translate(18.83546 52.74) " fill="rgb(87, 87, 87)" stroke="rgb(87, 87, 87)" stroke-width="0.023" data-glyph-w="9.62822" data-glyph-h="13.987400000000001" data-glyph-ascender="11.1356" data-glyph-descender="-2.8518"></path><path d="M8.12-8.99L4.78-4.64L8.37 0L7.08 0L4.16-3.86L1.25 0L-0.04 0L3.54-4.64L0.20-8.99L1.49-8.99L4.16-5.46L6.83-8.99L8.12-8.99Z" transform="translate(28.463680000000004 52.74) " fill="rgb(87, 87, 87)" stroke="rgb(87, 87, 87)" stroke-width="0.023" data-glyph-w="8.32454" data-glyph-h="13.987400000000001" data-glyph-ascender="11.1356" data-glyph-descender="-2.8518"></path><path d="M2.12-8.99L2.12 0L1.10 0L1.10-8.99L2.12-8.99Z" transform="translate(36.78822 52.74) " fill="rgb(87, 87, 87)" stroke="rgb(87, 87, 87)" stroke-width="0.023" data-glyph-w="3.21846" data-glyph-h="13.987400000000001" data-glyph-ascender="11.1356" data-glyph-descender="-2.8518"></path><path d="M7.62-8.99L8.64-8.99L8.64-3.87Q8.64-2.08 7.57-0.98Q6.50 0.11 4.81 0.11L4.81 0.11Q3.12 0.11 2.06-0.98Q0.99-2.08 0.99-3.87L0.99-3.87L0.99-8.99L2.01-8.99L2.01-3.84Q2.01-2.39 2.88-1.58L2.88-1.58Q3.63-0.88 4.81-0.88L4.81-0.88Q5.99-0.88 6.75-1.58L6.75-1.58Q7.62-2.38 7.62-3.84L7.62-3.84L7.62-8.99Z" transform="translate(40.00668 52.74) " fill="rgb(87, 87, 87)" stroke="rgb(87, 87, 87)" stroke-width="0.023" data-glyph-w="9.62822" data-glyph-h="13.987400000000001" data-glyph-ascender="11.1356" data-glyph-descender="-2.8518"></path></g></svg></g>
        </g>
  </svg>