<?xml version="1.0" standalone="no"?><!DOCTYPE svg PUBLIC "-//W3C//DTD SVG 1.1//EN" "http://www.w3.org/Graphics/SVG/1.1/DTD/svg11.dtd" [<!ENTITY nbsp " ">]><svg data-noselect="" 
  viewBox="200.5 74.75075763796275 400 418.8862529363773" 
  width="400" 
  height="418.8862529363773" 
  ref="svg_canvas" 
  preserveAspectRatio="none" 
  version="1.1" xmlns="http://www.w3.org/2000/svg" 
  style="background: rgb(245, 233, 207);">
    <defs></defs>
    <g id="shape_2vihui1gf4"   ref="shape_2vihui1gf4" key="shape_2vihui1gf4" transform="translate(330.75,154.75075763796275) rotate(0,69.75,69.75) scale(1,1)" style="cursor:move;display:inline;opacity:1;" filter="">
            <g style="display:inline"><rect fill="rgba(0,0,0,0)" width="159.5" height="159.49848472407453" x="-10" y="-10"></rect><svg xmlns="http://www.w3.org/2000/svg" viewBox="-0.01000171434134245 -0.01000171434134245 31.080345153808594 31.080007553100586" width="139.5" height="139.49848472407453" class="style-removed" preserveAspectRatio="none" data-parent="shape_2vihui1gf4"><g><g fill="#AC7032" fill-rule="evenodd"><path d="M18 15.23a7.64 7.64 0 0 1 6.5-.55c3.2 1.34 2.88 4.06 2.3 4.85 1.16 2.39-1 4.29-2.86 2.62a1.73 1.73 0 0 1-2 .16 3.24 3.24 0 0 1-1.49-1.87c-.87-2.14-3-3.23-3.53-3.86-.37-.4 1.51-.58 3.86 1.23s3.32.46 2.81-.59-3.49-1.95-4.48-1.66-1.11-.33-1.11-.33zM13 6.62a.59.59 0 0 0-.78.16.52.52 0 0 0 .17.74.59.59 0 0 0 .78-.16.53.53 0 0 0-.17-.74zM12.32 5.32a.58.58 0 0 0-.78.16.51.51 0 0 0 .17.73.58.58 0 0 0 .78-.16.51.51 0 0 0-.17-.73zM11.2 4a.6.6 0 0 0-.78.16.52.52 0 0 0 .17.74.59.59 0 0 0 .78-.16.53.53 0 0 0-.17-.74zM13.15 2.37a.58.58 0 0 0-.78.16.51.51 0 0 0 .17.73.58.58 0 0 0 .78-.16.52.52 0 0 0-.17-.73zM14.4 3.92a.58.58 0 0 0-.78.16.51.51 0 0 0 .17.73.58.58 0 0 0 .78-.16.52.52 0 0 0-.17-.73zM15.33 5.47a.57.57 0 0 0-.77.16.5.5 0 0 0 .17.73.57.57 0 0 0 .77-.16.51.51 0 0 0-.17-.73zM10.44 10.78a8.13 8.13 0 0 1 2.35 2.13c.88 1.28.87 1.81.68 1.74a6.38 6.38 0 0 0-1.64-2.56c-1.37-1.15-1.56-1.27-1.39-1.31zM15.35 22.77a7.36 7.36 0 0 1-.87-3c-.05-1.52.24-2 .36-1.83a6.2 6.2 0 0 0 0 3c.55 1.66.65 1.85.49 1.8zM7.83 17.52a8.56 8.56 0 0 1 3-1.1c1.6-.19 2.1 0 2 .17a7.34 7.34 0 0 0-3.15.31c-1.69.67-1.88.78-1.84.62zM16.34 14.72A8.23 8.23 0 0 1 18 11.79c1.13-1.23 1.72-1.39 1.69-1.19a7.42 7.42 0 0 0-2.33 2.4c-.86 1.68-.93 1.9-1 1.74z"></path><path d="M17.65 16.08a9.57 9.57 0 0 1 3.53.59c1.63.67 2 1.16 1.75 1.2a7.72 7.72 0 0 0-3.16-1.39c-2-.27-2.25-.27-2.12-.4zM15.81 16.65s.56-5.65-1.5-10-3.64-4.14-3.68-3.55 2.09 1 3.14 4.61 1 6 .29 7.59.69 3.57 1.75 1.4z"></path><path d="M16.68 17.78a8.42 8.42 0 0 0 1.23 2.6c.89 1.2 2.27 3.61 1.37 5.15a1.44 1.44 0 0 1-.83.67c0 .54-.28 1.39-1.74 1.64a2.52 2.52 0 0 1-2.5-1c-.56 0-1.43-.32-2.42-1.91-1.68-2.7.31-5.89 1.16-6.35s1.42-.42 1.12.24-1.77 3.46.2 4.54 2.88-.83 1.82-2.77-.32-3.93.59-2.77zM12.23 15.51s-3-1.79-5.89-.43-2.81 2.76-2.44 3.61a2.07 2.07 0 0 0-.17 2.08C4.24 22 6 22 7 21.54a1.64 1.64 0 0 0 1.69.16c1-.72 1.65-2.65 3.17-3.34s1.66-.63 1.19-1.13-2.67-.48-3.9.6-2.78.64-2-.78a3 3 0 0 1 3.17-1.52c1.06.11 2.26.49 1.89 0zM14 13.76s0-3.68-2.74-5.64A3.58 3.58 0 0 0 7 8a1.89 1.89 0 0 0-2 .24c-1 1-1 2.25 0 2.84-.24.74-.08 1.77 1.53 2.07 2.72.52 3.31-.13 4.61.63S12.83 15.19 13 15s.4-.8-.8-1.75-3.31-1-2.51-2.6 3.18.84 3.39 1.78.87 2 1 1.29zM20.32 13.41c2.22-.73 3.49-1.68 3.58-2.81a1.84 1.84 0 0 0-.39-1.27 1.34 1.34 0 0 0 .21-1.58 2.45 2.45 0 0 0-3.48-.83 1.55 1.55 0 0 0-.92-.23c-1.26 0-2.49 1.07-2.82 3.5s-.27 3.62.28 2.82 1.22-3.44 2.73-2.85S19.24 12 18.16 13c-4.94 4.32 2 .51 2.16.45z"></path><path d="M31.07 15.53a15.54 15.54 0 1 0-15.54 15.54 15.71 15.71 0 0 0 3.17-.32 15.67 15.67 0 0 1-2.58.22 14.72 14.72 0 1 1 14-10 15.46 15.46 0 0 0 .95-5.44z"></path></g></g></svg></g>
        </g><g id="shape_lSbfbSNQA2"   ref="shape_lSbfbSNQA2" key="shape_lSbfbSNQA2" transform="translate(318.66999938964506,281.65335823059) rotate(0,138.67919677734,121.441948913574) scale(1,1)" style="cursor:move;display:inline;opacity:1;" filter="">
            <g style="display:inline"><svg xmlns="http://www.w3.org/2000/svg" version="1.1" xmlns:xlink="http://www.w3.org/1999/xlink" width="230.32" height="231.96730468750002" viewBox="0 0 230.32 231.96730468750002" preserveAspectRatio="none" data-parent="shape_lSbfbSNQA2"><rect fill="rgba(0,0,0,0)" width="101" height="32" x="32.33" y="99.98365234375"></rect><g data-width="100.63659667968749" transform="translate(32.511701660156255, 0)"><path d="M18.99-8.54L22.02-8.54L22.02-8.54Q21.42-4.25 18.73-1.81Q16.04 0.63 11.92 0.63L11.92 0.63Q7.12 0.63 4.27-2.68Q1.42-5.98 1.42-11.59L1.42-11.59Q1.42-17.19 4.38-20.51Q7.34-23.84 12.33-23.84L12.33-23.84Q16.26-23.84 18.79-21.82Q21.31-19.80 21.82-16.24L21.82-16.24L21.82-16.24L18.79-16.24L18.79-16.24Q18.34-18.55 16.65-19.80Q14.95-21.06 12.28-21.06L12.28-21.06Q8.79-21.06 6.72-18.49Q4.66-15.93 4.66-11.59L4.66-11.59Q4.66-6.98 6.57-4.56Q8.49-2.15 12.14-2.15L12.14-2.15Q14.84-2.15 16.62-3.81Q18.41-5.48 18.99-8.54L18.99-8.54L18.99-8.54Z" transform="translate(0 126.98365234375) skewX(0)" fill="rgb(172, 112, 50)" stroke="rgb(172, 112, 50)" stroke-width="0.054" data-glyph-w="23.3476904296875" data-glyph-h="37.0500537109375" data-glyph-ascender="29.99365234375" data-glyph-descender="-7.056401367187499"></path><path d="M2.10 0L2.10 0L2.10-23.21L2.10-23.21L3.52-23.21L4.94-23.21L4.94-23.21L4.94-14.60L4.94-14.60L4.94-14.60L5.43-15.23Q7.28-17.40 10.06-17.40L10.06-17.40Q12.85-17.40 14.37-15.88Q15.88-14.37 15.88-11.57L15.88-11.57L15.88 0L15.88 0L14.46 0L13.04 0L13.04 0L13.04-10.86Q13.04-12.96 12.23-13.88Q11.43-14.81 9.61-14.81L9.61-14.81Q7.47-14.81 6.20-13.25Q4.94-11.70 4.94-9.05L4.94-9.05L4.94-9.05L4.94 0L4.94 0L3.52 0L2.10 0Z" transform="translate(23.3476904296875 126.98365234375) skewX(0)" fill="rgb(172, 112, 50)" stroke="rgb(172, 112, 50)" stroke-width="0.054" data-glyph-w="17.980405273437498" data-glyph-h="37.0500537109375" data-glyph-ascender="29.99365234375" data-glyph-descender="-7.056401367187499"></path><path d="M5.04-16.89L5.04-16.89L5.04-6.00Q5.04-3.87 5.86-2.93Q6.68-1.99 8.52-1.99L8.52-1.99Q10.58-1.99 11.78-3.58Q12.98-5.16 12.98-7.88L12.98-7.88L12.98-7.88L12.98-16.89L12.98-16.89L14.40-16.89L15.82-16.89L15.82-16.89L15.82 0L15.82 0L14.48 0L13.12 0L13.12 0L13.12-2.57L13.12-2.57L13.12-2.57Q12.83-2.12 12.49-1.70L12.49-1.70Q10.67 0.46 7.94 0.46L7.94 0.46Q5.07 0.46 3.63-0.98Q2.19-2.42 2.19-5.29L2.19-5.29L2.19-16.89L2.19-16.89L3.62-16.89L5.04-16.89Z" transform="translate(41.328095703125 126.98365234375) skewX(0)" fill="rgb(172, 112, 50)" stroke="rgb(172, 112, 50)" stroke-width="0.054" data-glyph-w="17.980405273437498" data-glyph-h="37.0500537109375" data-glyph-ascender="29.99365234375" data-glyph-descender="-7.056401367187499"></path><path d="M0.36 0L0.36 0L6.36-8.71L6.36-8.71L0.68-16.89L0.68-16.89L2.51-16.89L4.34-16.89L4.34-16.89L8.22-10.88L8.22-10.88L8.22-10.88L12.14-16.89L12.14-16.89L13.89-16.89L15.66-16.89L15.66-16.89L9.98-8.67L9.98-8.67L15.85 0L15.85 0L14.08 0L12.30 0L12.30 0L8.08-6.44L8.08-6.44L8.08-6.44L3.95 0L3.95 0L2.16 0L0.36 0Z" transform="translate(59.3085009765625 126.98365234375) skewX(0)" fill="rgb(172, 112, 50)" stroke="rgb(172, 112, 50)" stroke-width="0.054" data-glyph-w="16.165" data-glyph-h="37.0500537109375" data-glyph-ascender="29.99365234375" data-glyph-descender="-7.056401367187499"></path><path d="M2.19 0L2.19 0L2.19-16.89L2.19-16.89L3.62-16.89L5.04-16.89L5.04-16.89L5.04 0L5.04 0L3.62 0L2.19 0ZM2.16-19.99L2.16-23.21L5.07-23.21L5.07-19.99L2.16-19.99Z" transform="translate(75.47350097656249 126.98365234375) skewX(0)" fill="rgb(172, 112, 50)" stroke="rgb(172, 112, 50)" stroke-width="0.054" data-glyph-w="7.1826904296875" data-glyph-h="37.0500537109375" data-glyph-ascender="29.99365234375" data-glyph-descender="-7.056401367187499"></path><path d="M5.04-16.89L5.04-16.89L5.04-6.00Q5.04-3.87 5.86-2.93Q6.68-1.99 8.52-1.99L8.52-1.99Q10.58-1.99 11.78-3.58Q12.98-5.16 12.98-7.88L12.98-7.88L12.98-7.88L12.98-16.89L12.98-16.89L14.40-16.89L15.82-16.89L15.82-16.89L15.82 0L15.82 0L14.48 0L13.12 0L13.12 0L13.12-2.57L13.12-2.57L13.12-2.57Q12.83-2.12 12.49-1.70L12.49-1.70Q10.67 0.46 7.94 0.46L7.94 0.46Q5.07 0.46 3.63-0.98Q2.19-2.42 2.19-5.29L2.19-5.29L2.19-16.89L2.19-16.89L3.62-16.89L5.04-16.89Z" transform="translate(82.65619140624999 126.98365234375) skewX(0)" fill="rgb(172, 112, 50)" stroke="rgb(172, 112, 50)" stroke-width="0.054" data-glyph-w="17.980405273437498" data-glyph-h="37.0500537109375" data-glyph-ascender="29.99365234375" data-glyph-descender="-7.056401367187499"></path></g></svg></g>
        </g><g id="shape_HkTfiiDqmW"   ref="shape_HkTfiiDqmW" key="shape_HkTfiiDqmW" transform="translate(275.50003051758,108.7909961853) rotate(0,194,231.209) scale(1,1)" style="cursor:move;display:inline;opacity:1;" filter="">
            <g style="display:inline"><svg xmlns="http://www.w3.org/2000/svg" version="1.1" xmlns:xlink="http://www.w3.org/1999/xlink" width="378" height="462.418" viewBox="0 0 378 462.418" preserveAspectRatio="none" data-parent="shape_HkTfiiDqmW"><rect fill="rgba(0,0,0,0)" width="126" height="63" x="63" y="199.709"></rect><g data-width="126" transform="translate(63, 0)"><path d="M48.51-16.25L48.51-16.25Q50.21-16.38 52.95-15.94Q55.69-15.50 57.77-14.52Q59.85-13.54 59.85-12.16L59.85-12.16Q58.65-7.31 58.53-6.93L58.53-6.93Q57.96-5.10 57.39-2.39L57.39-2.39Q57.27-1.76 57.17-0.79Q57.08 0.19 57.02 0.69L57.02 0.69Q56.89 2.58 56.73 3.59Q56.57 4.60 56.01 5.48L56.01 5.48Q55.63 6.24 54.37 7.37Q53.11 8.51 52.23 8.51L52.23 8.51Q51.98 8.51 51.66 8.32L51.66 8.32Q50.72 7.56 50.09 6.46Q49.45 5.36 49.14 4.85L49.14 4.85Q44.48 4.85 38.78 5.17Q33.08 5.48 28.41 5.80L28.41 5.80Q21.86 6.24 20.85 6.17L20.85 6.17Q19.28 6.74 18.43 7.31Q17.58 7.88 16.70 8.69L16.70 8.69Q15.75 9.58 14.80 9.95Q13.86 10.33 11.53 10.33L11.53 10.33Q10.02 8.82 10.02 1.95L10.02 1.95Q10.02 0.06 10.14-2.83L10.14-2.83Q10.27-6.36 10.14-7.06L10.14-7.06L9.51-10.90Q9.26-11.21 8.88-11.40Q8.51-11.59 8.25-11.84Q8.00-12.10 7.81-12.66L7.81-12.66Q8.63-13.10 10.39-13.10L10.39-13.10Q13.04-13.10 16.13-12.32Q19.21-11.53 19.59-10.77L19.59-10.77Q19.66-10.52 19.28-8.51L19.28-8.51Q19.21-8.19 18.93-6.33Q18.65-4.47 18.65-2.83L18.65-2.83Q18.65 0.44 20.16 1.39L20.16 1.39Q21.86 1.39 24.25 0.95L24.25 0.95Q24.63 0.88 26.05 0.69Q27.47 0.50 28.85 0.50L28.85 0.50Q28.85-10.21 28.48-22.11L28.48-22.11Q26.14-21.61 23.75-21.61L23.75-21.61Q23.25-21.61 21.80-21.64Q20.35-21.67 18.96-21.29L18.96-21.29Q18.14-21.11 17.55-20.76Q16.95-20.41 16.44-20.03L16.44-20.03Q15.75-19.53 15.12-19.28Q14.49-19.03 13.23-18.96L13.23-18.96Q12.35-19.59 11.81-20.88Q11.28-22.18 11.28-23.31L11.28-23.31Q11.28-23.88 11.34-24.13L11.34-24.13Q11.72-25.64 11.72-29.23L11.72-29.23Q11.72-34.34 11.21-37.86L11.21-37.86Q11.03-39.12 10.65-40.38L10.65-40.38Q9.95-43.16 9.95-44.10L9.95-44.10Q10.21-44.48 11.28-44.48L11.28-44.48Q13.29-44.48 16.70-43.38Q20.10-42.27 20.60-41.52L20.60-41.52Q20.16-39.25 20.16-36.23L20.16-36.23Q20.16-32.63 20.79-28.04L20.79-28.04L20.92-26.59Q23.00-26.65 25.33-27.09L25.33-27.09Q27.03-27.47 28.60-27.59L28.60-27.59Q28.73-30.87 28.73-34.84L28.73-34.84Q28.73-40.51 28.60-42.65L28.60-42.65Q28.35-43.66 27.85-44.48Q27.34-45.30 27.28-45.42L27.28-45.42Q27.15-45.61 26.68-46.53Q26.21-47.44 26.08-48.38L26.08-48.38Q27.03-48.76 28.66-48.76L28.66-48.76Q30.74-48.76 33.14-48.23Q35.53-47.69 37.20-46.81Q38.87-45.93 38.93-44.98L38.93-44.98Q37.42-41.64 37.42-33.52L37.42-33.52L37.48-28.48Q38.81-28.54 41.83-28.54L41.83-28.54Q44.79-28.54 46.12-28.60L46.12-28.60Q47.25-30.93 47.25-35.09L47.25-35.09Q47.25-36.79 47.00-40.07L47.00-40.07Q46.94-40.89 46.87-42.05Q46.81-43.22 46.81-44.67L46.81-44.67Q47.31-44.92 48.26-44.92L48.26-44.92Q49.90-44.92 52.04-44.16Q54.18-43.41 55.76-42.21Q57.33-41.01 57.39-39.88L57.39-39.88Q56.76-39.38 56.35-37.33Q55.94-35.28 55.57-31.94L55.57-31.94Q55.19-29.04 55.06-28.60L55.06-28.60Q54.75-27.53 54.68-26.40Q54.62-25.26 54.62-25.01L54.62-25.01Q54.56-23.18 54.24-22.24Q53.93-21.29 52.67-20.79L52.67-20.79Q51.60-20.10 50.84-20.10L50.84-20.10Q50.09-20.10 49.39-20.57Q48.70-21.04 47.75-21.99L47.75-21.99Q47.25-22.55 46.62-23.12L46.62-23.12Q45.23-23.44 43.85-23.44L43.85-23.44Q42.97-23.44 40.95-23.31L40.95-23.31Q40.51-23.31 39.28-23.22Q38.05-23.12 37.23-23.25L37.23-23.25Q37.17-19.53 37.04-11.72Q36.92-3.91 36.79-0.25L36.79-0.25Q37.23-0.38 41.77-0.50Q46.30-0.63 47.50-0.57L47.50-0.57Q48.20-0.32 48.70-3.75Q49.20-7.18 49.20-11.03L49.20-11.03Q49.20-15.25 48.51-16.25L48.51-16.25ZM16.82-37.17L16.82-37.17Q16.32-37.30 14.93-37.42L14.93-37.42Q14.93-37.23 14.96-37.08Q14.99-36.92 15.06-36.85L15.06-36.85Q15.94-36.48 16.82-36.41L16.82-36.41L17.07-36.98L16.82-37.17ZM49.45-41.77L49.45-41.39L49.90-41.39L49.90-41.71L49.45-41.77Z" transform="translate(0 254.709) " fill="rgb(172, 112, 50)" stroke="rgb(172, 112, 50)" stroke-width="0.105" data-glyph-w="63" data-glyph-h="82.467" data-glyph-ascender="65.709" data-glyph-descender="-16.758"></path><path d="M54.49-36.23L54.49-36.23Q55.31-35.66 56.57-34.97L56.57-34.97Q58.40-33.89 59.44-33.01Q60.48-32.13 60.98-30.74L60.98-30.74Q60.73-31.18 60.73-26.96L60.73-26.96L60.73-21.86Q60.73-14.18 60.42-7.91Q60.10-1.64 59.03 2.65L59.03 2.65Q58.65 4.16 58.53 4.98L58.53 4.98Q58.09 7.50 57.46 8.76Q56.83 10.02 55.13 10.08L55.13 10.08Q54.94 9.83 54.34 9.58Q53.74 9.32 53.49 9.13L53.49 9.13Q54.37 9.51 52.51 7.62Q50.65 5.73 50.40 5.42L50.40 5.42Q46.62 5.29 42.27 5.89Q37.93 6.49 35.22 7.50L35.22 7.50Q34.71 7.88 34.34 8.57L34.34 8.57Q33.89 9.20 33.52 9.54Q33.14 9.89 32.70 9.89L32.70 9.89Q32.51 9.89 32.13 9.77L32.13 9.77Q31.50 9.70 30.71 8.19Q29.93 6.68 29.26 4.19Q28.60 1.70 28.35-1.07L28.35-1.07Q28.35-5.67 28.60-14.24L28.60-14.24Q28.66-16.38 28.73-19.44Q28.79-22.49 28.79-26.52L28.79-26.52Q28.79-31.37 28.66-33.89L28.66-33.89Q29.11-34.15 29.93-34.15L29.93-34.15Q32.00-34.15 34.52-31.88L34.52-31.88Q34.71-31.69 34.71-31.63L34.71-31.63Q34.90-31.82 37.23-31.25L37.23-31.25L38.56-31.63Q39.63-32.00 40.57-32.19L40.57-32.19Q40.89-30.93 40.19-39.38L40.19-39.38Q39.69-46.18 39.88-45.17L39.88-45.17Q39.56-46.56 39.00-47.38L39.00-47.38Q38.93-47.50 38.71-47.94Q38.49-48.38 38.43-49.08L38.43-49.08Q38.93-49.45 40.45-49.45L40.45-49.45Q42.27-49.45 44.57-48.98Q46.87-48.51 47.63-48.01L47.63-48.01Q48.13-47.63 48.35-47.03Q48.57-46.43 48.57-45.23L48.57-45.23Q48.57-43.91 48.26-40.95Q47.94-37.99 47.50-33.96L47.50-33.96Q48.70-34.08 49.45-34.37Q50.21-34.65 51.16-35.15L51.16-35.15Q51.34-35.28 52.26-35.69Q53.17-36.10 54.49-36.23L54.49-36.23ZM21.29-32.95L21.29-32.95Q22.43-32.57 22.68-32.51L22.68-32.51Q24.82-31.94 26.08-31.18Q27.34-30.43 27.41-28.85L27.41-28.85Q26.71-27.91 26.30-21.96Q25.89-16.00 25.89-13.10L25.89-13.10L25.83-11.91L25.64-8.51Q25.26-2.58 24.79-0.03Q24.32 2.52 22.93 2.65L22.93 2.65Q22.74 2.39 22.55 1.89Q22.36 1.39 22.24 1.07L22.24 1.07Q21.73-0.32 21.42-0.82L21.42-0.82Q21.23-1.39 21.23-2.46L21.23-2.46Q21.23-2.58 21.17-3.21Q21.11-3.84 20.85-4.28L20.85-4.28Q20.29-3.53 19.12-2.74Q17.96-1.95 16.07-0.88L16.07-0.88Q14.62-0.06 13.73 0.57L13.73 0.57Q13.04 1.13 11.78 2.90L11.78 2.90Q10.71 4.47 9.80 5.32Q8.88 6.17 7.56 6.36L7.56 6.36Q5.92 5.17 4.82 3.81Q3.72 2.46 3.53 0.57L3.53 0.57Q4.47-0.76 5.48-1.83L5.48-1.83Q5.61-2.14 5.61-5.48L5.61-5.48Q5.61-10.84 5.29-17.73Q4.98-24.63 4.54-26.27L4.54-26.27Q4.41-26.84 4.19-27.41Q3.97-27.97 3.91-28.22L3.91-28.22Q3.21-29.55 3.09-31.06L3.09-31.06Q3.59-31.25 4.54-31.25L4.54-31.25Q5.42-30.74 7.31-30.18L7.31-30.18Q8.57-29.86 9.39-29.48Q10.21-29.11 10.84-28.22L10.84-28.22Q11.34-27.66 11.34-26.46L11.34-26.46Q11.34-25.77 11.09-24.38L11.09-24.38Q10.84-23.25 10.84-22.74L10.84-22.74L11.21-3.28Q11.65-3.84 12.16-4.28L12.16-4.28Q12.73-4.79 12.95-5.29Q13.17-5.80 13.17-7.06L13.17-7.06L13.10-9.70Q12.66-32.07 12.22-33.77L12.22-33.77L12.22-40.07Q12.10-40.82 11.69-41.61Q11.28-42.40 10.84-43.03L10.84-43.03Q10.14-43.97 9.83-44.73Q9.51-45.49 9.45-46.49L9.45-46.49Q9.58-46.56 9.83-46.78Q10.08-47.00 10.84-47.06L10.84-47.06Q11.28-46.62 12.25-46.24Q13.23-45.86 14.30-45.49L14.30-45.49Q16.51-44.79 17.73-44.13Q18.96-43.47 19.34-42.34L19.34-42.34Q19.59-42.02 19.59-41.45L19.59-41.45Q19.59-41.20 19.34-39.94L19.34-39.94Q18.65-37.17 18.71-33.77L18.71-33.77Q18.90-32.57 18.90-28.98L18.90-28.98Q18.90-24.76 18.68-19.56Q18.46-14.36 18.27-13.29L18.27-13.29Q17.64-9.13 17.45-7.25L17.45-7.25Q18.08-7.37 18.99-7.69Q19.91-8.00 20.85-8.06L20.85-8.06Q20.98-13.61 20.98-16.44L20.98-16.44L21.04-20.60Q20.79-21.86 20.57-25.14Q20.35-28.41 20.35-30.68L20.35-30.68Q20.35-31.88 20.48-32.51L20.48-32.51Q20.73-32.70 20.92-32.76Q21.11-32.82 21.29-32.95L21.29-32.95ZM53.17-31.25L53.17-31.25Q53.36-31.06 53.46-31.06Q53.55-31.06 53.74-31.25L53.74-31.25L53.17-31.25ZM57.08-30.30L57.08-30.30Q57.08-28.60 57.27-28.22L57.27-28.22Q57.27-29.80 57.08-30.30L57.08-30.30ZM47.50-17.83L47.50-17.83Q48.95-17.83 50.56-18.14Q52.16-18.46 52.98-19.03L52.98-19.03Q53.55-20.66 53.55-23.31L53.55-23.31Q53.55-24.70 53.49-25.39L53.49-25.39Q53.49-25.96 53.46-26.71Q53.42-27.47 53.49-28.48L53.49-28.48L52.29-28.66Q51.85-28.92 51.09-28.92L51.09-28.92Q50.59-28.92 49.90-28.79Q49.20-28.66 48.89-28.60L48.89-28.60Q48.38-28.48 47.50-28.35L47.50-28.35L47.50-17.83ZM41.33-27.47L41.33-27.47Q40.76-27.15 39.31-27.03L39.31-27.03Q37.93-26.84 37.17-26.59Q36.41-26.33 36.10-25.70L36.10-25.70Q35.85-25.26 35.85-23.37L35.85-23.37Q35.85-21.92 35.97-19.15L35.97-19.15L36.10-16.51Q37.17-16.44 38.65-16.57Q40.13-16.70 41.14-16.95L41.14-16.95L41.33-27.47ZM31.82-19.84L31.82-19.84Q32.38-20.66 32.38-23.75L32.38-23.75Q32.38-25.39 32.26-26.40L32.26-26.40L31.63-26.40L31.56-22.74Q31.50-21.67 31.50-19.66L31.50-19.66L31.82-19.66L31.82-19.84ZM52.86-1.07L52.86-1.07Q53.55-2.08 53.55-6.62L53.55-6.62Q53.55-9.20 53.36-13.36L53.36-13.36L52.48-13.42Q51.47-13.42 50.34-13.23L50.34-13.23Q49.96-13.23 49.14-13.14Q48.32-13.04 47.63-13.04L47.63-13.04Q47.44-6.17 47.44 0.95L47.44 0.95Q49.08 1.07 49.71 1.07L49.71 1.07Q50.78 1.07 51.91 0.88L51.91 0.88Q52.10 0.63 52.35 0.38Q52.60 0.13 52.73-0.19Q52.86-0.50 52.86-1.07L52.86-1.07ZM41.01-0.95L41.01-0.95Q40.57-1.64 40.57-3.84L40.57-3.84Q40.57-4.98 40.89-9.39L40.89-9.39Q41.14-12.16 41.14-12.60L41.14-12.60Q40.76-12.60 39.75-12.47L39.75-12.47Q37.30-12.29 37.17-12.29L37.17-12.29Q36.60-12.29 35.85-12.41L35.85-12.41L35.85 3.72Q36.04 3.59 37.86 3.21L37.86 3.21Q40.57 2.52 40.82 2.39L40.82 2.39Q41.08 1.89 41.04 0.66Q41.01-0.57 41.01-0.95L41.01-0.95Z" transform="translate(63 254.709) " fill="rgb(172, 112, 50)" stroke="rgb(172, 112, 50)" stroke-width="0.105" data-glyph-w="63" data-glyph-h="82.467" data-glyph-ascender="65.709" data-glyph-descender="-16.758"></path></g></svg></g>
        </g>
  </svg>