<?xml version="1.0" standalone="no"?><!DOCTYPE svg PUBLIC "-//W3C//DTD SVG 1.1//EN" "http://www.w3.org/Graphics/SVG/1.1/DTD/svg11.dtd" [<!ENTITY nbsp " ">]><svg data-noselect="" 
  viewBox="186.37216981934 76.30374912145999 400 394.89247709241" 
  width="400" 
  height="394.89247709241" 
  ref="svg_canvas" 
  preserveAspectRatio="none" 
  version="1.1" xmlns="http://www.w3.org/2000/svg" 
  style="background: #ffffff;">
    <defs></defs>
    <g id="shape_dPYFwll9sm"   ref="shape_dPYFwll9sm" key="shape_dPYFwll9sm" transform="translate(275,199.90354620983) rotate(0,111.37216981934,84.6019179748) scale(1,1)" style="cursor:move;display:inline;opacity:1;" filter="">
            <g style="display:inline"><rect fill="rgba(0,0,0,0)" width="242.74433963868" height="189.2038359496" x="-10" y="-10"></rect><svg version="1.1" id="图层_1" xmlns="http://www.w3.org/2000/svg" xmlns:xlink="http://www.w3.org/1999/xlink" x="0px" y="0px" width="222.74433963868" height="169.2038359496" viewBox="0 0 168.7 128.15" style="enable-background:new 0 0 168.7 128.15;" xml:space="preserve" class="style-removed" preserveAspectRatio="none" data-parent="shape_dPYFwll9sm">

<g>
	<g>
		<path d="M5.93,64.49c0,7.8,1.28,15.3,3.63,22.32h1.51c-2.4-7-3.71-14.51-3.71-22.32c0-26.42,14.95-49.42,36.83-60.97
			V1.91C21.49,13.59,5.93,37.26,5.93,64.49z M145.16,65.99c-0.57,26.66-16.35,49.63-38.99,60.58v1.58
			c23.45-11.06,39.85-34.7,40.42-62.16H145.16z M104.34,0v1.57c10.27,4.59,19.22,11.63,26.09,20.37c0.43-0.24,0.88-0.44,1.35-0.6
			C124.6,12.12,115.18,4.73,104.34,0z M18.72,102.34h-1.71c2.45,3.82,5.25,7.39,8.37,10.65v-2.09
			C22.94,108.23,20.71,105.37,18.72,102.34z" fill="#85321c" stroke-width="0"></path>
	</g>
	<g>
		<g>
			<path d="M168.7,34.95c0,0.95-0.77,1.72-1.71,1.72h-24.06c-0.75,0-1.35,0.6-1.35,1.35s0.6,1.35,1.35,1.35h8.73
				c0.97,0,1.77,0.79,1.77,1.77c0,0.97-0.8,1.76-1.77,1.76h-43.88c-0.89,0-1.61-0.72-1.61-1.61s0.72-1.61,1.61-1.61h21.43
				c0.92,0,1.66-0.74,1.66-1.66c0-0.92-0.74-1.66-1.66-1.66h-4.62c-0.89,0-1.61-0.72-1.61-1.61c0-0.89,0.72-1.61,1.61-1.61h12.88
				c0.05,0,0.1,0,0.15-0.01c0.56-0.07,1-0.53,1.04-1.09c0.01-0.03,0.01-0.07,0.01-0.1c0-0.45-0.25-0.83-0.61-1.03
				c-0.17-0.1-0.38-0.16-0.59-0.16h-2.84c-0.7,0-1.26-0.57-1.26-1.26c0-0.7,0.56-1.26,1.26-1.26h22c0.7,0,1.26,0.56,1.26,1.26
				c0,0.69-0.56,1.26-1.26,1.26h-3.1c-0.69,0-1.25,0.55-1.25,1.24s0.56,1.25,1.25,1.25h13.46C167.93,33.24,168.7,34.01,168.7,34.95z
				" fill="#85321c" stroke-width="0"></path>
		</g>
	</g>
	<g>
		<g>
			<path d="M29.13,96.84c0,0.76-0.62,1.38-1.38,1.38H1.39C0.62,98.22,0,97.6,0,96.84v-0.11c0-0.76,0.62-1.38,1.39-1.38
				H9.1c0.74,0,1.33-0.6,1.33-1.33c0-0.74-0.59-1.33-1.33-1.33H6.36c-0.48,0-0.88-0.4-0.88-0.88c0-0.48,0.4-0.88,0.88-0.88h15.88
				c0.56,0,1.01,0.45,1.01,1.01s-0.45,1.01-1.01,1.01H19.4c-0.69,0-1.25,0.56-1.25,1.25c0,0.69,0.56,1.25,1.25,1.25h8.35
				C28.51,95.45,29.13,96.07,29.13,96.84z" fill="#85321c" stroke-width="0"></path>
		</g>
	</g>
</g>
</svg></g>
        </g><g id="shape_73YFf4TK5a"   ref="shape_73YFf4TK5a" key="shape_73YFf4TK5a" transform="translate(230.26433417945503,-130.25625087854002) rotate(0,149.83545050551402,343.56) scale(1,1)" style="cursor:move;display:inline;opacity:1;" filter="">
            <g style="display:inline"><svg xmlns="http://www.w3.org/2000/svg" version="1.1" xmlns:xlink="http://www.w3.org/1999/xlink" width="477.56" height="687.12" viewBox="0 0 477.56 687.12" preserveAspectRatio="none" data-parent="shape_73YFf4TK5a"><rect fill="rgba(0,0,0,0)" width="96" height="114" x="95.39" y="286.56"></rect><g data-width="95.39" transform="translate(95.695, 0)"><path d="M31.96-47.22L31.19-47.03L26.71-46.07Q26.33-45.98 26.28-46.12Q26.23-46.26 26.23-46.55L26.23-46.55Q26.23-48.27 26.14-49.03L26.14-49.03L25.85-52.46Q25.85-53.32 25.76-53.70L25.76-53.70L25.18-55.23L24.52-56.28Q24.23-56.57 23.70-57.00Q23.18-57.42 22.99-57.90L22.99-57.90Q22.89-57.90 22.85-57.90Q22.80-57.90 22.80-58.00L22.80-58.00L22.51-58.19Q22.42-58.38 22.32-58.62Q22.23-58.86 22.13-59.14L22.13-59.14Q22.04-59.33 21.70-59.48Q21.37-59.62 21.08-59.62L21.08-59.62Q20.89-59.62 20.56-59.48Q20.22-59.33 19.84-59.43L19.84-59.43Q19.55-59.52 19.36-59.48Q19.17-59.43 18.98-59.43L18.98-59.43Q18.89-59.43 18.70-59.24L18.70-59.24L18.60-58.28L18.31-56.18Q18.31-55.42 18.22-55.04L18.22-55.04L18.22-53.51Q18.22-52.94 18.41-51.80L18.41-51.80L18.51-50.18L18.60-47.70Q18.60-47.41 18.51-47.41L18.51-47.41Q18.22-47.22 17.84-46.55L17.84-46.55L17.74-46.17Q17.74-45.60 18.31-45.41L18.31-45.41L18.89-44.74Q19.08-44.45 19.27-43.69L19.27-43.69L19.65-43.12L19.94-42.45Q20.60-41.78 20.60-41.11L20.60-41.11Q20.60-40.92 21.08-39.68L21.08-39.68Q21.27-39.21 21.51-38.78Q21.75-38.35 21.94-38.06L21.94-38.06Q21.94-37.97 21.99-37.68Q22.04-37.39 22.42-37.39L22.42-37.39Q22.51-37.30 22.51-37.11L22.51-37.11Q22.61-36.92 22.70-36.63Q22.80-36.34 23.08-35.96L23.08-35.96Q23.47-35.29 23.90-35.06Q24.32-34.82 24.99-35.01L24.99-35.01Q26.61-35.49 27.09-35.68L27.09-35.68Q28.81-36.44 29.76-36.73L29.76-36.73Q30.62-36.82 32.15-37.20L32.15-37.20L33.58-37.49L36.53-38.06Q37.11-38.06 38.11-38.16Q39.11-38.25 39.78-38.35L39.78-38.35L42.35-38.73Q44.45-39.01 44.55-39.01L44.55-39.01L46.74-39.40L49.32-39.68Q50.75-39.97 50.84-39.97L50.84-39.97Q51.51-39.97 52.51-39.92Q53.51-39.87 54.94-39.97L54.94-39.97Q57.14-39.97 58.28-40.06L58.28-40.06L60.38-40.16Q61.05-40.16 61.77-40.02Q62.48-39.87 63.15-39.87L63.15-39.87Q63.72-39.87 64.72-40.06Q65.72-40.25 66.39-40.35L66.39-40.35Q66.77-40.35 67.44-40.83L67.44-40.83Q68.01-41.02 68.20-40.64L68.20-40.64Q68.20-40.54 68.35-40.49Q68.49-40.45 68.59-40.45L68.59-40.45L69.54-40.92Q69.63-40.92 69.83-41.11L69.83-41.11Q70.21-41.30 70.30-41.49L70.30-41.49Q70.49-41.69 70.68-42.11Q70.87-42.54 71.16-42.64L71.16-42.64Q71.35-42.73 71.73-43.12L71.73-43.12L73.07-44.36Q73.07-44.64 73.64-44.64L73.64-44.64Q74.02-44.64 74.12-44.74Q74.21-44.83 74.12-45.21L74.12-45.21L74.31-45.60Q74.31-45.88 74.50-46.26L74.50-46.26Q74.50-47.79 74.88-48.55L74.88-48.55Q74.98-48.74 75.12-48.94Q75.26-49.13 75.36-49.32L75.36-49.32Q75.45-49.79 75.45-50.75L75.45-50.75L75.45-50.94Q75.55-51.32 75.74-51.80Q75.93-52.27 76.03-52.94L76.03-52.94Q76.12-53.70 76.12-55.14L76.12-55.14L75.93-57.14Q75.74-58.86 75.45-59.71L75.45-59.71Q75.17-60.95 74.40-61.72L74.40-61.72Q74.12-62.10 73.78-62.62Q73.45-63.15 73.16-63.34L73.16-63.34Q72.50-63.91 72.02-64.67L72.02-64.67Q71.83-65.06 71.64-65.06Q71.45-65.06 71.16-64.77L71.16-64.77Q70.87-65.06 70.78-65.06L70.78-65.06L69.35-64.77L68.97-64.77Q68.87-64.77 68.44-64.67Q68.01-64.58 67.73-64.10L67.73-64.10L67.35-63.43Q67.15-63.24 66.96-62.86L66.96-62.86L66.96-62.48Q66.96-62.00 66.68-61.72L66.68-61.72L66.68-61.62L66.58-60.10L66.58-59.81L66.58-58.38Q66.58-58.09 66.53-57.66Q66.49-57.23 66.58-56.95L66.58-56.95Q66.58-56.76 66.73-56.47Q66.87-56.18 66.58-55.99L66.58-55.99Q66.49-55.99 66.53-55.90Q66.58-55.80 66.58-55.71L66.58-55.71L66.68-55.33Q66.58-54.85 66.58-54.09L66.58-54.09Q66.58-52.94 66.68-52.46L66.68-52.46L66.68-50.84Q66.68-49.51 66.96-48.94L66.96-48.94L64.58-48.94L57.62-49.32Q57.23-49.51 57.23-49.60L57.23-49.60Q57.14-49.70 57.14-49.84Q57.14-49.98 57.23-50.08L57.23-50.08Q58.09-50.65 58.28-50.75L58.28-50.75Q58.95-50.94 59.52-51.70L59.52-51.70Q60.10-52.46 59.62-53.23L59.62-53.23Q59.43-53.80 59.24-53.99L59.24-53.99L58.19-55.52L55.33-58.47L53.04-60.57L51.32-62.00L49.79-63.15Q49.41-63.43 48.46-63.82L48.46-63.82Q47.70-64.29 47.70-64.67L47.70-64.67L47.89-65.44Q47.98-65.72 47.93-65.91Q47.89-66.11 47.89-66.30L47.89-66.30L47.70-66.77L47.22-66.87Q46.84-66.87 46.45-66.49L46.45-66.49L46.26-66.39L45.50-66.01Q45.31-65.91 45.02-65.63Q44.74-65.34 44.36-65.44L44.36-65.44Q44.45-65.53 44.45-65.82L44.45-65.82Q44.45-66.11 44.26-66.30L44.26-66.30Q44.26-66.39 44.12-66.34Q43.97-66.30 43.88-66.20L43.88-66.20Q43.59-66.20 43.16-65.77Q42.73-65.34 42.35-65.34L42.35-65.34Q42.16-65.25 41.40-64.29L41.40-64.29L40.54-63.15L38.63-60.76Q38.25-60.00 37.97-59.62L37.97-59.62Q37.68-59.24 37.39-58.86Q37.11-58.47 36.82-58.09L36.82-58.09L34.72-55.04L34.63-54.85L33.20-52.46Q33.00-52.08 32.67-51.51Q32.34-50.94 32.05-50.27L32.05-50.27Q31.86-49.41 31.81-48.74Q31.76-48.08 31.76-47.70L31.76-47.70Q31.76-47.60 31.86-47.50Q31.96-47.41 31.96-47.22L31.96-47.22ZM71.26 1.53L71.26 1.34Q71.54 1.53 72.21 1.62Q72.88 1.72 73.16 2.00L73.16 2.00Q73.26 2.00 73.40 2.05Q73.55 2.10 73.64 2.00L73.64 2.00L75.64 1.62Q75.84 1.53 76.12 1.43Q76.41 1.34 76.69 1.34L76.69 1.34L77.08 1.34Q77.46 1.34 78.41 0.95L78.41 0.95L78.98 0.76Q79.65 0.57 79.84 0.19L79.84 0.19Q80.03 0 80.41 0L80.41 0L80.99 0.10Q82.32-0.38 84.04-1.72L84.04-1.72Q84.80-2.48 85.76-2.77L85.76-2.77Q85.85-2.77 86.14-3.05L86.14-3.05L87.57-4.20Q88.33-4.77 88.90-6.49L88.90-6.49Q89.09-7.06 89.05-7.82Q89.00-8.59 89.00-8.87L89.00-8.87Q89.09-9.63 89.09-11.07L89.09-11.07Q89.09-11.83 88.90-13.35L88.90-13.35L88.52-15.93Q88.33-16.50 88.33-16.79L88.33-16.79Q88.24-17.36 88.24-18.51L88.24-18.51Q88.24-19.94 88.33-20.70L88.33-20.70Q88.62-22.99 88.62-23.18L88.62-23.18Q88.62-23.66 88.62-24.71Q88.62-25.76 89.00-26.52L89.00-26.52L89.19-27.76L89.19-30.91Q89.09-32.24 89.09-34.91L89.09-34.91Q89.00-35.68 89.05-36.25Q89.09-36.82 89.09-37.20L89.09-37.20L89.09-39.40Q89.09-39.87 89.19-40.35Q89.29-40.83 89.29-41.30L89.29-41.30Q89.09-44.26 89.19-45.69L89.19-45.69L89.19-47.70L89.00-50.65Q89.00-52.75 88.90-53.80L88.90-53.80L88.90-54.37L89.19-57.23L89.29-58.28Q89.29-59.33 88.81-59.62L88.81-59.62Q88.71-59.71 88.71-59.90L88.71-59.90L88.71-60.10Q88.71-60.76 88.28-61.19Q87.85-61.62 87.76-61.72L87.76-61.72Q87.66-61.81 87.28-61.81L87.28-61.81Q86.90-62.19 86.80-62.24Q86.71-62.29 86.23-61.91L86.23-61.91L86.04-61.62Q86.04-61.24 85.95-61.14L85.95-61.14Q85.76-60.86 85.52-60.33Q85.28-59.81 84.90-59.62L84.90-59.62L84.80-59.33Q84.80-59.24 84.71-58.86Q84.61-58.47 84.80-58.19L84.80-58.19L84.80-58.09Q84.80-57.62 84.66-57.09Q84.52-56.57 84.42-56.28L84.42-56.28Q84.32-55.99 84.32-55.52L84.32-55.52L84.04-54.66Q83.47-52.66 83.47-50.65L83.47-50.65Q83.47-50.18 83.37-49.84Q83.28-49.51 83.18-49.22L83.18-49.22L82.99-48.74Q82.99-48.55 82.94-48.08Q82.89-47.60 82.51-47.22L82.51-47.22Q82.32-47.12 82.27-46.93Q82.23-46.74 82.51-46.55L82.51-46.55Q82.70-46.36 82.51-45.79L82.51-45.79Q82.51-45.69 82.37-45.69Q82.23-45.69 82.13-45.60L82.13-45.60L82.04-45.02Q81.84-43.69 81.84-43.21L81.84-43.21Q81.75-42.73 81.75-41.69L81.75-41.69L81.84-41.02Q81.84-40.73 81.56-40.25L81.56-40.25Q81.46-39.97 81.65-39.78L81.65-39.78Q81.84-39.59 81.65-39.30L81.65-39.30L81.27-37.68Q81.18-37.39 81.32-36.63Q81.46-35.87 81.27-35.49L81.27-35.49Q81.46-35.20 81.32-34.91Q81.18-34.63 81.18-34.44L81.18-34.44Q81.18-34.34 81.13-34.10Q81.08-33.86 81.18-33.77L81.18-33.77Q81.18-33.58 81.42-33.05Q81.65-32.53 81.18-32.15L81.18-32.15L81.18-31.96L81.18-31.10L81.37-28.81L81.37-28.52L81.27-27.28Q81.27-26.71 81.56-26.23L81.56-26.23Q81.65-26.23 81.61-26.18Q81.56-26.14 81.56-26.04L81.56-26.04Q81.18-25.85 81.18-25.37L81.18-25.37Q81.18-23.66 81.08-22.80L81.08-22.80L80.99-20.51L81.08-17.55L80.99-16.88Q81.08-16.31 81.08-15.07L81.08-15.07Q81.08-13.64 80.89-12.97L80.89-12.97Q80.89-12.88 80.80-12.21Q80.70-11.54 80.22-11.07L80.22-11.07Q80.03-10.87 79.65-10.64Q79.27-10.40 79.17-10.11L79.17-10.11Q79.17-10.02 78.98-10.02L78.98-10.02Q78.89-9.92 78.79-9.92Q78.70-9.92 78.70-9.83L78.70-9.83L77.74-8.78Q77.55-8.68 77.36-8.49Q77.17-8.30 76.98-8.20L76.98-8.20Q76.69-8.11 76.46-7.92Q76.22-7.73 75.93-7.63L75.93-7.63Q75.74-7.54 75.55-7.30Q75.36-7.06 75.17-6.87L75.17-6.87Q74.21-6.77 71.97-6.87Q69.73-6.96 68.39-7.06L68.39-7.06L65.06-7.35Q63.82-7.44 61.34-7.44L61.34-7.44L59.24-7.73L54.18-7.92Q53.70-8.01 52.99-8.11Q52.27-8.20 51.32-8.20L51.32-8.20L46.07-8.39L41.78-8.49Q40.35-8.49 39.35-8.39Q38.35-8.30 37.68-8.20L37.68-8.20Q36.92-8.11 36.06-7.97Q35.20-7.82 34.44-7.73L34.44-7.73L29.67-7.44Q27.47-7.25 23.28-6.30L23.28-6.30Q22.99-6.20 22.75-6.06Q22.51-5.91 22.13-5.82L22.13-5.82L20.99-5.63L17.55-4.29L15.45-3.53Q14.50-3.15 14.02-3.05L14.02-3.05Q13.16-2.67 11.45-2.10L11.45-2.10Q11.26-2.00 11.02-1.91Q10.78-1.81 10.49-1.72L10.49-1.72Q10.49-2.77 10.59-3.15L10.59-3.15Q10.68-3.72 10.92-4.53Q11.16-5.34 11.07-5.91L11.07-5.91L11.16-6.10Q11.16-6.39 11.35-6.58L11.35-6.58L11.35-7.06Q11.45-7.35 11.54-7.68Q11.64-8.01 11.64-8.49L11.64-8.49Q11.73-9.73 11.64-11.16L11.64-11.16Q11.64-12.50 11.54-13.26L11.54-13.26L11.26-15.45L11.26-16.03Q11.26-16.69 11.07-17.69Q10.87-18.70 10.78-19.46L10.78-19.46Q10.59-20.80 10.59-21.46L10.59-21.46Q10.59-21.75 10.54-22.27Q10.49-22.80 10.59-23.56L10.59-23.56L10.59-24.13Q10.59-24.80 10.40-26.52L10.40-26.52L10.30-33.58Q10.21-33.86 10.25-34.15Q10.30-34.44 10.30-34.63L10.30-34.63Q10.11-35.77 10.11-36.34L10.11-36.34L10.11-37.01Q10.11-37.20 9.97-37.63Q9.83-38.06 9.92-38.44L9.92-38.44L9.92-38.63Q9.92-39.01 9.73-39.59L9.73-39.59L9.63-40.35L9.54-43.88L9.44-48.55L9.54-50.75L9.63-52.08Q9.63-52.18 9.59-52.42Q9.54-52.66 9.63-53.04L9.63-53.04L10.49-57.33Q10.59-57.52 10.45-57.81Q10.30-58.09 10.30-58.19L10.30-58.19Q10.21-58.47 9.97-58.47Q9.73-58.47 9.54-58.19L9.54-58.19Q9.35-57.90 9.16-57.33L9.16-57.33Q9.16-57.23 8.87-56.71Q8.59-56.18 7.92-56.09L7.92-56.09Q7.73-56.09 7.73-55.80L7.73-55.80Q7.15-54.18 7.15-53.99L7.15-53.99Q6.49-51.03 6.39-50.18L6.39-50.18Q6.30-49.32 6.20-47.98Q6.10-46.65 6.10-45.98L6.10-45.98L6.20-43.21L6.10-40.83L6.10-39.87L6.10-38.35Q6.01-37.77 6.01-36.63L6.01-36.63L6.20-36.44Q5.82-35.87 6.10-35.58L6.10-35.58Q6.20-35.49 6.15-35.44Q6.10-35.39 6.10-35.29L6.10-35.29Q6.01-35.10 6.01-34.72L6.01-34.72Q5.91-33.96 5.91-32.53L5.91-32.53L5.91-31.67L6.01-30.52Q6.01-28.24 6.10-27.09L6.10-27.09Q6.10-26.23 6.20-24.90Q6.30-23.56 6.20-22.70L6.20-22.70Q6.20-22.32 6.30-22.04Q6.39-21.75 6.49-21.56L6.49-21.56L6.39-21.27L6.39-20.03L6.58-18.41L6.68-15.93Q6.87-15.17 6.77-14.98L6.77-14.98Q6.68-14.59 6.72-14.07Q6.77-13.55 6.77-13.26L6.77-13.26L6.77-12.50L6.68-10.11Q6.68-7.73 6.49-6.58L6.49-6.58Q6.49-6.30 6.34-5.44Q6.20-4.58 6.39-3.82L6.39-3.82L6.49-2.48L6.49-2.19Q6.49-1.53 6.68-0.81Q6.87-0.10 6.96 0.19L6.96 0.19Q7.06 0.57 7.30 0.91Q7.54 1.24 7.92 1.24L7.92 1.24Q8.01 1.24 8.06 1.38Q8.11 1.53 8.11 1.62L8.11 1.62Q8.20 1.81 8.20 2.19Q8.20 2.58 8.30 2.77L8.30 2.77Q8.59 3.43 9.54 4.39L9.54 4.39Q10.11 4.77 10.78 4.96L10.78 4.96Q11.07 4.96 11.64 5.10Q12.21 5.25 12.59 4.86L12.59 4.86L12.97 4.58L13.55 4.20L14.69 4.01L16.79 3.34L20.13 2.19Q21.56 1.72 22.61 1.43L22.61 1.43Q24.32 1.05 25.18 0.95L25.18 0.95Q26.71 0.76 27.47 0.76L27.47 0.76Q28.52 0.67 30.43 0.67L30.43 0.67Q32.34 0.48 33.20 0.48L33.20 0.48Q34.53 0.48 37.39 0.67L37.39 0.67Q39.11 0.76 42.54 1.14L42.54 1.14L45.60 1.43Q46.65 1.53 48.84 1.53L48.84 1.53Q52.85 1.91 54.85 2.00L54.85 2.00L59.52 2.29Q60.29 2.38 61.91 2.38L61.91 2.38L67.44 2.29L68.49 2.29Q69.25 2.29 70.87 1.81L70.87 1.81L71.26 1.53ZM45.21-60.67L46.74-59.33L48.17-58.00L51.03-55.33Q51.03-55.33 53.04-53.04L53.04-53.04Q53.23-52.85 53.70-52.37Q54.18-51.89 54.37-51.42L54.37-51.42Q54.85-50.27 56.09-49.70L56.09-49.70Q56.09-49.70 56.14-49.60Q56.18-49.51 56.18-49.32L56.18-49.32L55.23-49.32Q54.37-49.32 53.13-49.36Q51.89-49.41 50.27-49.32L50.27-49.32Q49.41-49.32 48.32-49.17Q47.22-49.03 46.45-48.94L46.45-48.94Q46.07-48.84 45.50-48.84L45.50-48.84L43.02-48.46L39.21-47.98Q38.54-47.89 37.20-47.89L37.20-47.89L37.11-47.98L37.39-48.46Q37.87-49.03 38.63-50.18L38.63-50.18Q39.40-51.22 40.02-52.04Q40.64-52.85 41.02-53.42L41.02-53.42Q41.59-54.56 41.97-55.04L41.97-55.04L42.64-56.09Q43.02-56.76 43.35-57.42Q43.69-58.09 43.97-58.57L43.97-58.57L45.21-60.67ZM43.88-37.87L43.21-37.68Q42.93-37.49 42.64-37.15Q42.35-36.82 42.07-36.63L42.07-36.63Q41.59-36.34 41.26-35.72Q40.92-35.10 40.64-34.82L40.64-34.82Q39.87-33.86 39.78-33.29L39.78-33.29Q39.78-33.29 39.73-33.24Q39.68-33.20 39.68-33.20L39.68-33.20Q39.40-33.00 39.21-32.43Q39.01-31.86 38.73-31.67L38.73-31.67Q38.44-31.38 37.97-30.33L37.97-30.33L36.53-26.90Q36.44-26.71 36.34-26.47Q36.25-26.23 36.15-26.04L36.15-26.04L35.20-23.47Q35.10-23.28 35.01-23.08Q34.91-22.89 34.72-22.70L34.72-22.70Q34.53-22.61 34.34-22.13L34.34-22.13Q34.34-22.04 34.39-21.94Q34.44-21.84 34.34-21.75L34.34-21.75Q34.15-21.46 34.01-21.03Q33.86-20.60 33.77-20.41L33.77-20.41Q33.58-19.46 33.34-18.74Q33.10-18.03 32.91-17.55L32.91-17.55L32.91-17.17Q32.91-16.50 33.00-16.12L33.00-16.12L33.20-15.93Q33.39-15.83 33.67-15.69Q33.96-15.55 34.25-15.55L34.25-15.55Q34.82-15.45 34.82-14.59L34.82-14.59Q34.82-13.74 35.20-13.45L35.20-13.45Q35.39-13.55 35.63-13.64Q35.87-13.74 36.15-13.83L36.15-13.83Q36.34-13.93 36.73-14.31L36.73-14.31Q37.87-16.12 38.16-16.79L38.16-16.79L39.59-19.94L40.16-21.27Q40.35-21.56 41.11-23.08L41.11-23.08L41.59-24.04Q41.97-24.42 42.26-24.99L42.26-24.99Q42.45-25.56 42.97-26.33Q43.50-27.09 43.78-27.66L43.78-27.66Q44.17-28.33 44.17-29.19L44.17-29.19Q44.17-29.57 44.55-30.14L44.55-30.14Q44.83-30.33 44.83-30.52L44.83-30.52L45.02-31.96L45.12-33.20Q45.12-33.58 45.21-33.77L45.21-33.77Q45.21-33.96 45.31-34.05L45.31-34.05L45.31-34.82L45.41-34.91L45.69-34.15Q45.88-33.39 46.07-33.10L46.07-33.10Q46.26-32.43 46.60-31.81Q46.93-31.19 47.12-30.52L47.12-30.52Q47.41-29.48 48.55-27.76L48.55-27.76Q49.22-26.61 50.75-24.32L50.75-24.32Q50.94-24.04 51.51-23.18Q52.08-22.32 51.99-21.27L51.99-21.27L52.08-21.08Q52.18-20.99 52.46-20.65Q52.75-20.32 52.66-19.84L52.66-19.84Q52.56-19.75 52.70-19.51Q52.85-19.27 53.04-19.17L53.04-19.17Q53.80-18.98 54.28-18.98L54.28-18.98Q54.37-18.89 54.66-19.08L54.66-19.08Q54.75-19.55 55.33-20.17Q55.90-20.80 55.99-21.18L55.99-21.18Q56.57-21.56 56.76-22.70L56.76-22.70Q56.95-23.75 56.76-24.23L56.76-24.23Q56.28-25.28 55.80-26.04Q55.33-26.80 55.04-27.38L55.04-27.38L53.32-30.43Q52.94-31.00 52.85-31.29L52.85-31.29L51.70-33.48Q51.13-35.01 49.89-35.68L49.89-35.68Q48.84-36.25 48.65-36.34L48.65-36.34L47.70-37.39Q47.60-37.11 47.31-37.01L47.31-37.01Q47.22-36.92 46.93-36.92L46.93-36.92Q46.65-37.11 46.36-37.25Q46.07-37.39 45.69-37.30L45.69-37.30Q45.69-37.39 45.74-37.54Q45.79-37.68 45.69-37.87L45.69-37.87Q45.50-38.25 45.41-38.25L45.41-38.25Q45.12-38.35 44.93-38.16L44.93-38.16Q44.93-38.16 44.55-37.77L44.55-37.77Q43.97-37.20 43.88-37.87L43.88-37.87Z" transform="translate(0 381.56) " fill="#85321C" stroke="#85321C" stroke-width="0.159" data-glyph-w="95.39" data-glyph-h="114.468" data-glyph-ascender="95.39" data-glyph-descender="-19.078"></path></g></svg></g>
        </g><g id="shape_p3psFeecxV"   ref="shape_p3psFeecxV" key="shape_p3psFeecxV" transform="translate(203.04119450742004,-64.44377378613001) rotate(0,179.68757998165,390.64) scale(1,1)" style="cursor:move;display:inline;opacity:1;" filter="">
            <g style="display:inline"><svg xmlns="http://www.w3.org/2000/svg" version="1.1" xmlns:xlink="http://www.w3.org/1999/xlink" width="542.64" height="781.28" viewBox="0 0 542.64 781.28" preserveAspectRatio="none" data-parent="shape_p3psFeecxV"><rect fill="rgba(0,0,0,0)" width="109" height="130" x="108.41" y="325.64"></rect><g data-width="108.41" transform="translate(108.705, 0)"><path d="M89.55 1.19L91.39 0.22L92.04-0.76Q92.26-1.19 92.20-1.36Q92.15-1.52 91.71-1.63L91.71-1.63Q89.98-2.06 89.44-2.49L89.44-2.49Q88.90-2.93 88.08-3.25Q87.27-3.58 86.84-3.79L86.84-3.79Q86.08-4.23 84.78-4.23L84.78-4.23Q84.02-4.34 82.39-4.34L82.39-4.34L80.01-4.34L77.19-4.34L75.13-4.34L75.89-7.16L76.00-7.37L76.86-9.43Q77.51-11.38 78.16-12.14L78.16-12.14Q78.27-12.25 78.43-12.30Q78.60-12.36 78.71-12.58L78.71-12.58L79.03-13.66Q79.46-14.96 79.57-15.61L79.57-15.61Q79.68-16.15 80.11-16.80L80.11-16.80Q80.33-17.02 80.66-17.02L80.66-17.02Q80.98-17.02 81.47-16.97Q81.96-16.91 82.61-17.02L82.61-17.02L84.78-17.02L85.10-17.02Q85.54-17.02 86.08-17.13Q86.62-17.24 87.05-17.13L87.05-17.13L87.60-17.13Q88.57-17.13 89.11-17.24L89.11-17.24Q90.09-17.24 92.04-17.45L92.04-17.45Q92.15-17.45 92.26-17.56Q92.37-17.67 92.58-17.67L92.58-17.67L94.21-17.67Q94.86-17.78 95.94-17.78L95.94-17.78Q96.70-17.89 96.38-18.54L96.38-18.54Q96.27-18.75 96.27-19.08L96.27-19.08Q96.27-19.62 97.03-19.73L97.03-19.73L97.24-19.73Q97.89-19.73 97.89-19.08L97.89-19.08L97.89-18.43L97.57-14.42L97.68-13.55L97.68-10.84Q97.68-9.87 97.89-7.91L97.89-7.91Q97.89-7.59 97.79-7.48L97.79-7.48L96.81-5.53Q96.70-5.42 96.70-5.20L96.70-5.20Q96.70-4.44 97.35-4.77L97.35-4.77Q97.89-4.99 97.89-4.44L97.89-4.44L98.00-4.23Q98.44-4.12 98.44-3.58L98.44-3.58Q98.44-3.25 98.60-3.25Q98.76-3.25 98.87-3.25L98.87-3.25Q99.63-3.47 100.06-4.66L100.06-4.66Q100.50-5.31 100.71-6.72L100.71-6.72Q100.93-7.48 101.69-7.70L101.69-7.70Q102.01-8.02 102.01-8.13L102.01-8.13Q102.34-9.11 102.77-11.06L102.77-11.06L103.64-14.74L104.29-18.00L104.29-18.54Q104.40-19.19 104.40-20.60L104.40-20.60L104.62-22.77L104.62-24.39Q104.83-25.69 104.83-26.45L104.83-26.45L104.72-29.05Q104.62-29.81 104.62-31.44L104.62-31.44L104.51-32.63L104.07-34.58L103.86-35.34Q103.86-35.56 103.80-35.78Q103.75-35.99 103.86-36.32L103.86-36.32Q103.97-36.53 103.97-36.97L103.97-36.97Q103.97-37.62 103.31-38.05L103.31-38.05Q103.31-38.16 103.15-38.32Q102.99-38.49 103.21-38.70L103.21-38.70Q103.42-38.92 103.42-39.46L103.42-39.46Q103.42-39.68 103.37-40.17Q103.31-40.65 102.77-40.87L102.77-40.87Q102.77-40.87 102.56-41.09L102.56-41.09Q102.56-41.30 102.34-41.30L102.34-41.30Q102.01-41.20 101.69-41.74L101.69-41.74L101.36-41.95L98.00-43.15L97.35-43.36L96.05-43.69Q95.40-43.91 94.53-44.12L94.53-44.12Q93.45-44.12 92.91-44.34L92.91-44.34L91.28-44.66Q90.96-44.66 90.85-44.77L90.85-44.77Q90.41-45.21 89.87-44.88L89.87-44.88Q89.66-44.77 89.38-44.77Q89.11-44.77 89.00-44.88L89.00-44.88Q88.68-45.10 88.03-45.26Q87.38-45.42 87.05-45.64L87.05-45.64L86.84-45.64L85.43-45.64L82.83-45.64Q79.25-45.64 77.40-45.53L77.40-45.53Q76.97-45.53 76.97-45.97L76.97-45.97Q76.97-46.62 76.86-46.94L76.86-46.94L76.86-47.48L77.19-49.54Q77.19-50.19 77.73-50.30L77.73-50.30Q78.60-50.41 78.60-51.39L78.60-51.39L78.49-53.77Q78.49-54.96 77.84-55.29L77.84-55.29L77.73-55.51L77.40-57.24Q77.19-58.76 77.19-59.30L77.19-59.30Q77.19-60.71 77.40-63.53L77.40-63.53L77.40-64.61L77.51-65.59L77.40-66.89Q77.40-69.17 77.30-70.25L77.30-70.25Q77.30-71.44 77.40-71.98L77.40-71.98Q77.40-72.20 77.51-72.31L77.51-72.31Q77.73-72.74 77.73-73.07L77.73-73.07Q77.51-74.91 76.86-76.00L76.86-76.00Q76.86-76.10 76.75-76.43Q76.65-76.75 76.32-76.86L76.32-76.86Q76.10-76.97 75.56-77.51L75.56-77.51L75.02-77.62Q74.91-77.73 74.59-77.73L74.59-77.73Q74.37-77.62 74.04-77.62L74.04-77.62Q73.83-77.62 72.85-77.95L72.85-77.95Q72.42-78.16 72.20-78.06L72.20-78.06Q72.09-78.06 71.98-77.84Q71.88-77.62 71.88-77.51L71.88-77.51L71.88-77.19Q71.88-76.75 71.71-76.21Q71.55-75.67 71.44-75.24L71.44-75.24L71.33-74.37L71.33-72.63L71.23-70.68L71.23-70.47Q71.23-70.14 71.33-69.55Q71.44-68.95 71.33-68.52L71.33-68.52L71.55-68.08Q71.66-67.86 71.82-67.38Q71.98-66.89 71.98-66.67L71.98-66.67Q71.77-64.83 71.12-61.14L71.12-61.14Q70.90-60.17 70.63-58.92Q70.36-57.67 70.14-56.16L70.14-56.16L69.49-50.30L69.06-44.77Q69.06-44.34 68.52-44.12L68.52-44.12Q68.08-44.12 67.21-43.91L67.21-43.91L64.40-43.15Q63.53-42.93 62.17-42.44Q60.82-41.95 59.84-41.85L59.84-41.85Q59.41-41.74 58.87-41.47Q58.32-41.20 58.00-41.09L58.00-41.09L54.96-39.79Q54.10-39.46 52.36-38.59L52.36-38.59Q51.49-38.16 50.84-38.59L50.84-38.59Q50.30-38.92 49.87-38.59L49.87-38.59L49.33-38.27Q49.11-38.05 49.11-37.94L49.11-37.94Q49.11-37.29 48.57-36.97L48.57-36.97Q48.24-36.86 48.24-36.32L48.24-36.32Q48.24-35.99 48.78-35.99L48.78-35.99L49.22-36.10Q49.76-36.10 50.19-35.67L50.19-35.67Q50.41-35.34 50.90-34.85Q51.39-34.37 51.60-33.93L51.60-33.93Q51.71-33.61 52.09-33.07Q52.47-32.52 52.47-31.98L52.47-31.98Q52.69-30.79 53.23-30.25L53.23-30.25L53.23-30.03Q53.45-29.38 53.88-29.27L53.88-29.27Q54.31-29.16 54.58-28.95Q54.86-28.73 55.07-28.62L55.07-28.62Q55.51-28.40 55.61-28.40L55.61-28.40Q55.83-28.30 56.16-28.35Q56.48-28.40 56.70-28.30L56.70-28.30Q57.13-28.08 57.46-28.40L57.46-28.40L58.00-28.84Q60.06-30.25 60.38-30.46L60.38-30.46Q61.36-31.11 62.55-31.44L62.55-31.44Q62.88-31.66 63.75-31.87L63.75-31.87L64.07-31.98L66.24-32.31Q66.24-31.98 66.89-32.20L66.89-32.20L67.97-32.52L69.27-32.74L69.49-31.66L69.82-26.67Q69.92-25.80 69.92-23.96L69.92-23.96Q70.14-23.42 69.49-23.31L69.49-23.31L67.65-22.98Q64.18-22.33 62.23-22.33L62.23-22.33Q61.47-22.33 61.47-22.98L61.47-22.98Q61.47-23.52 60.93-23.85L60.93-23.85Q59.95-24.93 59.73-25.37L59.73-25.37Q59.73-25.48 59.41-25.80L59.41-25.80Q58.11-26.56 57.89-26.78L57.89-26.78Q57.46-27.21 56.48-27.21L56.48-27.21Q56.16-27.21 56.16-27.32L56.16-27.32Q55.40-27.86 54.86-27.86L54.86-27.86Q54.53-27.86 53.88-27.64L53.88-27.64Q53.66-27.54 53.61-27.27Q53.55-26.99 53.77-26.89L53.77-26.89Q54.20-26.67 54.26-26.34Q54.31-26.02 54.20-25.58L54.20-25.58L54.20-24.93Q54.20-23.96 53.88-23.52L53.88-23.52L53.88-23.31Q53.99-22.44 53.99-20.81L53.99-20.81L53.88-18.10L53.88-15.07L53.88-11.60L53.88-8.67Q53.88-6.72 54.64-5.20L54.64-5.20Q54.64-4.66 54.86-4.44L54.86-4.44Q55.07-4.23 55.34-3.74Q55.61-3.25 56.05-3.14L56.05-3.14L56.70-2.71L56.48-2.60Q55.94-2.49 54.86-2.06L54.86-2.06Q54.53-1.73 54.53-1.73L54.53-1.73L54.53-1.63Q54.53-1.19 54.86-0.87Q55.18-0.54 55.61-0.33L55.61-0.33L56.05 0Q56.16 0.11 56.21 0.33Q56.26 0.54 56.48 0.65L56.48 0.65Q57.02 0.87 58.00 2.17L58.00 2.17Q58.54 2.82 59.84 3.69L59.84 3.69Q60.28 4.12 60.71 3.58L60.71 3.58L61.03 3.36L63.20 3.04Q63.85 2.93 64.72 2.82Q65.59 2.71 66.78 2.71L66.78 2.71L67.86 2.71Q69.92 2.71 71.01 2.93L71.01 2.93Q71.12 2.93 71.55 2.87Q71.98 2.82 72.31 2.93L72.31 2.93Q74.26 3.36 75.24 3.47L75.24 3.47Q76.21 3.69 78.60 3.90L78.60 3.90L81.42 4.12Q82.50 4.12 83.04 4.01L83.04 4.01Q83.80 4.01 84.34 3.90Q84.89 3.79 85.32 3.69L85.32 3.69Q85.75 3.58 86.46 3.41Q87.16 3.25 87.70 3.04L87.70 3.04Q88.03 2.93 88.79 2.39Q89.55 1.84 90.20 1.95L90.20 1.95L90.20 1.73Q89.98 1.63 89.55 1.19L89.55 1.19ZM14.85-9.32L14.09-9.32Q12.90-9.32 11.71-9.65L11.71-9.65L11.49-9.87L11.17-12.47L10.84-14.85L10.52-17.02Q10.41-17.56 10.30-18.16Q10.19-18.75 10.08-19.30L10.08-19.30Q9.54-21.25 9.76-22.55L9.76-22.55Q9.87-23.20 9.54-23.74L9.54-23.74L9.00-24.50Q8.89-24.72 8.73-24.88Q8.56-25.04 8.35-25.26L8.35-25.26L7.37-26.24Q6.83-27.10 6.61-27.21L6.61-27.21Q5.53-28.08 4.44-28.73L4.44-28.73Q4.23-28.84 3.69-28.62L3.69-28.62Q3.58-28.51 3.58-27.97L3.58-27.97Q3.69-27.64 3.79-27.16Q3.90-26.67 3.90-26.02L3.90-26.02L4.23-20.92L4.44-16.70L4.55-13.12L4.44-12.47Q3.79-11.60 3.69-11.06L3.69-11.06Q3.58-10.84 3.58-10.30L3.58-10.30Q3.58-9.32 4.23-8.46L4.23-8.46Q4.88-7.91 4.88-6.83L4.88-6.83Q4.88-5.53 5.75-4.34L5.75-4.34L6.72-2.60L6.94-2.17L9.11-0.22Q9.76 0.22 10.30-0.22L10.30-0.22Q10.73-0.65 11.38-0.98L11.38-0.98Q11.60-1.08 11.82-1.19Q12.03-1.30 12.36-1.30L12.36-1.30Q14.74-1.08 16.15-0.87L16.15-0.87Q16.37-0.87 16.86-0.81Q17.35-0.76 17.45-0.33L17.45-0.33L18.21-0.87L20.71-1.08Q22.44-1.30 23.52-1.52L23.52-1.52Q25.80-2.28 26.78-2.28L26.78-2.28Q27.32-2.28 28.02-2.33Q28.73-2.39 29.70-2.28L29.70-2.28Q30.25-2.17 30.95-2.22Q31.66-2.28 32.20-2.17L32.20-2.17L32.52-2.17Q32.96-2.17 33.82-2.44Q34.69-2.71 35.23-2.60L35.23-2.60Q35.34-2.60 35.40-2.71Q35.45-2.82 35.56-2.82L35.56-2.82L36.21-3.14Q36.86-3.14 37.08-3.25L37.08-3.25Q38.59-3.47 39.35-3.69L39.35-3.69Q40.44-4.12 40.98-4.44L40.98-4.44Q41.52-4.77 41.95-4.44L41.95-4.44Q42.06-4.34 42.23-4.34Q42.39-4.34 42.50-4.44L42.50-4.44Q43.15-5.10 43.47-4.66L43.47-4.66Q43.58-4.55 43.69-4.55Q43.80-4.55 43.80-4.66L43.80-4.66Q44.12-4.88 44.72-5.15Q45.32-5.42 45.42-6.07L45.42-6.07L45.75-6.29Q46.29-7.05 46.29-7.16L46.29-7.16Q46.62-7.70 46.72-7.81L46.72-7.81Q46.94-8.02 47.00-8.35Q47.05-8.67 47.05-8.89L47.05-8.89Q47.16-9.00 47.16-9.32L47.16-9.32Q47.16-10.19 47.59-11.71L47.59-11.71Q47.92-13.88 47.92-16.04L47.92-16.04L47.92-17.78Q47.92-19.30 47.70-20.06L47.70-20.06Q47.48-21.03 47.27-22.55L47.27-22.55L47.27-23.31Q47.27-23.96 46.94-24.28L46.94-24.28Q46.72-24.50 46.40-24.93Q46.07-25.37 45.53-25.80L45.53-25.80Q43.91-27.54 43.58-27.86L43.58-27.86Q43.36-28.08 43.26-28.08L43.26-28.08L41.74-28.62L41.09-29.05L38.59-29.27L38.38-29.16Q38.16-29.05 38.05-28.57Q37.94-28.08 38.16-27.86L38.16-27.86Q38.70-27.10 38.70-26.89L38.70-26.89Q38.92-25.15 38.92-24.18L38.92-24.18L38.81-21.68L38.81-17.78L38.70-15.18L38.70-10.41L38.27-10.19Q37.84-9.54 37.18-9.54L37.18-9.54L32.63-9.65L31.98-9.76Q32.74-10.41 32.74-11.38L32.74-11.38Q32.74-11.49 32.85-11.65Q32.96-11.82 32.96-11.93L32.96-11.93Q33.07-12.03 33.07-12.36L33.07-12.36Q33.07-13.01 33.72-13.01L33.72-13.01Q34.04-13.01 34.04-13.12L34.04-13.12Q34.47-13.98 34.47-14.42L34.47-14.42Q34.69-15.50 34.75-16.26Q34.80-17.02 34.80-17.56L34.80-17.56Q34.91-17.78 34.91-18.43L34.91-18.43Q35.12-19.95 35.12-20.81L35.12-20.81Q35.12-21.90 34.91-23.63L34.91-23.63L35.02-25.04L34.69-28.62Q34.26-31.98 33.93-33.28L33.93-33.28Q33.17-36.53 31.87-38.81L31.87-38.81Q31.11-40.55 29.92-41.41L29.92-41.41Q29.70-41.63 29.49-41.74Q29.27-41.85 29.05-41.95L29.05-41.95Q28.62-42.17 28.73-42.50L28.73-42.50L28.62-42.82L27.64-44.12Q26.99-45.10 26.99-45.10L26.99-45.10Q26.78-45.53 26.51-45.80Q26.24-46.07 25.80-46.18L25.80-46.18L25.48-46.62L24.50-48.03L23.31-49.00L23.20-48.35Q22.98-48.46 22.82-48.62Q22.66-48.78 22.55-48.89L22.55-48.89Q22.01-49.22 21.30-49.60Q20.60-49.98 20.16-50.30L20.16-50.30L19.95-50.30Q19.73-49.98 19.51-49.33L19.51-49.33L19.73-48.46Q19.95-47.81 19.95-47.48L19.95-47.48Q19.95-46.94 19.73-45.86L19.73-45.86Q19.41-44.01 18.54-40.33L18.54-40.33L18.21-38.49L17.78-37.29L17.24-34.37Q16.59-31.22 16.59-31.01L16.59-31.01L15.94-26.78L15.29-22.12Q15.18-21.68 15.23-21.25Q15.29-20.81 15.18-20.38L15.18-20.38Q15.07-19.62 14.96-18.48Q14.85-17.35 14.85-16.70L14.85-16.70L14.85-14.20L14.85-11.93L14.85-9.32ZM97.24-23.52Q95.18-24.07 93.88-24.61L93.88-24.61Q92.80-24.93 91.61-25.04Q90.41-25.15 89.98-25.15L89.98-25.15Q89.44-25.15 88.73-25.10Q88.03-25.04 87.05-25.15L87.05-25.15L84.99-25.04L80.98-24.93L79.68-24.83Q79.25-24.83 79.25-25.15L79.25-25.15Q79.03-26.45 79.03-27.10L79.03-27.10L78.60-28.73L78.49-30.14L78.38-32.41Q78.38-32.96 78.49-33.07Q78.60-33.17 79.14-33.17L79.14-33.17Q79.46-33.28 79.95-33.39Q80.44-33.50 81.09-33.50L81.09-33.50Q81.42-33.61 81.96-33.61L81.96-33.61Q82.72-33.61 83.42-33.50Q84.13-33.39 84.89-33.39L84.89-33.39Q85.54-33.39 85.86-33.50L85.86-33.50L86.62-33.39Q88.35-33.61 89.33-33.61L89.33-33.61Q89.98-33.61 90.41-33.50Q90.85-33.39 91.17-33.28L91.17-33.28Q91.50-33.28 92.37-33.07L92.37-33.07Q92.58-33.07 92.85-33.12Q93.12-33.17 93.56-33.07L93.56-33.07L95.83-32.74L96.16-32.74Q96.70-32.74 97.03-33.39L97.03-33.39Q97.03-33.50 97.35-33.82L97.35-33.82Q97.46-33.82 97.79-33.50L97.79-33.50L98.22-31.33Q98.33-30.46 98.33-28.62L98.33-28.62L98.33-24.39Q98.33-23.31 98.22-22.77L98.22-22.77L97.89-22.55Q97.14-22.55 97.24-23.52L97.24-23.52ZM29.27-13.88Q29.27-13.33 29.38-13.01L29.38-13.01Q29.38-12.90 29.92-12.14L29.92-12.14Q30.35-11.71 30.25-11.27L30.25-11.27Q30.14-11.06 30.25-10.84Q30.35-10.62 30.25-10.30L30.25-10.30Q30.68-10.19 31.01-9.87L31.01-9.87L31.01-9.76L29.60-9.76L27.21-9.65L22.66-9.65Q22.33-9.65 22.33-10.08L22.33-10.08L22.22-10.52L22.55-13.77Q22.55-14.85 22.77-17.24L22.77-17.24L23.20-19.51Q23.42-19.95 23.63-21.25L23.63-21.25Q23.74-21.90 23.85-22.55Q23.96-23.20 24.07-23.85L24.07-23.85Q24.18-24.61 24.61-25.91L24.61-25.91L25.26-29.16L25.80-30.90L25.80-31.55Q25.91-31.76 25.91-32.20L25.91-32.20L26.13-32.20Q26.34-31.55 26.56-30.25L26.56-30.25Q27.21-27.21 27.43-25.69L27.43-25.69L28.08-22.44Q28.30-21.36 28.51-20.38Q28.73-19.41 28.95-18.43L28.95-18.43Q29.05-17.89 29.27-17.07Q29.49-16.26 29.60-15.29L29.60-15.29Q29.60-14.85 29.49-14.53Q29.38-14.20 29.27-13.88L29.27-13.88ZM71.88-6.40L71.88-4.34Q71.88-4.23 71.71-4.12Q71.55-4.01 71.44-4.01L71.44-4.01L68.19-3.69L64.83-3.36Q63.75-3.14 61.14-2.93L61.14-2.93Q60.71-2.93 60.71-3.14L60.71-3.14Q60.71-3.90 60.98-4.82Q61.25-5.75 61.36-6.29L61.36-6.29L61.58-9.43L61.79-10.62L61.90-10.84L61.69-13.12Q61.69-13.77 62.23-13.77L62.23-13.77Q62.55-13.77 62.88-13.88Q63.20-13.98 63.53-13.98L63.53-13.98Q63.96-14.09 64.61-14.09Q65.26-14.09 65.70-14.20L65.70-14.20Q66.02-14.31 69.38-15.18L69.38-15.18Q69.82-15.29 70.14-14.85L70.14-14.85Q70.47-14.09 70.63-12.95Q70.79-11.82 71.01-11.17L71.01-11.17L71.88-7.26Q71.88-6.61 71.98-6.40L71.98-6.40L71.88-6.40Z" transform="translate(0 433.64) " fill="#85321C" stroke="#85321C" stroke-width="0.181" data-glyph-w="108.41" data-glyph-h="130.09199999999998" data-glyph-ascender="108.41" data-glyph-descender="-21.682"></path></g></svg></g>
        </g><g id="shape_O2MX2mr87Z"   ref="shape_O2MX2mr87Z" key="shape_O2MX2mr87Z" transform="translate(294.3253783508,218.68706418463) rotate(0,133.77440633417,56.818400000000004) scale(1,1)" style="cursor:move;display:inline;opacity:1;" filter="">
            <g style="display:inline"><svg xmlns="http://www.w3.org/2000/svg" version="1.1" xmlns:xlink="http://www.w3.org/1999/xlink" width="119.08" height="113.6368" viewBox="0 0 119.08 113.6368" preserveAspectRatio="none" data-parent="shape_O2MX2mr87Z"><rect fill="rgba(0,0,0,0)" width="56" height="18" x="15.77" y="47.818400000000004"></rect><g data-width="55.68387" transform="translate(15.77, 0)"><path d="M2.32-5.54L2.32-5.54Q2.32-4.54 2.58-3.73Q2.84-2.92 3.30-2.33Q3.77-1.75 4.42-1.44Q5.06-1.12 5.83-1.12L5.83-1.12Q6.61-1.12 7.18-1.30Q7.74-1.48 8.28-1.80L8.28-1.80L8.74-0.55Q8.15-0.24 7.40-0.02Q6.65 0.19 5.66 0.19L5.66 0.19Q4.57 0.19 3.68-0.21Q2.79-0.60 2.14-1.33Q1.50-2.07 1.14-3.11Q0.79-4.16 0.79-5.47L0.79-5.47Q0.79-6.73 1.14-7.79Q1.50-8.85 2.16-9.61Q2.82-10.38 3.76-10.80Q4.70-11.23 5.85-11.23L5.85-11.23Q6.65-11.23 7.29-11.08Q7.93-10.93 8.50-10.66L8.50-10.66L8.04-9.40Q7.55-9.64 7.04-9.78Q6.53-9.92 5.83-9.92L5.83-9.92Q5.08-9.92 4.43-9.63Q3.78-9.34 3.31-8.77Q2.84-8.20 2.58-7.39Q2.32-6.58 2.32-5.54Z" transform="translate(0 61.818400000000004) " fill="rgb(133, 50, 28)" stroke="rgb(133, 50, 28)" stroke-width="0.026" data-glyph-w="9.367379999999999" data-glyph-h="18.64014" data-glyph-ascender="14.5084" data-glyph-descender="-4.13174"></path><path d="M8.36 0L8.36-5.03L2.92-5.03L2.92 0L1.42 0L1.42-11.04L2.92-11.04L2.92-6.32L8.36-6.32L8.36-11.04L9.86-11.04L9.86 0L8.36 0Z" transform="translate(9.367379999999999 61.818400000000004) " fill="rgb(133, 50, 28)" stroke="rgb(133, 50, 28)" stroke-width="0.026" data-glyph-w="11.275549999999999" data-glyph-h="18.64014" data-glyph-ascender="14.5084" data-glyph-descender="-4.13174"></path><path d="M7.93-4.43L7.93-11.04L9.38-11.04L9.38-4.26Q9.38-3.22 9.09-2.39Q8.80-1.56 8.26-0.99Q7.71-0.41 6.95-0.11Q6.20 0.19 5.27 0.19L5.27 0.19Q3.34 0.19 2.26-0.94Q1.18-2.07 1.18-4.19L1.18-4.19L1.18-11.04L2.68-11.04L2.68-4.43Q2.68-2.84 3.32-1.98Q3.96-1.12 5.27-1.12L5.27-1.12Q6.61-1.12 7.27-1.96Q7.93-2.81 7.93-4.43L7.93-4.43Z" transform="translate(20.64293 61.818400000000004) " fill="rgb(133, 50, 28)" stroke="rgb(133, 50, 28)" stroke-width="0.026" data-glyph-w="10.5659" data-glyph-h="18.64014" data-glyph-ascender="14.5084" data-glyph-descender="-4.13174"></path><path d="M0.16-0.77L3.86-5.61L0.32-10.25L1.56-11.18L4.76-6.70L7.93-11.13L9.10-10.25L5.66-5.69L9.41-0.77L8.20 0.16L4.72-4.57L1.34 0.13L0.16-0.77Z" transform="translate(31.20883 61.818400000000004) " fill="rgb(133, 50, 28)" stroke="rgb(133, 50, 28)" stroke-width="0.026" data-glyph-w="9.57239" data-glyph-h="18.64014" data-glyph-ascender="14.5084" data-glyph-descender="-4.13174"></path><path d="M2.92 0L1.42 0L1.42-11.04L2.92-11.04L2.92 0Z" transform="translate(40.78122 61.818400000000004) " fill="rgb(133, 50, 28)" stroke="rgb(133, 50, 28)" stroke-width="0.026" data-glyph-w="4.336749999999999" data-glyph-h="18.64014" data-glyph-ascender="14.5084" data-glyph-descender="-4.13174"></path><path d="M7.93-4.43L7.93-11.04L9.38-11.04L9.38-4.26Q9.38-3.22 9.09-2.39Q8.80-1.56 8.26-0.99Q7.71-0.41 6.95-0.11Q6.20 0.19 5.27 0.19L5.27 0.19Q3.34 0.19 2.26-0.94Q1.18-2.07 1.18-4.19L1.18-4.19L1.18-11.04L2.68-11.04L2.68-4.43Q2.68-2.84 3.32-1.98Q3.96-1.12 5.27-1.12L5.27-1.12Q6.61-1.12 7.27-1.96Q7.93-2.81 7.93-4.43L7.93-4.43Z" transform="translate(45.11797 61.818400000000004) " fill="rgb(133, 50, 28)" stroke="rgb(133, 50, 28)" stroke-width="0.026" data-glyph-w="10.5659" data-glyph-h="18.64014" data-glyph-ascender="14.5084" data-glyph-descender="-4.13174"></path></g></svg></g>
        </g>
  </svg>