<?xml version="1.0" standalone="no"?><!DOCTYPE svg PUBLIC "-//W3C//DTD SVG 1.1//EN" "http://www.w3.org/Graphics/SVG/1.1/DTD/svg11.dtd" [<!ENTITY nbsp " ">]><svg data-noselect="" 
  viewBox="165.032495627285 129.55362753642 400 337.75315971444" 
  width="400" 
  height="337.75315971444" 
  ref="svg_canvas" 
  preserveAspectRatio="none" 
  version="1.1" xmlns="http://www.w3.org/2000/svg" 
  style="background: #ffffff;">
    <defs></defs>
    <g id="shape_c2nEUbCsnV"   ref="shape_c2nEUbCsnV" key="shape_c2nEUbCsnV" transform="translate(252.62780772437,209.55362753642) rotate(0,95.686096137815,88.87657985722) scale(1,1)" style="cursor:move;display:inline;opacity:1;" filter="">
            <g style="display:inline"><rect fill="rgba(0,0,0,0)" width="211.37219227563062" height="197.75315971444013" x="-10" y="-10"></rect><svg version="1.1" id="图层_1" xmlns="http://www.w3.org/2000/svg" xmlns:xlink="http://www.w3.org/1999/xlink" x="0px" y="0px" width="191.37219227563062" height="177.75315971444013" viewBox="0 0 227.78 211.57" style="enable-background:new 0 0 227.78 211.57;" xml:space="preserve" class="style-removed" preserveAspectRatio="none" data-parent="shape_c2nEUbCsnV">

<g>
	<path d="M215.63,209.92h-11H128.1c-3.13,0-5.68-2.55-5.68-5.68s2.55-5.68,5.68-5.68h14.04h11
		c4.04,0,7.33-3.29,7.33-7.33s-3.29-7.33-7.33-7.33h-11H111.5H95c-3.74,0-6.78-3.04-6.78-6.78s3.04-6.78,6.78-6.78h13.62
		c0.46,0,0.83-0.37,0.83-0.83s-0.37-0.83-0.83-0.83H95c-4.65,0-8.43,3.78-8.43,8.43s3.78,8.43,8.43,8.43h16.5h30.64
		c3.13,0,5.68,2.55,5.68,5.68c0,3.13-2.55,5.68-5.68,5.68H128.1h-11c-4.04,0-7.33,3.29-7.33,7.33s3.29,7.33,7.33,7.33h11h76.53h11
		c0.46,0,0.83-0.37,0.83-0.83S216.08,209.92,215.63,209.92z M149.47,191.22c0-2.29-1.06-4.34-2.71-5.68h6.37
		c3.13,0,5.68,2.55,5.68,5.68c0,3.13-2.55,5.68-5.68,5.68h-6.37C148.41,195.56,149.47,193.51,149.47,191.22z M117.1,209.92
		c-3.13,0-5.68-2.55-5.68-5.68s2.55-5.68,5.68-5.68h6.37c-1.65,1.35-2.71,3.39-2.71,5.68s1.06,4.34,2.71,5.68H117.1z" fill="#C69E66" stroke-width="0"></path>
	<path d="M227.76,91.84C221.61,39.48,177.16,0,124.36,0C79.3,0,40.82,28.78,26.37,68.94H7.61
		C3.42,68.94,0,72.35,0,76.55c0,4.19,3.42,7.6,7.61,7.6h14.57c-1.27,6.46-1.93,13.13-1.93,19.96c0,47.99,32.49,89.55,79.02,101.07
		c0.2,0.05,0.4,0.07,0.59,0.07c1.12,0,2.13-0.75,2.41-1.88c0.32-1.33-0.49-2.67-1.81-3c-44.31-10.96-75.26-50.55-75.26-96.26
		c0-6.79,0.69-13.42,1.99-19.83c0.01-0.04,0.02-0.09,0.03-0.13H50.2h8.53h1.47h6.38c3.13,0,5.68,2.55,5.68,5.69
		c0,3.13-2.55,5.68-5.68,5.68h-1.1H60.2h-1.45h-4.97h-7.29h-11c-4.04,0-7.33,3.29-7.33,7.34c0,4.04,3.29,7.33,7.33,7.33h11h37.6
		h2.46c0.45,0,0.82-0.37,0.82-0.82c0-0.46-0.37-0.83-0.82-0.83h-1.96h-0.5h-1.12H46.49c-3.13,0-5.68-2.55-5.68-5.68
		c0-3.14,2.55-5.69,5.68-5.69h9.09h2.11h8.89c0.34,0,0.68-0.02,1.01-0.08c3.57-0.49,6.32-3.55,6.32-7.25c0-4.05-3.29-7.34-7.33-7.34
		h-11h-7.59H27.58h-2.64h-2.43H7.61c-3.29,0-5.96-2.67-5.96-5.95c0-3.29,2.67-5.96,5.96-5.96h18.18h5.08c0.06,0,0.12-0.01,0.18-0.03
		c0.2-0.04,0.36-0.15,0.48-0.31c0.1-0.13,0.16-0.3,0.16-0.49c0-0.18-0.06-0.35-0.16-0.49C45.65,31.73,81.94,4.95,124.36,4.95
		c50.29,0,92.63,37.6,98.49,87.47c0.16,1.36,1.38,2.33,2.74,2.17C226.95,94.43,227.92,93.2,227.76,91.84z M39.16,102.86
		c0,2.29,1.06,4.34,2.71,5.68h-6.38c-3.13,0-5.68-2.55-5.68-5.68c0-3.14,2.55-5.69,5.68-5.69h6.38
		C40.22,98.51,39.16,100.56,39.16,102.86z" fill="#C69E66" stroke-width="0"></path>
</g>
</svg></g>
        </g><g id="shape_XVi7ma3NvY"   ref="shape_XVi7ma3NvY" key="shape_XVi7ma3NvY" transform="translate(260.90432858913005,70.50981383313999) rotate(0,221.83065175495,239.45000000000002) scale(1,1)" style="cursor:move;display:inline;opacity:1;" filter="">
            <g style="display:inline"><svg xmlns="http://www.w3.org/2000/svg" version="1.1" xmlns:xlink="http://www.w3.org/1999/xlink" width="400.6" height="478.9000000000001" viewBox="0 0 400.6 478.9000000000001" preserveAspectRatio="none" data-parent="shape_XVi7ma3NvY"><rect fill="rgba(0,0,0,0)" width="134" height="79" x="66.65" y="199.95000000000002"></rect><g data-width="133.3" transform="translate(66.65, 0)"><path d="M53.05-16.66L63.58-16.66L63.58 6.07Q63.58 7.80 62.42 8.96Q61.25 10.13 59.52 10.13L59.52 10.13L7.13 10.13Q5.40 10.13 4.23 8.96Q3.07 7.80 3.07 6.07L3.07 6.07L3.07-16.66L13.60-16.66L13.60 5.40Q13.60 5.80 13.90 6.10Q14.20 6.40 14.60 6.40L14.60 6.40L28.13 6.40L28.13-21.66L9.40-21.66Q7.66-21.66 6.50-22.83Q5.33-23.99 5.33-25.73L5.33-25.73L5.33-47.45L15.86-47.45L15.86-26.39Q15.86-25.99 16.16-25.69Q16.46-25.39 16.86-25.39L16.86-25.39L28.13-25.39L28.13-51.25L38.66-51.25L38.66-25.39L49.85-25.39Q50.25-25.39 50.55-25.69Q50.85-25.99 50.85-26.39L50.85-26.39L50.85-47.45L61.38-47.45L61.38-25.73Q61.38-23.99 60.22-22.83Q59.05-21.66 57.32-21.66L57.32-21.66L38.66-21.66L38.66 6.40L52.05 6.40Q52.45 6.40 52.75 6.10Q53.05 5.80 53.05 5.40L53.05 5.40L53.05-16.66Z" transform="translate(0 260.95000000000005) " fill="#c69e66" stroke="#c69e66" stroke-width="0.111" data-glyph-w="66.65" data-glyph-h="69.78255" data-glyph-ascender="57.25235" data-glyph-descender="-12.5302"></path><path d="M20.86 5.93L20.86-47.92L26.79-47.92L26.79 6.60Q26.79 8.33 25.63 9.50Q24.46 10.66 22.73 10.66L22.73 10.66L6.73 10.66Q5.00 10.66 3.83 9.50Q2.67 8.33 2.67 6.60L2.67 6.60L2.67-47.92L8.60-47.92L8.60 5.93Q8.60 6.33 8.90 6.63Q9.20 6.93 9.60 6.93L9.60 6.93L11.00 6.93L11.00-51.25L18.53-51.25L18.53 6.93L19.86 6.93Q20.26 6.93 20.56 6.63Q20.86 6.33 20.86 5.93L20.86 5.93ZM52.05-39.72L59.85-39.72Q61.58-39.72 62.75-38.56Q63.92-37.39 63.92-35.66L63.92-35.66L63.92 6.73Q63.92 8.46 62.75 9.63Q61.58 10.80 59.85 10.80L59.85 10.80L33.59 10.80Q31.86 10.80 30.69 9.63Q29.53 8.46 29.53 6.73L29.53 6.73L29.53-35.66Q29.53-37.39 30.69-38.56Q31.86-39.72 33.59-39.72L33.59-39.72L41.52-39.72L41.52-51.25L52.05-51.25L52.05-39.72ZM42.32-35.99L39.99-35.99Q39.59-35.99 39.29-35.69Q38.99-35.39 38.99-34.99L38.99-34.99L38.99-16.40L42.32-16.40L42.32-35.99ZM54.45-16.40L54.45-34.99Q54.45-35.39 54.15-35.69Q53.85-35.99 53.45-35.99L53.45-35.99L51.25-35.99L51.25-16.40L54.45-16.40ZM38.99-12.60L38.99 6.07Q38.99 6.47 39.29 6.76Q39.59 7.06 39.99 7.06L39.99 7.06L42.32 7.06L42.32-12.60L38.99-12.60ZM51.25 7.06L53.45 7.06Q53.85 7.06 54.15 6.76Q54.45 6.47 54.45 6.07L54.45 6.07L54.45-12.60L51.25-12.60L51.25 7.06Z" transform="translate(66.65 260.95000000000005) " fill="#c69e66" stroke="#c69e66" stroke-width="0.111" data-glyph-w="66.65" data-glyph-h="69.78255" data-glyph-ascender="57.25235" data-glyph-descender="-12.5302"></path></g></svg></g>
        </g><g id="shape_9fnTREfBm3"   ref="shape_9fnTREfBm3" key="shape_9fnTREfBm3" transform="translate(378.2471835302,301.12411383314) rotate(0,108.606699099738,69.8357) scale(1,1)" style="cursor:move;display:inline;opacity:1;" filter="">
            <g style="display:inline"><svg xmlns="http://www.w3.org/2000/svg" version="1.1" xmlns:xlink="http://www.w3.org/1999/xlink" width="156.76" height="139.6714" viewBox="0 0 156.76 139.6714" preserveAspectRatio="none" data-parent="shape_9fnTREfBm3"><rect fill="rgba(0,0,0,0)" width="80" height="23" x="19.19" y="58.33570000000001"></rect><g data-width="79.83040000000001" transform="translate(19.19, 0)"><path d="M8.74 0.18Q5.09 0.18 3.10-1.58Q1.12-3.34 1.12-7.07L1.12-7.07Q1.12-9.48 2.03-11.12Q2.95-12.75 4.68-13.57Q6.42-14.38 8.88-14.38L8.88-14.38Q9.85-14.38 10.71-14.28Q11.56-14.17 12.43-13.94L12.43-13.94L12.43-12.15Q10.78-12.58 9.02-12.58L9.02-12.58Q6.22-12.58 4.81-11.25Q3.41-9.93 3.41-7.11L3.41-7.11Q3.41-4.21 4.79-2.92Q6.18-1.62 8.87-1.62L8.87-1.62Q9.81-1.62 10.66-1.75Q11.51-1.87 12.43-2.16L12.43-2.16L12.43-0.36Q10.71 0.18 8.74 0.18L8.74 0.18Z" transform="translate(0 77.3357) " fill="#c69e66" stroke="#c69e66" stroke-width="0.032" data-glyph-w="13.01082" data-glyph-h="23.987500000000004" data-glyph-ascender="19.765700000000002" data-glyph-descender="-4.221800000000001"></path><path d="M3.92 0L1.76 0L1.76-14.20L3.92-14.20L3.92-8.22L12.01-8.22L12.01-14.20L14.18-14.20L14.18 0L12.01 0L12.01-6.33L3.92-6.33L3.92 0Z" transform="translate(13.01082 77.3357) " fill="#c69e66" stroke="#c69e66" stroke-width="0.032" data-glyph-w="15.937295000000002" data-glyph-h="23.987500000000004" data-glyph-ascender="19.765700000000002" data-glyph-descender="-4.221800000000001"></path><path d="M7.83 0.18Q4.66 0.18 3.17-1.32Q1.68-2.82 1.68-5.91L1.68-5.91L1.68-14.20L3.86-14.20L3.86-5.71Q3.86-3.57 4.83-2.59Q5.80-1.61 7.83-1.61L7.83-1.61Q9.86-1.61 10.83-2.59Q11.80-3.57 11.80-5.71L11.80-5.71L11.80-14.20L13.93-14.20L13.93-5.91Q13.93-2.82 12.45-1.32Q10.97 0.18 7.83 0.18L7.83 0.18Z" transform="translate(28.948115 77.3357) " fill="#c69e66" stroke="#c69e66" stroke-width="0.032" data-glyph-w="15.620660000000003" data-glyph-h="23.987500000000004" data-glyph-ascender="19.765700000000002" data-glyph-descender="-4.221800000000001"></path><path d="M13.69-14.20L8.26-7.30L13.99 0L11.49 0L6.94-5.81L2.40 0L-0.03 0L5.67-7.26L0.20-14.20L2.70-14.20L6.99-8.75L11.28-14.20L13.69-14.20Z" transform="translate(44.568775 77.3357) " fill="#c69e66" stroke="#c69e66" stroke-width="0.032" data-glyph-w="13.960725000000002" data-glyph-h="23.987500000000004" data-glyph-ascender="19.765700000000002" data-glyph-descender="-4.221800000000001"></path><path d="M3.92 0L1.76 0L1.76-14.20L3.92-14.20L3.92 0Z" transform="translate(58.529500000000006 77.3357) " fill="#c69e66" stroke="#c69e66" stroke-width="0.032" data-glyph-w="5.68024" data-glyph-h="23.987500000000004" data-glyph-ascender="19.765700000000002" data-glyph-descender="-4.221800000000001"></path><path d="M7.83 0.18Q4.66 0.18 3.17-1.32Q1.68-2.82 1.68-5.91L1.68-5.91L1.68-14.20L3.86-14.20L3.86-5.71Q3.86-3.57 4.83-2.59Q5.80-1.61 7.83-1.61L7.83-1.61Q9.86-1.61 10.83-2.59Q11.80-3.57 11.80-5.71L11.80-5.71L11.80-14.20L13.93-14.20L13.93-5.91Q13.93-2.82 12.45-1.32Q10.97 0.18 7.83 0.18L7.83 0.18Z" transform="translate(64.20974000000001 77.3357) " fill="#c69e66" stroke="#c69e66" stroke-width="0.032" data-glyph-w="15.620660000000003" data-glyph-h="23.987500000000004" data-glyph-ascender="19.765700000000002" data-glyph-descender="-4.221800000000001"></path></g></svg></g>
        </g>
  </svg>